<?xml version="1.0" encoding="UTF-8" standalone="no"?>
<svg
   xmlns:dc="http://purl.org/dc/elements/1.1/"
   xmlns:cc="http://creativecommons.org/ns#"
   xmlns:rdf="http://www.w3.org/1999/02/22-rdf-syntax-ns#"
   xmlns:svg="http://www.w3.org/2000/svg"
   xmlns="http://www.w3.org/2000/svg"
   viewBox="0 0 212.47984 109.82957"
   height="109.82957"
   width="212.47984"
   id="svg8111"
   version="1.1">
  <metadata
     id="metadata8117">
    <rdf:RDF>
      <cc:Work
         rdf:about="">
        <dc:format>image/svg+xml</dc:format>
        <dc:type
           rdf:resource="http://purl.org/dc/dcmitype/StillImage" />
        <dc:title></dc:title>
      </cc:Work>
    </rdf:RDF>
  </metadata>
  <defs
     id="defs8115" />
  <path
     id="path8121"
     d="m 208.09382,109.26886 c -2.32922,-0.87909 -2.34522,-0.95428 -0.5,-2.35078 2.66818,-2.01934 4.40618,-1.84786 4.40618,0.43473 0,2.54512 -0.97381,3.02279 -3.90618,1.91605 z m -59.33305,-0.41336 c -0.30008,-0.28139 -17.57726,-1.35381 -22.67744,-1.40762 -5.19105,-0.0548 -2.71089,-1.41211 3.20871,-1.75606 7.12849,-0.41419 9.54768,-0.78638 10.35426,-1.59295 1.08327,-1.08327 2.37874,-0.80166 2.1037,0.45731 -0.44215,2.02391 6.48799,3.09579 16.55284,2.56022 7.18192,-0.38216 9.69858,-0.21188 9.41287,0.6369 -0.32916,0.97788 -17.99224,2.00497 -18.95494,1.1022 z m -92.683116,-1.34386 c -2.43229,-0.3299 -4.623112,-1.20978 -4.868494,-1.95529 -0.333781,-1.01409 0.276306,-1.20445 2.422346,-0.75581 1.577672,0.32981 7.822764,0.7912 13.877984,1.02531 6.055219,0.2341 11.455219,0.51501 12,0.62423 C 82.221903,106.9939 85,106.2575 85,104.99469 c 0,-1.28693 7.400853,-3.58286 11.54922,-3.58286 3.241711,0 1.16107,1.87149 -2.79922,2.51784 -2.3375,0.38149 -5.653115,1.54605 -7.368034,2.58789 -3.226627,1.96024 -19.294674,2.48732 -30.304312,0.99408 z M 109.5,105.41183 c -0.34913,-1.1 -1.1026,-2 -1.67438,-2 -0.57178,0 -0.78058,0.675 -0.46399,1.5 0.35062,0.91371 0.002,1.5 -0.89301,1.5 -0.80774,0 -1.46862,-0.44143 -1.46862,-0.98095 0,-0.53952 -1.125,-1.2633 -2.5,-1.60841 -4.103969,-1.03003 -2.856549,-1.89517 3.10459,-2.15315 4.47568,-0.1937 5.49475,0.0412 5.06267,1.16724 -0.62955,1.64057 1.31424,2.57527 5.35551,2.57527 1.57256,0 3.13731,0.45 3.47723,1 0.38049,0.61565 -1.30049,1 -4.3736,1 -4.11337,0 -5.10331,-0.35189 -5.6264,-2 z m 98.32513,-3.36993 c -1.49724,-2.062401 -2.29264,-2.259201 -7.5,-1.85568 -4.25242,0.32953 -5.54171,0.151 -4.77538,-0.661241 3.94744,-4.18395 17.43335,-1.78599 15.96548,2.838861 -0.82911,2.61229 -1.60935,2.54422 -3.6901,-0.32194 z M 63.238911,101.25074 C 61.660577,99.672409 56.884942,99.262429 55.309403,100.57001 53.88989,101.7481 49,100.89731 49,99.472229 c 0,-1.96585 13.439791,-2.77022 15.649167,-0.9366 1.467035,1.21753 1.844849,3.876201 0.550833,3.876201 -0.44,0 -1.32249,-0.52249 -1.961089,-1.16109 z M 155,101.28254 c 0,-0.94273 13.85059,-2.190421 18.93414,-1.705631 2.23622,0.21326 4.06586,0.0684 4.06586,-0.3218 0,-0.39025 1.23966,-0.6743 2.75481,-0.63122 1.51514,0.0431 3.76736,-0.24304 5.00492,-0.63583 2.28285,-0.72455 4.34087,1.65647 2.78048,3.216871 C 187.61991,102.12524 155,102.20072 155,101.28253 Z M 68.499999,100.4118 c -0.365056,-0.590671 0.736436,-0.993731 2.690983,-0.984691 2.504372,0.0116 2.944266,0.25104 1.809017,0.984691 -1.943926,1.25626 -3.723588,1.25626 -4.5,0 z M 0.677556,99.756019 C 0.3049,99.383369 0,97.110439 0,94.705079 v -4.37339 l 4.25,0.18172 c 4.6375725,0.19829 14.540975,-0.68667 21.957848,-1.96214 2.589318,-0.44528 5.289317,-0.44072 6,0.0101 1.180287,0.74879 0.397642,1.26408 -1.466876,0.96579 -0.417465,-0.0668 -2.667465,0.33131 -5,0.88466 -2.332534,0.5534 -6.940972,1.23481 -10.240972,1.5143 -8.15017,0.69027 -12.659271,1.78484 -12.299555,2.98568 0.389032,1.2987 30.174167,0.76847 30.632887,-0.54532 0.426629,-1.22188 4.166668,-1.256 4.166668,-0.038 0,0.50416 -0.5625,1.12151 -1.25,1.37187 -0.6875,0.25037 0.4375,0.78795 2.5,1.19463 6.059371,1.19477 4.496738,2.79892 -2,2.05314 -11.385893,-1.30702 -15.831785,-1.42736 -20.75,-0.56165 -8.571114,1.50869 -15.116735,2.075271 -15.822444,1.36956 z m 45.322443,-0.34422 c 0,-0.55 0.45,-1 1,-1 0.55,0 1,0.45 1,1 0,0.55 -0.45,1.000001 -1,1.000001 -0.55,0 -1,-0.450001 -1,-1.000001 z m 51,-1.5 c -1.47502,-0.8432 -1.88501,-1.43806 -1,-1.45091 2.789751,-0.0405 5.980851,1.17287 5.429741,2.0646 -0.73078,1.18241 -1.46595,1.08056 -4.429741,-0.61369 z M 140.25,97.601339 c -3.64534,-1.73908 -4.4103,-3.72623 -1.10131,-2.86091 4.24519,1.11014 7.58538,-0.2689 7.07815,-2.92231 -0.35254,-1.84422 -0.024,-2.40889 1.40658,-2.41733 1.02662,-0.006 3.66658,-0.23513 5.86658,-0.50907 3.87115,-0.48203 3.60963,-0.15863 -1.35869,1.68023 -1.90074,0.7035 -2.12924,1.14947 -1.17689,2.29698 0.64999,0.78319 1.82729,1.17629 2.61622,0.87355 1.86054,-0.71395 8.61274,0.54741 8.02459,1.49906 -0.2477,0.40078 -3.5227,0.45426 -7.27779,0.11886 -8.04005,-0.71814 -9.65898,-0.3244 -9.00163,2.18931 0.57096,2.18335 -0.58283,2.19509 -5.07581,0.0516 z M 104,97.245129 c 0,-0.45833 0.675,-0.83333 1.5,-0.83333 0.825,0 1.5,0.375 1.5,0.83333 0,0.45834 -0.675,0.83334 -1.5,0.83334 -0.825,0 -1.5,-0.375 -1.5,-0.83334 z m -12.500001,-0.83333 c 0.339919,-0.55 0.816476,-1 1.059017,-1 0.242541,0 0.440983,0.45 0.440983,1 0,0.55 -0.476558,1 -1.059017,1 -0.582459,0 -0.780902,-0.45 -0.440983,-1 z m 79.500001,-1 c 0,-0.55 0.45,-1 1,-1 0.55,0 1,0.45 1,1 0,0.55 -0.45,1 -1,1 -0.55,0 -1,-0.45 -1,-1 z m -131.500001,-1 c -0.351909,-0.5694 0.509288,-1 2,-1 1.490712,0 2.351909,0.4306 2,1 -0.339919,0.55 -1.239919,1 -2,1 -0.760081,0 -1.660081,-0.45 -2,-1 z M 115.5,94.395399 c -2.2,-0.41752 -5.42863,-1.21851 -7.17473,-1.77997 -1.7461,-0.56146 -3.33813,-0.85744 -3.53785,-0.65771 -0.19972,0.19972 -0.91241,-0.51641 -1.58375,-1.5914 -1.23002,-1.96957 -0.0764,-2.43198 5.54633,-2.22317 0.6875,0.0255 1.25,-0.550275 1.25,-1.279585 0,-0.95644 -0.97346,-1.16805 -3.49272,-0.75923 -5.75485,0.93388 -9.507281,0.74407 -9.507281,-0.48092 0,-0.43361 3.487501,-0.91259 7.750001,-1.06438 4.2625,-0.1518 9.55,-0.68602 11.75,-1.18717 5.10965,-1.16394 8.76972,-1.2055 8.08139,-0.0918 -0.29515,0.47757 -3.233,1.17336 -6.52856,1.54621 -3.29555,0.37285 -6.29326,1.1655 -6.66157,1.76143 -0.39531,0.63963 -0.10052,0.88089 0.71954,0.58892 0.76406,-0.27203 2.18732,-0.0839 3.16281,0.41809 1.23967,0.637915 2.23958,0.446715 3.32143,-0.63513 0.8513,-0.8513 2.6548,-1.54782 4.00777,-1.54782 1.35298,0 2.71898,-0.675 3.03556,-1.5 0.31659,-0.825 1.20246,-1.5 1.96862,-1.5 0.76615,0 1.39301,-0.45 1.39301,-1 0,-0.55 0.45,-1 1,-1 1.63294,0 1.13917,2.43636 -0.83663,4.12809 -2.43471,2.08466 -10.74491,4.868045 -14.59151,4.887215 -3.69912,0.0184 -7.30613,1.87004 -4.07186,2.09022 8.36542,0.56951 14.70097,-0.007 17.06004,-1.55291 1.43742,-0.94184 2.9082,-1.41772 3.26839,-1.05752 0.3602,0.3602 -0.12884,1.09351 -1.08676,1.62959 -0.95792,0.53608 -1.74167,1.63448 -1.74167,2.44088 0,0.969 -0.93255,1.41559 -2.75,1.31697 -1.5125,-0.0821 -3.425,0.0779 -4.25,0.35548 -0.825,0.27759 -3.3,0.1631 -5.5,-0.25442 z m 19,0.0164 c -0.33992,-0.55 -0.14148,-1 0.44098,-1 0.58246,0 1.05902,0.45 1.05902,1 0,0.55 -0.19844,1 -0.44098,1 -0.24254,0 -0.7191,-0.45 -1.05902,-1 z m 46.75,0.29427 c -3.45855,-0.66615 -2.66682,-2.38135 1,-2.16641 1.7875,0.10478 5.1625,-0.14568 7.5,-0.55658 2.34776,-0.41269 4.25,-0.35298 4.25,0.13342 0,0.823 -8.14634,3.45864 -9.76435,3.15912 -0.40461,-0.0749 -1.74815,-0.3312 -2.98565,-0.56955 z m -91.151083,-1.93058 c -3.051062,-1.52339 -0.987195,-2.65191 2.455854,-1.34287 1.497433,0.56933 2.984658,0.77308 3.304958,0.45279 1.08463,-1.08464 -2.024632,-2.20593 -7.786914,-2.80821 -7.351171,-0.76835 -9.072816,-1.46389 -9.072816,-3.665395 0,-0.98231 -0.675,-2.04504 -1.5,-2.36163 -0.825,-0.31658 -1.5,-0.17722 -1.5,0.30968 0,0.48691 0.5625,1.08618 1.25,1.33171 0.6875,0.24554 0.979452,0.74109 0.648781,1.10122 -0.33067,0.36014 -1.90567,-0.0255 -3.5,-0.85693 -3.712423,-1.93605 -9.398781,-2.02116 -9.398781,-0.14068 0,1.83158 -3.137933,2.58638 -10.821429,2.60298 -4.50195,0.01 -6.791717,0.483935 -7.955357,1.647575 -1.059524,1.05952 -1.765759,1.23844 -2.008928,0.50893 -0.881314,-2.643945 2.425635,-3.987975 8.885125,-3.611145 8.2729,0.48262 10.179314,-0.0782 9.332805,-2.74528 -0.61533,-1.93873 -0.338704,-2.02634 5.000427,-1.58357 4.019345,0.33331 5.863371,0.0906 6.384318,-0.84027 0.60082,-1.0736 1.206245,-1.06319 3.367206,0.0579 1.449073,0.75179 4.925438,1.68195 7.725256,2.06702 C 87.70924,83.284394 90,84.049454 90,84.599454 c 0,0.62944 -1.945394,0.73805 -5.25,0.29309 -5.14595,-0.6929 -6.337148,0.0957 -1.635307,1.08262 7.133335,1.49729 12.064147,2.391995 12.684797,2.301685 0.38528,-0.0561 1.71301,-0.0486 2.950511,0.0165 2.818359,0.14833 2.995969,2.11842 0.19098,2.11842 -1.132461,0 -1.793051,0.43035 -1.467971,0.95633 0.325069,0.52598 1.251631,0.70283 2.059021,0.39301 0.807379,-0.30983 1.467969,-0.0652 1.467969,0.54367 0,0.60885 -0.3375,1.13954 -0.75,1.17932 -4.853351,0.46808 -8.272341,0.2294 -10.151083,-0.70864 z m -22.600075,-0.36553 c -0.340556,-0.55103 0.637049,-1.4795 2.172454,-2.06326 2.332981,-0.88699 5.214295,-0.88683 15.578703,8.9e-4 0.4125,0.0353 0.75,0.54456 0.75,1.13163 0,0.6426 -0.869999,0.79126 -2.186103,0.37354 -3.170112,-1.00615 -12.013994,-0.64083 -13.200092,0.54527 -1.284574,1.28457 -2.325961,1.28856 -3.114962,0.0119 z m 72.151848,-4.74252 c 0.61323,-2.443285 0.508,-2.507955 -3.00761,-1.848425 -4.27273,0.80157 -5.07262,-0.93429 -0.85717,-1.86016 5.10422,-1.12107 14.21409,-0.37799 14.21409,1.15943 0,1.02162 -1.12003,1.31655 -4.1612,1.09571 -2.66893,-0.1938 -4.31259,0.14611 -4.58334,0.94784 -0.23217,0.687495 0.29037,1.249995 1.16121,1.249995 2.60843,0 1.7847,1.4883 -0.90976,1.64374 -2.18824,0.12623 -2.41429,-0.1646 -1.85622,-2.38813 z m 20.90967,1.84205 c -0.47118,-0.76237 1.85963,-1.10709 7.63062,-1.12854 9.39316,-0.0349 22.90179,-1.579525 23.7477,-2.715385 0.7086,-0.9515 13.06132,-1.02009 13.06132,-0.0725 0,1.47001 -2.33615,1.98508 -10.77856,2.376445 -4.79679,0.22236 -9.84644,0.65671 -11.22144,0.96522 -5.56644,1.24893 -21.76654,1.66391 -22.43964,0.5748 z m -4.92528,-2.879085 c -0.27671,-0.44774 -0.14543,-1.39281 0.29174,-2.10016 0.62088,-1.00461 0.92519,-0.94645 1.39034,0.26572 0.6293,1.63992 -0.82326,3.224035 -1.68208,1.83444 z M 153,84.911834 c 0,-0.825 0.43588,-1.5 0.96862,-1.5 0.53273,0 0.70959,0.675 0.39301,1.5 -0.31659,0.825 -0.75246,1.5 -0.96862,1.5 -0.21615,0 -0.39301,-0.675 -0.39301,-1.5 z m 9.07895,0.64301 c -0.0448,-0.76957 -0.71441,-1.11314 -1.54692,-0.79367 -0.80739,0.30982 -1.73444,0.13217 -2.06011,-0.39477 -0.52748,-0.85348 6.0395,-1.2046 16.02808,-0.85699 1.65,0.0574 3.45,0.0602 4,0.006 6.85244,-0.67308 12.5,-0.65766 12.5,0.0341 0,0.47416 -0.3375,0.88765 -0.75,0.91888 -0.4125,0.0312 -3.225,0.23938 -6.25,0.46256 -3.025,0.22319 -8.3125,0.68761 -11.75,1.03205 -4.22334,0.42318 -6.25,0.27319 -6.25,-0.46256 0,-1.5051 -2.71833,-1.37383 -3.33772,0.16118 -0.37611,0.93209 -0.52446,0.90488 -0.58333,-0.10699 z M 0.437244,74.911694 c -0.06599,-9.9887 0.537676,-11.43696 2.71595,-6.5159 1.790652,4.04536 2.539889,4.20043 14.72595,3.0478 5.84147,-0.55252 12.645855,-1.15916 15.120855,-1.34808 2.475,-0.18892 5.2875,-0.69318 6.25,-1.12057 1.263048,-0.56086 1.75,-0.32993 1.75,0.8299 0,0.95883 -0.835543,1.60699 -2.071566,1.60699 -1.535625,0 -2.024413,0.5821 -1.889309,2.25 0.100243,1.2375 0.132447,2.72229 0.07157,3.29953 -0.124021,1.17594 -21.645201,3.85619 -23.207992,2.89033 -1.57029,-0.97049 -10.691103,1.56634 -11.295635,3.14173 -1.350424,3.51914 -2.111924,0.68285 -2.169823,-8.08173 z m 26.806082,1.97522 c 8.129523,-0.67661 10.123209,-1.67336 6.850423,-3.42491 -3.408948,-1.82441 -16.030482,-0.98835 -23.058159,1.52739 -2.2583685,0.80844 2.924612,3.3241 5.964409,2.89494 1.375,-0.19413 5.984497,-0.64297 10.243327,-0.99742 z m -19.611109,-2.1762 c -0.296492,-0.29649 -1.774063,-0.22911 -3.283492,0.14973 -2.062818,0.51774 -2.398213,0.90277 -1.350452,1.55032 1.415223,0.87466 5.6536875,-0.6803 4.633944,-1.70005 z m 20.367782,8.70112 c 0,-0.55 1.29375,-1 2.875,-1 4.966494,0 9.125,-1.19628 9.125,-2.625 0,-0.75625 -0.45,-1.375 -1,-1.375 -0.55,0 -1,-0.38724 -1,-0.86054 0,-0.4733 2.698995,-0.8108 5.997766,-0.75 5.287721,0.0975 8.812765,1.49316 4.252234,1.68363 -0.9625,0.0402 -3.1,0.93352 -4.75,1.98515 -6.023868,3.83934 -15.5,5.63783 -15.5,2.94176 z m 179.662381,-0.67095 c -0.36902,-0.36903 -3.14402,-0.5709 -6.16667,-0.44861 -3.31719,0.1342 -5.49571,-0.19444 -5.49571,-0.82905 0,-0.57827 1.9125,-1.05753 4.25,-1.06504 5.09926,-0.0164 8.75,-0.89381 8.75,-2.10298 0,-0.48585 -1.575,-0.88337 -3.5,-0.88337 -4.4511,0 -4.76968,-2.47784 -0.36176,-2.81371 3.59293,-0.27377 5.10299,-0.98696 4.42217,-2.08855 -0.25972,-0.42024 -3.47979,-0.57657 -7.1557,-0.34741 -4.8555,0.30269 -6.90918,0.0519 -7.50871,-0.91684 -0.64497,-1.0422 -4.76498,-1.29602 -18.86062,-1.16195 C 166.11592,70.177674 158,69.875974 158,69.412834 c 0,-1.4448 4.96677,-1.89511 21,-1.90395 24.63159,-0.0136 26.36836,-0.062 25.7131,-0.71728 -0.34112,-0.34112 -5.25362,-0.73285 -10.91666,-0.87051 -22.49369,-0.54677 -25.58061,-0.74987 -21.29644,-1.40116 2.2,-0.33446 9.2875,-0.6081 15.75,-0.6081 6.4625,0 11.75,-0.33977 11.75,-0.75505 0,-0.41528 -5.17561,-0.64028 -11.50135,-0.5 -8.23159,0.18254 -11.50096,-0.0761 -11.5,-0.90962 0.002,-1.36453 12.90934,-2.30415 13.71235,-0.9982 0.2831,0.46043 0.93015,0.42173 1.43787,-0.086 0.50772,-0.50772 2.93353,-0.61803 5.39068,-0.24513 4.83262,0.73341 12.99817,-0.2824 10.46045,-1.3013 -1.3052,-0.52404 -44.02126,-1.66906 -63.25,-1.69544 -4.7306,-0.006 -6.74878,-0.38322 -6.74591,-1.25926 0.005,-1.41698 3.06627,-1.44016 45.46868,-0.34425 30.35973,0.78467 28.31791,0.0493 27.74945,9.99469 -0.24535,4.29255 0.0386,8.21836 0.68125,9.41919 0.74,1.38271 0.76724,2.26585 0.0829,2.68878 -0.56046,0.34638 -0.74793,1.06841 -0.41661,1.60449 1.15415,1.86746 -2.36199,4.76156 -3.9074,3.21615 z M 208.5,69.411834 c 0.38579,-0.62423 -1.63661,-1 -5.38197,-1 -3.3,0 -6.27811,0.45 -6.61803,1 -0.38579,0.62423 1.63661,1 5.38197,1 3.3,0 6.27811,-0.45 6.61803,-1 z m 0.5,-6 c -1.98326,-1.28168 -6.29212,-1.28168 -5.5,0 0.33992,0.55 2.05398,0.99311 3.80902,0.98469 2.42807,-0.0117 2.83235,-0.24708 1.69098,-0.98469 z m -151.000001,18 c 0,-0.55 0.45,-1 1,-1 0.55,0 1,0.45 1,1 0,0.55 -0.45,1 -1,1 -0.55,0 -1,-0.45 -1,-1 z M 100,81.446334 c -1.925001,-0.42417 -3.275001,-0.83867 -3.000001,-0.92111 1.944451,-0.58296 20.000731,-0.45962 20.000411,0.13662 -2.3e-4,0.4125 -1.74416,0.75 -3.87541,0.75 -2.13125,0 -5.16875,0.18128 -6.75,0.40285 -1.58125,0.22157 -4.45,0.0558 -6.375,-0.36836 z m 32.31409,-1.40003 c -3.72917,-1.20362 -3.81574,-1.32509 -2.27089,-3.18651 0.87692,-1.05663 0.97765,-1.82931 0.29647,-2.27417 -0.56745,-0.37058 -1.34455,-1.951 -1.7269,-3.51203 -0.56737,-2.31647 -0.95718,-2.62081 -2.12035,-1.65546 -0.78385,0.65053 -2.00281,0.97957 -2.7088,0.7312 -0.70599,-0.24838 0.50901,-1.21189 2.70001,-2.14113 3.74147,-1.58684 3.61195,-4.33774 -0.13651,-2.89932 -0.76207,0.29243 -1.6849,-0.43592 -2.15194,-1.69846 -0.96739,-2.6151 -0.34931,-7.99858 0.91832,-7.99858 1.16497,0 1.12563,1.68466 -0.0925,3.96074 -1.39612,2.60867 1.14044,4.45697 5.04495,3.67607 2.8005,-0.5601 3.00748,-0.42176 2.43202,1.62549 -0.49316,1.75444 -0.40219,1.91376 0.4212,0.7377 0.57761,-0.825 1.05709,-2.2875 1.06551,-3.25 0.008,-0.9625 0.50106,-1.75 1.09477,-1.75 1.19553,0 0.29762,5.8735 -1.13065,7.39583 -0.46226,0.49271 -0.58382,2.17909 -0.27014,3.74752 0.33647,1.68235 0.0331,3.49903 -0.73986,4.43038 -2.31217,2.786 1.47048,4.12534 7.06119,2.50019 1.375,-0.39969 3.73143,-0.38799 5.23652,0.026 1.50508,0.414 2.96803,0.37813 3.25099,-0.0797 0.28297,-0.45784 1.41643,-0.59658 2.51881,-0.3083 1.10238,0.28828 2.58785,0.0399 3.30104,-0.55203 1.45033,-1.20366 5.69265,-0.44668 5.69265,1.01577 0,0.51831 0.50559,0.62991 1.12354,0.248 1.08861,-0.6728 4.50187,-0.79665 13.87646,-0.50354 10.34238,0.32338 0.76439,1.8952 -11.5,1.88724 -7.15,-0.005 -13.45,0.10814 -14,0.25062 -2.62346,0.67962 -14.68931,0.38228 -17.18591,-0.42351 z m -49.314091,-0.63446 c 0,-0.55 0.45,-1 1,-1 0.55,0 1,0.45 1,1 0,0.55 -0.45,1 -1,1 -0.55,0 -1,-0.45 -1,-1 z M 118,79.542684 c 0,-0.47803 1.4625,-1.11475 3.25,-1.41492 1.7875,-0.30017 4.0375,-0.8572 5,-1.23783 0.96778,-0.38273 1.75,-0.24099 1.75,0.3171 0,1.12592 -5.28623,3.20481 -8.14922,3.20481 -1.01793,0 -1.85078,-0.39112 -1.85078,-0.86916 z m 62,-0.69659 c 0,-0.71189 2.59648,-1.36885 6.71743,-1.69964 3.69459,-0.29657 6.88209,-1.03318 7.08334,-1.63691 0.57178,-1.71534 6.19923,-1.36744 6.19923,0.38325 0,1.79284 -2.29587,2.42263 -12.32331,3.38045 C 182.09677,79.806234 180,79.689564 180,78.846094 Z M 70.619047,78.697544 c -1.40011,-1.4001 -0.5806,-5.28744 1.130952,-5.36466 1.055748,-0.0476 1.251634,-0.27987 0.493769,-0.58541 -0.690926,-0.27855 -1.005054,-0.91287 -0.698062,-1.4096 0.306993,-0.49672 -0.08275,-0.65719 -0.866105,-0.35659 -1.550418,0.59496 -3.022415,-4.24477 -1.844285,-6.06375 2.611778,-4.03248 0.99195,-5.01579 -7.664625,-4.65281 -6.297215,0.26404 -8.231753,0.0549 -7.684429,-0.83066 0.459528,-0.74353 2.271037,-1.0007 4.872603,-0.69172 5.426973,0.64454 9.368667,-0.17809 10.109988,-2.10994 0.722961,-1.88401 -0.939048,-3.886832 -1.915003,-2.307702 -0.814441,1.317792 -6.553851,1.463682 -6.553851,0.166592 0,-0.506304 1.329602,-1.212579 2.954671,-1.569504 3.520514,-0.773235 3.9177,-1.867199 3.997386,-11.009956 0.05979,-6.859995 0.489574,-11.504786 1.526747,-16.5 0.285496,-1.375 0.713227,-4.075 0.950514,-6 1.352851,-10.9750811 2.645551,-13.4657601 7.570682,-14.5866361 1.375,-0.312926 3.4,-0.944933 4.5,-1.404459 20.655301,-8.6287692 55.389311,0.183007 55.149691,13.9910951 -0.0525,3.025 0.27052,9.1 0.71781,13.5 0.44728,4.4 0.9032,8.9 1.01314,10 0.10995,1.1 -0.18811,3.575 -0.66234,5.5 -0.47424,1.925 -0.833,4.85 -0.79724,6.5 0.0654,3.01634 -1.74898,7.26017 -2.03075,4.75 -0.30963,-2.75845 -0.42238,-3.11482 -1.23917,-3.916667 -0.46688,-0.458333 -0.69188,0.924157 -0.5,3.072207 0.19187,2.14805 -0.10114,4.06055 -0.65114,4.25 -0.62694,0.21596 -1,-3.75923 -1,-10.65554 0,-9.964458 1.23587,-15.650098 1.6846,-7.75 0.17453,3.072798 0.38005,5.312795 0.80281,8.75 0.10147,0.825 0.57514,0.194286 1.0526,-1.401587 0.50268,-1.680174 0.4876,-3.612558 -0.0358,-4.590572 -1.11738,-2.087825 -0.90138,-6.007841 0.33104,-6.007841 0.5003,0 0.35143,-0.672603 -0.33083,-1.494674 -0.68226,-0.82207 -1.01329,-2.363402 -0.73563,-3.425182 0.35449,-1.355552 0.0918,-1.772014 -0.88197,-1.398337 -1.58035,0.606433 -1.908,-1.241668 -0.38682,-2.181807 2.91227,-1.799879 0.35941,-2.221031 -3.75,-0.618647 -2.6125,1.018692 -6.94503,2.173326 -9.62785,2.565853 -2.68282,0.392526 -5.49532,0.950629 -6.25,1.240228 C 112.61747,34.388867 112,34.185178 112,33.646631 c 0,-0.538549 1.73026,-1.25586 3.84502,-1.594025 4.64292,-0.742433 14.31976,-3.686616 15.51785,-4.721314 2.09559,-1.809802 -0.54478,-2.7414 -3.85259,-1.359306 C 123.46862,27.6607 122,27.783008 122,26.430886 c 0,-0.539521 1.2375,-1.283582 2.75,-1.653467 5.22175,-1.276992 9.56541,-4.049841 7.2802,-4.647437 -1.09639,-0.286712 -3.68921,0.355662 -5.76182,1.427496 -2.07261,1.071835 -6.46838,2.150457 -9.76838,2.396938 -4.15234,0.310144 -5.38411,0.163275 -4,-0.476932 1.1,-0.508794 3.125,-0.963483 4.5,-1.010421 4.16213,-0.142081 10.29334,-2.699269 12.24212,-5.105904 2.63861,-3.258543 0.78421,-4.274831 -3.76373,-2.062681 -2.7782,1.351339 -4.56811,1.649542 -6.19299,1.031767 C 117.54498,15.668537 117,15.813126 117,16.936585 c 0,0.811387 -0.9,1.475249 -2,1.475249 -1.33175,0 -2,-0.666667 -2,-1.995262 0,-1.768703 0.62842,-1.980775 5.53434,-1.867676 3.04389,0.07017 5.81889,-0.156959 6.16667,-0.504738 0.34778,-0.347778 -0.31612,-0.632324 -1.47533,-0.632324 -1.1592,0 -2.40976,-0.488829 -2.77901,-1.086288 -0.42066,-0.680647 0.21078,-1.012732 1.69098,-0.889309 5.22933,0.436036 6.68673,0.02003 6.21739,-1.7747361 -1.75613,-6.715461 -33.06824,-9.28358995 -45.533881,-3.734558 -3.193178,1.42143 -2.96471,1.468419 5.928841,1.219386 5.0875,-0.142457 9.25,0.084 9.25,0.503246 0,0.419242 -1.9125,0.815501 -4.25,0.880574 -5.202575,0.144833 -11.257104,1.5258471 -8.25,1.8817911 1.1,0.130205 2.371412,0.172143 2.825361,0.0932 0.453948,-0.07895 0.544822,0.740356 0.201942,1.820675 -0.435148,1.371028 -0.0049,2.295233 1.424639,3.060304 C 91.324498,16.120684 92,16.140771 92,15.447019 c 0,-0.569351 -0.7875,-1.07071 -1.75,-1.114131 -1.045438,-0.04716 -1.246741,-0.282017 -0.5,-0.583334 0.6875,-0.277412 1.25,-1.13993 1.25,-1.916706 0,-1.162396 1.725358,-1.30223 9.75,-0.790199 12.18547,0.777523 13.15776,1.369186 2.25,1.369186 -4.583329,0 -8.047651,0.285682 -7.69848,0.63485 0.58783,0.587837 2.27506,0.763249 13.19848,1.37217 l 4,0.222978 -3.65211,0.711671 c -2.00866,0.391419 -6.17116,0.560405 -9.249999,0.375525 C 96.13099,15.520846 94,15.793859 94,16.446196 c 0,0.579322 0.5625,0.980269 1.25,0.890993 2.62938,-0.34144 5.75,0.106102 5.75009,0.824646 1.1e-4,0.85533 -13.71933,-0.05914 -16.00009,-1.066484 -2.041052,-0.901475 -4.423511,0.770449 -3.717946,2.609121 0.616603,1.606843 4.853009,2.371084 18.463657,3.330812 8.921289,0.629069 10.703039,2.260728 2.029729,1.858754 C 89.271659,24.314536 80.24478,23.047436 76.75,21.381226 c -4.100002,-1.954763 -4.562092,-1.573827 -2.193296,1.808103 1.745077,2.491447 -0.0911,3.288111 -2.356704,1.022506 -1.605134,-1.605134 -1.577463,0.251592 0.05,3.355045 0.6875,1.311012 1.960448,2.244293 2.828774,2.073958 2.568654,-0.503881 7.396935,1.695288 6.246905,2.845318 -0.666667,0.666667 -1.909313,0.65428 -3.727939,-0.03716 -4.343602,-1.651434 -6.507633,-1.113249 -2.84774,0.70822 3.634568,1.808866 3.972724,2.977724 1.681871,5.813489 -1.491387,1.846133 -1.537596,1.794312 -0.944237,-1.05887 0.610574,-2.935954 0.590684,-2.9537 -0.931664,-0.83125 -1.556792,2.17047 -1.137861,5.808912 0.548815,4.766489 C 75.597153,41.542774 76,41.981236 76,42.821433 c 0,0.947053 -0.570078,1.308873 -1.5,0.952028 -1.248091,-0.478937 -1.5,0.638509 -1.5,6.65383 0,6.312784 0.190191,7.071584 1.5,5.984544 1.2774,-1.06015 1.5,-0.79366 1.5,1.79577 0,1.67236 0.273144,3.75246 0.606988,4.62244 0.401285,1.04573 0.05175,1.58179 -1.031385,1.58179 -0.901105,0 -1.896404,-0.67241 -2.211774,-1.49426 -0.31537,-0.82184 -0.976246,-1.24528 -1.468615,-0.94098 -1.46474,0.90526 -1.017557,2.43524 0.711774,2.43524 0.979044,0 1.393585,0.55612 1.060862,1.42319 -0.393777,1.02616 0.8178,1.77275 4.343095,2.67625 2.689073,0.68919 4.648815,1.64206 4.354982,2.11749 -0.293832,0.47544 -1.39637,0.62112 -2.450084,0.32375 C 78.862129,70.655145 77.1,70.156515 76,69.844445 c -1.152103,-0.32684 -2,-0.0898 -2,0.55902 0,0.61952 0.45,0.84829 1,0.50837 0.55,-0.33992 1,-0.17665 1,0.36282 0,0.53946 3.7125,1.88159 8.25,2.98251 6.65365,1.61435 7.513322,2.01646 4.44282,2.07817 C 84.041949,76.428835 76,74.501295 76,73.293125 c 0,-0.48471 -0.45,-0.88129 -1,-0.88129 -0.55,0 -1,0.93214 -1,2.07143 0,2.2505 -2.379162,5.21608 -3.380952,4.21428 z m 1.380952,-10.22669 c 0,-0.51754 -0.45,-1.2191 -1,-1.55902 -0.55,-0.33992 -1,0.0835 -1,0.94098 0,0.85746 0.45,1.55902 1,1.55902 0.55,0 1,-0.42344 1,-0.94098 z M 70.660192,47.66103 c 0.136075,-4.034179 0.04097,-4.29753 -0.631685,-1.749196 -1.075795,4.075608 -1.179694,6.500162 -0.278508,6.499196 0.4125,-4.42e-4 0.822087,-2.137942 0.910193,-4.75 z m 2.339807,-12.249196 c 0,-0.55 -0.701558,-1 -1.559017,-1 -0.857459,0 -1.280902,0.45 -0.940983,1 0.339919,0.55 1.041476,1 1.559017,1 0.517541,0 0.940983,-0.45 0.940983,-1 z M 78.55385,16.498966 c -0.369536,-0.597922 -1.320327,-1.087132 -2.112868,-1.087132 -0.792541,0 -1.440983,-0.45 -1.440983,-1 0,-1.372919 1.146027,-1.20433 3.397322,0.49977 1.043527,0.78989 2.318415,1.175914 2.833084,0.857831 0.51467,-0.318083 -0.451625,-1.422054 -2.147322,-2.453269 -1.695696,-1.031214 -3.083084,-2.358107 -3.083084,-2.948651 0,-0.5905431 0.418906,-0.8148171 0.930902,-0.4983861 0.511996,0.3164311 1.240289,0.07473 1.618429,-0.537115 0.432513,-0.69982 -0.0055,-0.980119 -1.180901,-0.755694 -2.97085,0.56724 -4.300133,7.4297921 -1.797033,9.2773531 2.017291,1.488981 4.143161,0.523357 2.982454,-1.354707 z M 84.6306,12.89158 c -0.339061,-0.883581 -1.065174,-1.329199 -1.613581,-0.990264 -0.633528,0.391542 -0.544945,1.107145 0.242937,1.962523 1.525969,1.656696 2.196854,1.180807 1.370644,-0.972259 z m -3.13768,-2.468292 c 0.35034,-0.5668601 -0.05106,-0.7345071 -0.940983,-0.393011 -1.732417,0.664791 -2.049387,1.381557 -0.610955,1.381557 0.517541,0 1.215913,-0.444846 1.551938,-0.988546 z M 75,77.804844 c 0,-1.05452 0.543803,-1.39831 1.581787,-1 0.869984,0.33385 2.219984,0.60699 3,0.60699 0.780017,0 1.418213,0.45 1.418213,1 0,0.55 -1.35,1 -3,1 -2.08877,0 -3,-0.48811 -3,-1.60699 z m -24,-1.55968 c 0,-0.45833 1.773442,-0.83333 3.940983,-0.83333 2.167541,0 4.172746,0.375 4.456011,0.83333 0.283266,0.45834 -1.490176,0.83334 -3.940983,0.83334 -2.450806,0 -4.456011,-0.375 -4.456011,-0.83334 z m 10,0.16667 c 0,-0.55 0.674999,-1 1.5,-1 0.825,0 1.5,0.45 1.5,1 0,0.55 -0.675,1 -1.5,1 -0.825001,0 -1.5,-0.45 -1.5,-1 z m 36,0.28667 c 0,-0.54744 4.99763,-1.24855 11.31193,-1.58694 6.22157,-0.33343 12.52157,-1.06613 14,-1.62823 2.16453,-0.82295 2.68807,-0.73467 2.68807,0.45325 0,0.81139 -0.7875,1.53268 -1.75,1.60287 -0.9625,0.0702 -2.65,0.29331 -3.75,0.4958 -5.71535,1.05212 -22.5,1.5469 -22.5,0.66325 z m 38.20645,-1.40603 c 0.71947,-2.15841 4.91322,-2.50701 32.76816,-2.7238 20.60408,-0.16036 26.20828,0.0603 25.27357,0.99498 -0.86293,0.86293 -8.6249,1.25952 -27.5719,1.40876 -14.50397,0.11424 -27.39282,0.53207 -28.64188,0.9285 -1.66151,0.52735 -2.15211,0.36405 -1.82795,-0.60844 z m -36.73166,-2.92142 c -0.34782,-0.56279 1.446341,-0.95922 4.34119,-0.95922 2.71371,0 6.45277,-0.28451 8.30902,-0.63224 2.25743,-0.42288 3.04387,-0.29983 2.375,0.3716 -1.37326,1.37852 -14.27955,2.42635 -15.02521,1.21986 z m 16.99822,-1.00289 c -0.32508,-0.52598 0.33551,-0.95633 1.46797,-0.95633 2.41457,0 2.65816,0.55611 0.59105,1.34934 -0.80739,0.30982 -1.73395,0.13297 -2.05902,-0.39301 z M 55,70.505454 c 0,-0.49851 0.899999,-0.67102 2,-0.38337 1.1,0.28766 2,0.69553 2,0.90638 0,0.21085 -0.9,0.38337 -2,0.38337 -1.100001,0 -2,-0.40787 -2,-0.90638 z m 85,-1.16744 c 0,-0.35453 3.6,-0.73136 8,-0.83741 4.83636,-0.11656 8,0.20579 8,0.81515 0,0.60751 -3.17836,0.94021 -8,0.83741 -4.4,-0.0938 -8,-0.46063 -8,-0.81515 z M 32.25765,65.534574 c 1.081804,-4.13682 -1.267463,-4.37503 -26.00765,-2.63705 -6.850528,0.48125 -7.02152803,0.2966 -4.753125,-5.13245 l 1.496874,-3.582527 1.898809,2.344927 c 1.885896,2.32899 2.042335,2.34459 23.003125,2.29457 11.607374,-0.0277 21.097425,0.20618 21.089003,0.51972 -0.03795,1.41273 -1.954178,3.55971 -1.969374,2.20653 -0.01184,-1.05402 -1.065834,-1.20601 -4.643162,-0.66956 -10.724215,1.6082 -8.88191,3.51638 2.792378,2.89223 4.345027,-0.23231 8.673018,0.0282 9.61776,0.57884 1.312598,0.76508 0.420565,1.04271 -3.782289,1.17718 -7.267423,0.23251 -11.763849,0.65009 -15.902152,1.47684 -3.125574,0.62442 -3.356468,0.50498 -2.840197,-1.46925 z m 48.554247,0.37726 c -1.48433,-0.62664 -2.237391,-1.65338 -2.016981,-2.75 0.432362,-2.15117 0.914275,-2.18367 2.902231,-0.19571 2.360731,2.36073 6.536969,1.46732 6.981696,-1.49357 0.547818,-3.64725 1.007947,-3.5438 1.746431,0.39265 C 91.077297,65.340784 93,66.869124 93,63.911834 c 0,-2.18189 1.678327,-1.83808 2.281199,0.46732 0.435281,1.66449 1.10743,1.87839 4.366631,1.38963 2.1187,-0.31773 4.63967,-0.55599 5.60217,-0.52947 1.73803,0.0479 2.53751,-6.25731 1.92013,-15.143477 -0.1076,-1.548799 0.27684,-3.573799 0.85431,-4.5 0.7612,-1.220884 0.9666,1.409871 0.74687,9.565997 -0.3288,12.20483 0.35366,13.88868 2.63441,6.5 l 1.46624,-4.75 -0.15734,5.33954 -0.15735,5.33954 -14.688331,-0.33954 c -8.07858,-0.18675 -15.75425,-0.78954 -17.057042,-1.33954 z M 114,66.769014 c 0,-1.81982 4.07945,-3.53613 5.53456,-2.3285 0.7578,0.62892 1.81645,0.87242 2.35254,0.5411 0.53609,-0.33132 1.25736,-0.14506 1.60282,0.41391 0.36793,0.59533 -0.53546,1.02197 -2.1809,1.02997 -1.54496,0.008 -3.82152,0.28499 -5.05902,0.61663 -1.2375,0.33163 -2.25,0.20874 -2.25,-0.27311 z m 28.51813,-0.17238 c -1.16994,-1.16994 -0.3629,-1.85369 2.23187,-1.89094 1.5125,-0.0217 3.2,-0.15 3.75,-0.28509 2.42006,-0.5944 6.83273,0.0537 5.95,0.87394 -1.07549,0.99931 -11.1367,2.09726 -11.93187,1.30209 z M 58,65.411834 c -1.212959,-0.78387 -1.069438,-0.9723 0.75,-0.98469 1.2375,-0.008 2.25,0.43469 2.25,0.98469 0,1.25292 -1.061241,1.25292 -3,0 z m 4,0 c 0,-0.55 1.125,-1 2.5,-1 1.375,0 2.5,0.45 2.5,1 0,0.55 -1.125,1 -2.5,1 -1.375,0 -2.5,-0.45 -2.5,-1 z m 95,0.0191 c 0,-0.56048 1.425,-1.01905 3.16667,-1.01905 3.64127,0 3.50932,0.43653 -0.41667,1.37838 -1.63254,0.39164 -2.75,0.24563 -2.75,-0.35933 z m 8.5,-0.0191 c -0.33992,-0.55 -0.14148,-1 0.44098,-1 0.58246,0 1.05902,0.45 1.05902,1 0,0.55 -0.19844,1 -0.44098,1 -0.24254,0 -0.7191,-0.45 -1.05902,-1 z m -82.139845,-3.50383 c -0.344146,-0.89683 -0.176229,-2.0801 0.373149,-2.62947 0.665159,-0.66516 1.179288,-0.30895 1.538903,1.06622 0.652685,2.49587 -1.02715,3.86926 -1.912052,1.56325 z M 98.116,57.161834 c -0.0672,-3.910668 0.304641,-6.75 0.884001,-6.75 0.55,0 0.999999,-0.675 0.999999,-1.5 0,-1.775945 0.4819,-1.847645 3.07843,-0.458027 1.30459,0.698199 1.87814,1.944866 1.73842,3.778618 -0.11469,1.505154 0.13116,3.286269 0.54633,3.958029 0.41517,0.67176 0.34339,1.22138 -0.1595,1.22138 -0.5029,0 -1.38352,1.4625 -1.95693,3.25 -1.0136,3.15968 -1.04541,3.10409 -1.14466,-2 -0.1181,-6.07329 -1.72701,-6.993241 -2.623369,-1.5 -1.11143,6.81133 -1.245661,6.81133 -1.362721,0 z m 16.884,4.25 c 0,-0.55 0.47656,-1 1.05902,-1 0.58246,0 0.7809,0.45 0.44098,1 -0.33992,0.55 -0.81648,1 -1.05902,1 -0.24254,0 -0.44098,-0.45 -0.44098,-1 z m 5,-1 c 0,-1.86667 0.26667,-2.13333 1.2,-1.2 0.93333,0.93333 0.93333,1.46667 0,2.4 -0.93333,0.93333 -1.2,0.66667 -1.2,-1.2 z m 20,1 c 0,-0.55 0.45,-1 1,-1 0.55,0 1,0.45 1,1 0,0.55 -0.45,1 -1,1 -0.55,0 -1,-0.45 -1,-1 z m 13,0 c 0,-0.55 1.575,-1 3.5,-1 1.925,0 3.5,0.45 3.5,1 0,0.55 -1.575,1 -3.5,1 -1.925,0 -3.5,-0.45 -3.5,-1 z m 8,-0.14235 c 0,-0.49206 3.375,-0.80752 7.5,-0.70102 4.125,0.10649 7.5,0.57442 7.5,1.03985 0,0.46542 -3.375,0.78088 -7.5,0.70101 -4.125,-0.0799 -7.5,-0.54779 -7.5,-1.03984 z m -68,-0.85765 c 0,-0.55 0.476558,-1 1.059017,-1 0.582459,0 0.780902,0.45 0.440983,1 -0.339919,0.55 -0.816476,1 -1.059017,1 -0.242541,0 -0.440983,-0.45 -0.440983,-1 z m -14.244751,-3.5 c -0.262848,-1.375 -0.09031,-2.5 0.383423,-2.5 0.47373,0 0.861328,0.4132 0.861328,0.91821 0,0.50502 0.273145,1.63002 0.606989,2.5 0.333844,0.86999 0.161303,1.58179 -0.383423,1.58179 -0.544726,0 -1.205469,-1.125 -1.468317,-2.5 z M 116,57.970854 c 0,-0.85746 0.45,-1.55902 1,-1.55902 0.55,0 1,0.42344 1,0.94098 0,0.51754 -0.45,1.2191 -1,1.55902 -0.55,0.33992 -1,-0.0835 -1,-0.94098 z m 4,-3.55902 c 0,-1.65 0.45,-3 1,-3 0.55,0 1,1.35 1,3 0,1.65 -0.45,3 -1,3 -0.55,0 -1,-1.35 -1,-3 z m 8,1.5 c 0,-0.825 0.45,-1.5 1,-1.5 0.55,0 1,0.675 1,1.5 0,0.825 -0.45,1.5 -1,1.5 -0.55,0 -1,-0.675 -1,-1.5 z m -89,-0.82049 c 0,-0.979067 2.326981,-1.380164 9,-1.551308 9.772258,-0.250632 12.22775,1.205518 3.75,2.223818 C 43.231702,56.787014 39,56.563814 39,55.091344 Z m 76.70838,-0.30446 c -0.78038,-0.780379 0.29485,-3.37505 1.39861,-3.37505 1.14261,0 1.16842,2.711753 0.0325,3.4138 -0.47329,0.2925 -1.11728,0.27507 -1.4311,-0.0388 z m -3.836,-4.12505 C 111.69712,45.512281 111.3429,42.411131 110.88502,42.017772 109.89058,41.163464 102,40.709851 102,41.506991 c 0,0.497663 0.675,0.904843 1.5,0.904843 2.07487,0 1.8884,1.942563 -0.25,2.604383 -0.9625,0.297887 -2.5375,0.962577 -3.499999,1.477089 C 98.443311,47.191807 98,47.046655 98,45.920308 c 0,-0.829661 0.450001,-1.508474 1.000001,-1.508474 0.55,0 0.96447,-0.7875 0.92105,-1.75 -0.0472,-1.045438 -0.28201,-1.246741 -0.58333,-0.5 C 98.624091,43.930385 97,43.715701 97,41.852817 c 0,-0.857459 -0.45,-1.280902 -1,-0.940983 -0.55,0.339919 -1,2.481476 -1,4.759017 0,5.182615 -1.736817,3.84473 -2.183174,-1.681717 C 92.517258,40.280105 90,37.455604 90,40.828501 c 0,0.870833 -0.45,1.583333 -1,1.583333 -0.55,0 -1,-0.675 -1,-1.5 0,-0.825 -0.45,-1.5 -1,-1.5 -0.55,0 -1,1.098442 -1,2.440983 0,1.342541 -0.489245,2.743353 -1.087211,3.112916 -0.708125,0.437646 -0.98248,-0.32651 -0.786846,-2.191584 0.44878,-4.278427 -1.088981,-6.234154 -2.633152,-3.348846 -1.203619,2.248984 -1.229296,2.235198 -1.690575,-0.907695 -0.457682,-3.11839 2.480341,-3.765559 6.458379,-1.422612 0.667313,0.393028 5.273372,0.84756 17.645015,1.741235 6.42799,0.46433 23.61207,-3.538608 25.29002,-5.891175 1.27154,-1.782756 1.9853,0.260182 0.83915,2.401798 -0.62,1.158473 -0.8549,2.547013 -0.52201,3.085647 0.3329,0.538633 0.15903,0.979333 -0.38637,0.979333 -0.54539,0 -1.27935,-0.906534 -1.63101,-2.014521 C 126.71349,34.933776 125,35.755014 125,38.593296 c 0,1.765119 -0.22787,1.87431 -1.57622,0.755285 -0.9321,-0.773579 -1.85155,-0.925776 -2.25,-0.372445 C 120.8032,39.49077 118.7,39.911834 116.5,39.911834 h -4 l 0.35329,7.25 c 0.1943,3.9875 0.0818,7.25 -0.25,7.25 -0.33181,0 -0.66072,-1.6875 -0.73091,-3.75 z m 12.12762,2.75 c 0,-0.55 0.45,-1 1,-1 0.55,0 1,0.45 1,1 0,0.55 -0.45,1 -1,1 -0.55,0 -1,-0.45 -1,-1 z m 4.34508,-1.543128 c -0.80982,-2.110341 0.54185,-3.249699 1.69398,-1.427912 1.22421,1.935752 1.19966,2.97104 -0.0704,2.97104 -0.56727,0 -1.29786,-0.694408 -1.62354,-1.543128 z m -12.88021,-2.513707 c -0.80486,-1.302297 0.27213,-5.943165 1.37921,-5.943165 0.44328,0 0.77221,1.573676 0.73095,3.497057 -0.0751,3.498188 -0.88189,4.433481 -2.11016,2.446108 z m 9.26245,0.306835 c -0.89884,-1.725359 -0.70796,-8.25 0.24135,-8.25 0.56723,0 1.03133,2.025 1.03133,4.5 0,4.264153 -0.39638,5.432103 -1.27268,3.75 z M 120,43.911834 c 0,-1.375 0.45,-2.5 1,-2.5 0.55,0 1,1.125 1,2.5 0,1.375 -0.45,2.5 -1,2.5 -0.55,0 -1,-1.125 -1,-2.5 z m 8,-2.059017 c 0,-0.857459 0.45734,-1.276365 1.01631,-0.930902 0.55897,0.345464 0.75742,1.047021 0.44098,1.559017 C 128.60006,43.867976 128,43.609343 128,41.852817 Z m 3,-5.440983 c 0,-1.1 0.45,-2 1,-2 0.55,0 1,0.9 1,2 0,1.1 -0.45,2 -1,2 -0.55,0 -1,-0.9 -1,-2 z M 101.8125,33.72872 c 0.72187,-0.288871 1.58437,-0.253344 1.91667,0.07895 0.33229,0.332292 -0.25834,0.568641 -1.3125,0.52522 -1.16495,-0.04798 -1.4019,-0.284941 -0.60417,-0.604167 z M 102,29.411834 c 0,-0.55 1.4625,-0.968372 3.25,-0.929715 2.72353,0.0589 2.92602,0.209506 1.25,0.929715 -2.7627,1.187174 -4.5,1.187174 -4.5,0 z m 8.5,-1 c 0.33992,-0.55 1.26648,-1 2.05902,-1 0.79254,0 1.44098,0.45 1.44098,1 0,0.55 -0.92656,1 -2.05902,1 -1.13246,0 -1.7809,-0.45 -1.44098,-1 z m 4.5,-0.03168 c 0,-0.889481 2.54364,-1.96832 4.6408,-1.96832 0.81248,0 1.23233,0.396269 0.93299,0.880598 C 119.87389,28.424908 115,29.376041 115,28.380151 Z m -36.971041,-1.92926 c -0.809071,-0.511673 -1.165979,-1.235374 -0.793128,-1.608226 0.915093,-0.915093 3.764168,0.248844 3.764168,1.537781 0,1.270105 -1.035288,1.294653 -2.97104,0.07044 z M 105.25,18.706101 c -3.82756,-0.737219 -2.47654,-1.868723 1.75,-1.465657 2.2,0.209803 4,0.784195 4,1.276425 0,0.910734 -1.7116,0.967063 -5.75,0.189232 z"
     style="fill:#000000" />
</svg>
