<?xml version="1.0" encoding="UTF-8" standalone="no"?>
<!-- Created with Inkscape (http://www.inkscape.org/) -->

<svg
   xmlns:dc="http://purl.org/dc/elements/1.1/"
   xmlns:cc="http://creativecommons.org/ns#"
   xmlns:rdf="http://www.w3.org/1999/02/22-rdf-syntax-ns#"
   xmlns:svg="http://www.w3.org/2000/svg"
   xmlns="http://www.w3.org/2000/svg"
   xmlns:sodipodi="http://sodipodi.sourceforge.net/DTD/sodipodi-0.dtd"
   xmlns:inkscape="http://www.inkscape.org/namespaces/inkscape"
   width="2019.3939"
   height="2676.2483"
   id="svg2"
   version="1.1"
   inkscape:version="0.47 r22583"
   sodipodi:docname="New document 1">
  <defs
     id="defs4">
    <inkscape:perspective
       sodipodi:type="inkscape:persp3d"
       inkscape:vp_x="0 : 526.18109 : 1"
       inkscape:vp_y="0 : 1000 : 0"
       inkscape:vp_z="744.09448 : 526.18109 : 1"
       inkscape:persp3d-origin="372.04724 : 350.78739 : 1"
       id="perspective10" />
    <inkscape:perspective
       id="perspective2820"
       inkscape:persp3d-origin="0.5 : 0.33333333 : 1"
       inkscape:vp_z="1 : 0.5 : 1"
       inkscape:vp_y="0 : 1000 : 0"
       inkscape:vp_x="0 : 0.5 : 1"
       sodipodi:type="inkscape:persp3d" />
    <inkscape:perspective
       id="perspective2836"
       inkscape:persp3d-origin="0.5 : 0.33333333 : 1"
       inkscape:vp_z="1 : 0.5 : 1"
       inkscape:vp_y="0 : 1000 : 0"
       inkscape:vp_x="0 : 0.5 : 1"
       sodipodi:type="inkscape:persp3d" />
  </defs>
  <sodipodi:namedview
     id="base"
     pagecolor="#ffffff"
     bordercolor="#666666"
     borderopacity="1.0"
     inkscape:pageopacity="0"
     inkscape:pageshadow="2"
     inkscape:zoom="0.19280722"
     inkscape:cx="1009.697"
     inkscape:cy="1338.1241"
     inkscape:document-units="px"
     inkscape:current-layer="layer1"
     showgrid="false"
     inkscape:window-width="1280"
     inkscape:window-height="744"
     inkscape:window-x="-4"
     inkscape:window-y="-4"
     inkscape:window-maximized="1" />
  <metadata
     id="metadata7">
    <rdf:RDF>
      <cc:Work
         rdf:about="">
        <dc:format>image/svg+xml</dc:format>
        <dc:type
           rdf:resource="http://purl.org/dc/dcmitype/StillImage" />
        <dc:title></dc:title>
      </cc:Work>
    </rdf:RDF>
  </metadata>
  <g
     inkscape:label="Layer 1"
     inkscape:groupmode="layer"
     id="layer1"
     transform="translate(561.9961,675.21808)">
    <path
       style="fill:#d9bb7a"
       d="m 471.86957,1997.8067 c -3.575,-1.7613 -6.8652,-3.7864 -7.3115,-4.5002 -0.4463,-0.7139 -1.2054,-1.0545 -1.6868,-0.7569 -0.7664,0.4736 -4.3501,-2.7973 -11.1148,-10.1448 -2.5078,-2.7238 -8.0909,-3.3945 -13.3044,-1.5983 -3.5883,1.2363 -4.3726,1.2086 -6.8266,-0.241 -1.5249,-0.9008 -3.5563,-1.541 -4.5142,-1.4227 -2.4012,0.2966 -5.2417,-1.059 -5.2417,-2.5016 0,-0.6576 -2.2752,-2.0137 -5.0559,-3.0136 -2.8958,-1.0413 -5.7547,-2.8846 -6.6915,-4.3142 -1.4862,-2.2683 -2.0889,-2.4423 -6.6043,-1.9075 -5.103,0.6043 -7.5355,-0.7437 -7.6165,-4.2208 -0.032,-1.3861 -7.9053,-9.1345 -9.2814,-9.1345 -0.4127,0 -0.7504,-0.4915 -0.7504,-1.0923 0,-0.6007 -0.9,-2.2364 -2,-3.6348 -1.1,-1.3985 -2,-2.2923 -2,-1.9863 0,0.306 -1.7274,-1.2059 -3.8387,-3.3597 -2.1113,-2.1539 -4.0978,-3.6571 -4.4144,-3.3405 -0.9686,0.9687 -4.2509,-1.291 -5.6368,-3.8808 -0.7665,-1.432 -2.8573,-2.9125 -5.0347,-3.5649 -3.9474,-1.1826 -11.0528,-6.6309 -11.1087,-8.518 -0.055,-1.8554 -3.4186,-5.314 -5.9492,-6.1172 -1.304,-0.4138 -3.9789,-2.3178 -5.9442,-4.2309 -1.9653,-1.9132 -5.2536,-4.3381 -7.3073,-5.3887 -3.4993,-1.7902 -4.6719,-3.7565 -5.2323,-8.7744 -0.099,-0.8863 -1.1855,-3.7599 -2.4144,-6.3857 l -2.2343,-4.7742 -4.4909,0.3859 c -2.71,0.2329 -5.4661,1.2339 -6.9501,2.5242 -2.8925,2.515 -4.7324,2.7006 -6.4349,0.6493 -1.6232,-1.9558 -0.478,-8.1171 1.6612,-8.938 0.8888,-0.341 1.357,-0.879 1.0405,-1.1955 -0.6087,-0.6087 2.9676,-8.0607 4.2482,-8.8522 0.4136,-0.2555 0.3787,-2.8253 -0.077,-5.7105 -0.6406,-4.0529 -0.4888,-5.7653 0.6676,-7.5303 0.8233,-1.2565 1.9365,-2.2845 2.4739,-2.2845 1.8684,0 0.9605,-5.3523 -1.669,-9.8393 -1.9824,-3.3825 -2.6721,-5.9753 -2.75,-10.3376 -0.057,-3.2025 -0.3805,-5.8228 -0.7182,-5.8229 -0.3378,-10e-5 -1.3977,-2.0519 -2.3554,-4.5596 -0.9577,-2.5076 -3.2667,-6.2201 -5.1311,-8.25 -1.8644,-2.0298 -3.392,-4.0247 -3.3946,-4.433 0,-0.6837 -2.2901,-3.6401 -6.0048,-7.7668 -1.9029,-2.1139 -3.566,-4.6893 -5.483,-8.4908 -3.2566,-6.4581 -5.2744,-9.0594 -8.1443,-10.5 -1.6436,-0.825 -4.5798,-2.7375 -6.5249,-4.25 -4.2414,-3.298 -4.743,-3.3344 -9.256,-0.6716 -6.707,3.9572 -9.9114,-0.2256 -5.5955,-7.3042 2.6365,-4.3244 2.5225,-6.2042 -0.4963,-8.1822 -1.375,-0.901 -2.5,-2.0782 -2.5,-2.6162 0,-2.4071 -14.07151,-13.9119 -19.57479,-16.0042 -1.19745,-0.4553 -3.11505,-2.7727 -4.26133,-5.1497 -1.66061,-3.4436 -1.96546,-5.459 -1.50007,-9.9173 0.5011,-4.8004 0.32669,-5.6943 -1.2274,-6.2906 -1.16169,-0.4458 -2.12075,-0.1425 -2.67364,0.8454 -0.47418,0.8473 -1.88843,1.5406 -3.14277,1.5406 -1.28567,0 -4.20878,1.7903 -6.70031,4.1037 -2.43083,2.257 -3.85719,3.8055 -3.16969,3.441 0.7484,-0.3968 1.25,-0.038 1.25,0.8934 0,1.5909 -5.60517,8.4695 -9.82887,12.0619 -1.29332,1.1 -3.71529,3.2137 -5.38215,4.6971 -3.11478,2.7719 -7.96552,4.4299 -9.74433,3.3305 -0.55229,-0.3413 -3.46905,1.2003 -6.4817,3.4259 -8.97884,6.6331 -11.12677,4.9981 -5.04637,-3.8413 1.93412,-2.8117 3.27808,-5.1122 2.98658,-5.1122 -0.2915,0 0.12617,-1.5704 0.92817,-3.4899 1.92301,-4.6024 7.37329,-11.3133 9.81841,-12.0894 1.4557,-0.462 1.82271,-1.2614 1.45715,-3.1737 -0.34235,-1.7908 0.20702,-3.2518 1.83489,-4.8797 1.93282,-1.9328 3.15452,-2.2653 7.26516,-1.9773 3.93574,0.2758 5.21571,-0.034 6.2881,-1.5219 0.74056,-1.0274 1.92214,-1.8681 2.62572,-1.8681 1.68572,0 1.63288,-0.3474 -0.72076,-4.7388 -1.1,-2.0524 -2.02161,-5.0882 -2.04803,-6.7464 -0.0534,-3.3517 -1.86055,-7.0872 -6.6813,-13.811 -4.32901,-6.0378 -11.24216,-19.7032 -11.25797,-22.2538 -0.007,-1.1275 -0.38684,-2.4775 -0.84412,-3 -0.45728,-0.5225 -1.40167,-2.975 -2.09864,-5.45 -0.69697,-2.475 -1.94022,-5.2573 -2.76279,-6.1828 -1.01838,-1.1459 -1.2824,-2.6534 -0.82747,-4.7247 0.79313,-3.6111 -1.21672,-9.8472 -3.42909,-10.6398 -1.79692,-0.6436 -10.05099,-10.8225 -10.05099,-12.3944 0,-0.582 -0.675,-1.0583 -1.5,-1.0583 -0.825,0 -1.5,-0.6405 -1.5,-1.4233 0,-0.7828 -1.12239,-2.7571 -2.49421,-4.3874 -1.6798,-1.9964 -3.27564,-6.2708 -4.88745,-13.091 -1.31628,-5.5697 -3.00639,-10.9774 -3.75579,-12.0171 -4.60203,-6.3851 -9.5304,-12.002 -10.56286,-12.0386 -0.66017,-0.023 -1.56017,-0.639 -2,-1.368 -0.43983,-0.729 -1.59394,-1.6175 -2.5647,-1.9744 -0.97075,-0.3569 -2.2344,-1.8835 -2.8081,-3.3925 -0.5737,-1.5089 -2.70444,-4.7263 -4.73499,-7.1497 -5.05516,-6.0332 -8.80239,-11.1048 -10.75825,-14.5605 -3.1981,-5.6506 -7.1863,-8.0478 -13.47216,-8.0978 -6.31605,-0.05 -8.96149,-1.5307 -8.96149,-5.0152 0,-1.2488 -0.675,-2.5295 -1.5,-2.8461 -2.81562,-1.0805 -1.62856,-5.0958 2.78785,-9.4302 2.35832,-2.3145 4.64294,-4.2082 5.07692,-4.2082 0.43399,0 2.05622,-1.2671 3.60495,-2.8159 2.13685,-2.1368 2.5886,-3.222 1.87339,-4.5 -0.63587,-1.1362 -0.57907,-1.6841 0.17459,-1.6841 1.29444,0 0.33121,-3.7976 -1.39963,-5.5181 -2.52248,-2.5075 -4.97646,-3.2757 -7.21114,-2.2575 -2.45705,1.1195 -10.42324,-1.3342 -12.51518,-3.8548 -1.56152,-1.8815 -2.19262,-1.7469 -5.29725,1.1304 -2.79987,2.5948 -4.5945,3.196 -4.5945,1.539 0,-2.3265 -4.14049,-4.7222 -7.77178,-4.4969 -2.05052,0.1272 -4.05883,-0.2802 -4.46291,-0.9054 -1.16018,-1.795 -0.88614,-5.2915 0.50522,-6.4463 0.6988,-0.5799 1.19369,-2.6882 1.09977,-4.6851 -0.14374,-3.0561 0.23637,-3.7855 2.40192,-4.6088 1.41497,-0.538 3.14446,-0.7587 3.8433,-0.4905 0.75395,0.2893 2.00538,-1.11 3.07755,-3.4412 0.99381,-2.1608 2.59443,-4.1922 3.55693,-4.5142 3.66927,-1.2274 1.0641,-7.5736 -3.83651,-9.3457 -3.4458,-1.246 -7.41349,-0.7446 -7.41349,0.9368 0,0.9235 -5.68042,4.3029 -7.5,4.4618 -0.55,0.048 -0.91864,0.536 -0.8192,1.0844 0.0994,0.5483 -0.66546,1.0607 -1.69977,1.1386 -1.03432,0.078 -5.51184,1.9402 -9.95003,4.1385 -9.99864,4.9525 -13.40267,5.5386 -13.85055,2.385 -0.17575,-1.2375 0.16175,-2.25 0.75,-2.25 0.58825,0 1.06955,-0.5224 1.06955,-1.1608 0,-0.6384 1.4625,-2.4565 3.25,-4.0402 1.7875,-1.5836 6.85624,-6.4078 11.26387,-10.7204 4.40763,-4.3125 8.89181,-8.0101 9.96484,-8.2167 1.07302,-0.2067 2.90379,-1.7897 4.06838,-3.5178 2.67044,-3.9627 3.35582,-14.677 1.10044,-17.2031 -0.80585,-0.9025 -1.61871,-2.766 -1.80635,-4.141 -0.28331,-2.0759 -0.80767,-2.4455 -3.09118,-2.1784 -3.10046,0.3625 -3.74364,-1.6851 -1.29762,-4.1311 0.79881,-0.7988 1.13631,-1.7685 0.75,-2.1548 -0.38631,-0.3863 -0.74124,-1.0024 -0.78875,-1.369 -0.47374,-3.6569 -6.5301,-7.1667 -12.36648,-7.1667 -4.16797,0 -5.20122,-3.6106 -1.85656,-6.4875 2.69452,-2.3177 2.76099,-3.6017 0.90667,-17.5125 -1.58154,-11.8645 -1.87073,-13.2816 -3.49816,-17.1416 -0.91428,-2.1685 -1.33575,-5.2005 -1.04192,-7.4954 0.32522,-2.5402 -0.0889,-4.9352 -1.21488,-7.026 -1.46819,-2.7262 -1.53551,-3.7488 -0.47899,-7.2751 0.67611,-2.2567 0.87833,-4.6563 0.44937,-5.3325 -0.42896,-0.6762 -1.11142,-3.9294 -1.51658,-7.2294 -1.6808,-13.69 -2.69663,-18.3239 -5.3709,-24.5 -1.77635,-4.1024 -2.85146,-8.3966 -2.9147,-11.6417 -0.0854,-4.3807 -0.69981,-5.9349 -4.1511,-10.5 -2.22798,-2.9471 -4.76395,-6.4262 -5.63549,-7.7314 -0.87153,-1.3051 -2.60018,-2.8801 -3.84145,-3.5 -1.24126,-0.6198 -2.62139,-2.5351 -3.06695,-4.2562 -1.06008,-4.0947 -7.22953,-8.8258 -11.74714,-9.0084 -3.0837,-0.1245 -6.06837,-2.329 -6.06837,-4.482 0,-1.7158 3.35382,-3.8803 6.01241,-3.8803 1.57826,0 3.14767,-0.45 3.48759,-1 0.33992,-0.55 1.95261,-1 3.58377,-1 2.21742,0 3.19796,0.6108 3.88609,2.4207 0.7196,1.8927 1.42315,2.2931 3.22525,1.8357 3.97724,-1.0096 6.65537,-3.2992 7.30179,-6.2423 0.36828,-1.6768 2.02876,-3.7957 4.05647,-5.1765 3.79932,-2.5871 4.65801,-6.7691 1.94663,-9.4805 -0.825,-0.825 -1.52161,-3.1553 -1.54803,-5.1785 -0.0264,-2.0232 -0.82116,-5.2536 -1.76609,-7.1786 -1.62023,-3.3007 -2.00183,-3.5003 -6.70197,-3.5049 -3.12339,0 -5.90691,-0.6563 -7.45642,-1.75 -1.35987,-0.9598 -3.46523,-1.7451 -4.67857,-1.7451 -1.21333,0 -2.85963,-0.6536 -3.65844,-1.4524 -0.79881,-0.7988 -1.71691,-1.1878 -2.04022,-0.8645 -0.32332,0.3233 -1.83939,-0.2427 -3.36905,-1.2577 -1.52967,-1.015 -3.60149,-1.9782 -4.60405,-2.1403 -1.00256,-0.1621 -4.22258,-1.4698 -7.1556,-2.906 -6.29248,-3.0811 -7.95955,-6.7668 -3.89777,-8.6175 2.47204,-1.1263 3.00234,-2.2566 1.49561,-3.1878 -2.5819,-1.5957 -1.43141,-9.5738 1.3806,-9.5738 0.5604,0 1.58097,-0.9 2.26793,-2 0.68696,-1.1 1.83049,-2 2.54118,-2 3.31852,0 6.67548,-2.5634 6.68309,-5.1033 0.004,-1.4318 0.26535,-5.2568 0.58012,-8.5 0.51167,-5.2718 0.31389,-6.1881 -1.86635,-8.6467 -1.34127,-1.5125 -3.34371,-2.75 -4.44987,-2.75 -2.07865,0 -3.96179,-1.7491 -3.7683,-3.5 0.37174,-3.3638 2.06191,-5.2639 6.48896,-7.2948 5.41056,-2.4822 6.96129,-4.4898 7.62954,-9.8775 0.33693,-2.7166 -0.0648,-3.8905 -1.83754,-5.3689 -1.24782,-1.0408 -3.06591,-1.9072 -4.0402,-1.9255 -0.97429,-0.018 -2.27795,-1.145 -2.89702,-2.5037 -1.41638,-3.1086 -0.57592,-4.1995 6.68212,-8.6732 2.995,-1.846 5.45465,-4.0438 5.46589,-4.8839 0.0113,-0.8401 0.58719,-2.4151 1.27987,-3.5 1.54159,-2.4144 1.48052,-4.136 -0.2758,-7.7752 -1.16513,-2.4141 -1.13225,-3.1765 0.2372,-5.5 1.25332,-2.1264 1.60639,-5.9023 1.66804,-17.8389 0.043,-8.3278 0.53561,-16.3446 1.09467,-17.8151 2.40104,-6.3152 -0.65786,-15.8122 -6.8834,-21.3711 -3.66121,-3.2691 -9.58356,-11.4418 -11.71917,-16.1722 -0.86907,-1.925 -2.22909,-4.2312 -3.02227,-5.1248 -0.79317,-0.8937 -1.36315,-2.0187 -1.26663,-2.5 0.59172,-2.9507 -1.56221,-7.3273 -4.12942,-8.3907 -3.43775,-1.4239 -4.58234,-6.3285 -3.03942,-13.024 1.3278,-5.762 1.35427,-14.1004 0.0556,-17.5162 -0.88782,-2.3351 -1.42086,-2.6059 -4.08187,-2.0737 -3.70977,0.742 -6.89697,-0.7771 -6.89697,-3.2871 0,-1.8303 5.88335,-7.0835 7.93328,-7.0835 0.5867,0 1.06672,-0.8734 1.06672,-1.941 0,-1.0675 0.45,-2.2191 1,-2.559 0.55,-0.3399 1,-0.9758 1,-1.413 0,-1.6536 -4.9857,-6.087 -6.84526,-6.087 -1.922,0 -3.15474,-1.8059 -3.15474,-4.6215 0,-0.8018 2.90379,-3.3091 6.45287,-5.5718 7.99823,-5.0991 9.35274,-8.059 10.41504,-22.7593 0.55733,-7.7126 1.37545,-11.9187 2.95157,-15.1745 1.29779,-2.6809 2.18052,-6.4177 2.18052,-9.2308 0,-2.5995 0.69464,-8.0894 1.54364,-12.1997 0.849,-4.1102 1.70785,-12.9788 1.90856,-19.7078 0.2007,-6.729 1.14857,-16.5096 2.10637,-21.7346 2.23736,-12.2052 2.16163,-17.7538 -0.50193,-36.7746 -0.6373,-4.551 -1.1118,-11.076 -1.05445,-14.5 0.0573,-3.424 -0.0869,-12.3004 -0.32059,-19.7254 -0.23367,-7.425 -0.0118,-16.65 0.49306,-20.5 2.36482,-18.0342 3.87657,-28.3707 4.75323,-32.5 2.82394,-13.3013 3.75633,-19.9425 3.354,-23.8898 -0.28232,-2.7699 -0.006,-4.6625 0.7479,-5.1286 2.44415,-1.5106 6.9818,-17.2207 11.40373,-39.4816 0.76476,-3.85 1.65858,-8.35 1.98625,-10 0.32767,-1.65 0.86917,-4.35 1.20333,-6 0.33417,-1.65 0.64924,-4.2375 0.70017,-5.75 0.0509,-1.5125 0.38766,-2.75 0.7483,-2.75 0.36064,0 0.66742,-1.6875 0.68173,-3.75 0.0143,-2.0625 0.74414,-5.775 1.62181,-8.25 0.87768,-2.475 1.60484,-6.075 1.61591,-8 0.0111,-1.925 0.54877,-5.3 1.19488,-7.5 0.64611,-2.2 1.09341,-4.4774 0.994,-5.061 -0.0994,-0.5835 0.60693,-1.9335 1.56967,-3 0.96274,-1.0664 1.90656,-2.839 2.09739,-3.939 0.19082,-1.1 0.98995,-2.675 1.77583,-3.5 2.78261,-2.9211 8.37721,-10.8951 8.37721,-11.94 0,-0.583 0.40986,-1.06 0.91079,-1.06 0.50094,0 1.86229,-1.9655 3.02524,-4.3678 1.16294,-2.4024 3.00308,-5.1721 4.0892,-6.155 1.08612,-0.983 1.97477,-2.2375 1.97477,-2.7878 0,-0.5503 1.02911,-2.3931 2.28692,-4.095 3.31403,-4.4842 8.71308,-15.0853 8.71308,-17.1083 0,-0.9536 1.6875,-4.2678 3.75,-7.3647 2.0625,-3.097 4.63343,-7.6537 5.71319,-10.1261 1.07975,-2.4724 4.56725,-8.9247 7.75,-14.3383 3.18274,-5.4137 5.78681,-10.374 5.78681,-11.0228 0,-0.6489 1.62388,-3.6445 3.60863,-6.657 1.98475,-3.0125 4.4487,-8.1772 5.47544,-11.4772 1.02675,-3.3 3.73935,-9.15 6.02801,-13 2.28866,-3.85 4.7669,-8.125 5.50719,-9.5 2.64191,-4.907 10.92382,-14.7064 13.38073,-15.8325 3.44878,-1.5808 12,-10.1627 12,-12.0432 0,-1.9474 4.80379,-10.038 7.37488,-12.4208 1.42286,-1.3186 3.95708,-5.3253 5.63161,-8.9037 3.01989,-6.4533 3.03263,-6.552 1.57065,-12.165 -0.81067,-3.1123 -1.81029,-6.203 -2.22138,-6.8682 -1.00306,-1.623 -0.58135,-6.2679 1.07566,-11.8476 1.38945,-4.6788 0.67652,-9.9708 -2.27932,-16.919 -0.58494,-1.375 -1.54304,-4.975 -2.12912,-8 -0.88907,-4.5889 -1.64184,-5.8941 -4.54428,-7.8789 -1.91329,-1.3084 -3.4787,-2.7975 -3.4787,-3.309 0,-0.5116 -0.45,-0.652 -1,-0.3121 -0.55,0.3399 -1,0.1588 -1,-0.4024 0,-0.5613 -1.87182,-1.5245 -4.1596,-2.1406 -4.95045,-1.333 -9.0379,-3.8284 -8.27988,-5.0549 0.29885,-0.4836 -0.10669,-0.6297 -0.90119,-0.3249 -1.63252,0.6265 -10.21132,-3.5795 -13.44414,-6.5914 -1.17236,-1.0922 -2.60038,-1.9858 -3.17338,-1.9858 -0.57299,0 -1.04181,-0.3477 -1.04181,-0.7726 0,-0.4249 -1.575,-1.6208 -3.5,-2.6575 -1.925,-1.0366 -3.5,-2.2282 -3.5,-2.6478 0,-0.4196 -2.87117,-1.0704 -6.38037,-1.4462 -6.46466,-0.6923 -11.50136,0.6507 -15.68915,4.1834 -0.86324,0.7282 -3.98196,1.7815 -6.93048,2.3407 -2.94852,0.5592 -6.10267,1.6879 -7.00922,2.5083 -0.90654,0.8205 -2.24843,1.4917 -2.98197,1.4917 -2.94259,0 -10.88732,6.3063 -14.43606,11.4589 -4.2564,6.1801 -5.39577,6.7297 -14.5334,7.0106 -5.11715,0.1574 -7.62677,0.822 -11.53935,3.0562 -2.75,1.5703 -6.8,3.8854 -9,5.1446 -4.55459,2.607 -15.82273,8.1598 -22.52241,11.0987 -4.17199,1.8301 -5.78627,3.3634 -13.89467,13.1968 -2.47506,3.0017 -3.07381,3.2866 -4.47038,2.1276 -0.8869,-0.7361 -1.61254,-2.3468 -1.61254,-3.5795 0,-3.2396 -4.66575,-7.5139 -8.20211,-7.5139 -3.69866,0 -6.21008,1.3455 -10.47863,5.6141 -1.86226,1.8622 -3.85933,3.3859 -4.43793,3.3859 -0.5786,0 -2.42709,-1.5532 -4.10775,-3.4515 -5.39863,-6.0979 -10.59034,-5.5511 -17.71975,1.8662 -3.95152,4.1111 -5.9568,4.455 -8.64648,1.4829 -4.54685,-5.0242 -8.72772,-5.7722 -19.57579,-3.5025 -8.1066,1.6961 -11.65901,3.686 -14.60612,8.1819 -1.2341,1.8827 -2.68969,3.423 -3.23463,3.423 -0.54495,0 -1.00082,0.7875 -1.01305,1.75 -0.0353,2.7745 -3.42117,6.5038 -5.53532,6.0967 -1.3679,-0.2634 -2.10079,-1.6048 -2.65289,-4.8553 -1.90753,-11.2308 -4.65722,-13.1245 -17.82277,-12.2744 -6.47808,0.4183 -9.97027,0.1292 -14.5,-1.2 -3.29124,-0.9659 -10.59503,-1.9278 -16.28834,-2.1453 -7.06532,-0.27 -11.32429,-0.9215 -13.5,-2.0653 -1.74814,-0.919 -3.85344,-1.7359 -4.67844,-1.8153 -3.66521,-0.3525 -8.85653,-2.7409 -10.78926,-4.9637 -1.15828,-1.3322 -3.92953,-2.9131 -6.15835,-3.5133 -2.22881,-0.6001 -4.05239,-1.572 -4.05239,-2.1596 0,-0.5877 -0.66059,-0.815 -1.46797,-0.5052 -0.80739,0.3099 -1.75291,0.1023 -2.10116,-0.4611 -0.34824,-0.5635 -1.20977,-0.8033 -1.91451,-0.5329 -0.70473,0.2705 -3.24509,-0.1848 -5.64525,-1.0117 -2.40015,-0.827 -7.24835,-1.7144 -10.77377,-1.972 -6.69669,-0.4894 -10.09732,-1.6815 -10.09732,-3.5395 0,-1.5533 -3.99863,-4.8888 -7.25,-6.0476 -1.5125,-0.5391 -2.75,-1.3861 -2.75,-1.8823 0,-0.4962 -0.42423,-0.9022 -0.94274,-0.9022 -0.5185,0 -5.131,-1.9762 -10.25,-4.3916 -5.11899,-2.4154 -12.45726,-5.8293 -16.30726,-7.5866 -3.85,-1.7573 -8.43248,-4.2811 -10.18328,-5.6084 -1.7508,-1.3274 -3.7758,-2.4188 -4.5,-2.4254 -0.7242,-0.01 -3.27515,-1.1317 -5.66879,-2.5 -2.39364,-1.3684 -4.98114,-2.488 -5.75,-2.488 -0.76886,0 -1.39793,-0.7016 -1.39793,-1.559 0,-0.8575 -0.35742,-1.3381 -0.79426,-1.0682 -0.43684,0.27 -2.68199,-0.3542 -4.98922,-1.3872 -2.82708,-1.2657 -4.016,-2.3446 -3.6461,-3.3085 0.35955,-0.937 -0.33401,-1.6519 -2.01078,-2.0728 -1.4078,-0.3533 -2.55964,-1.0838 -2.55964,-1.6234 0,-0.5395 -0.65761,-0.9809 -1.46137,-0.9809 -0.80375,0 -5.09613,-2.475 -9.53863,-5.5 -4.4425,-3.025 -8.44103,-5.5 -8.88562,-5.5 -0.4446,0 -1.84607,-0.9 -3.11438,-2 -1.26831,-1.1 -3.07437,-2 -4.01346,-2 -0.9391,0 -3.44561,-1.1795 -5.57003,-2.6212 -2.12442,-1.4417 -4.33236,-2.6902 -4.90655,-2.7745 -1.27412,-0.187 -8.81131,-4.717 -9.51942,-5.7213 -0.28021,-0.3975 -1.16949,-0.8712 -1.97619,-1.0528 -0.8067,-0.1816 -2.07141,-0.892 -2.81047,-1.5787 -0.73905,-0.6867 -2.54977,-1.5281 -4.02381,-1.8699 -1.47404,-0.3418 -3.13007,-1.1658 -3.68007,-1.8312 -0.55,-0.6653 -3.25,-2.0454 -6,-3.0669 -2.75,-1.0215 -6.03363,-2.642 -7.29696,-3.6012 -1.26333,-0.9592 -3.73833,-2.0367 -5.5,-2.3944 -1.76167,-0.3577 -6.35304,-1.7218 -10.20304,-3.0314 -6.6932,-2.2765 -14.58784,-3.7561 -19.11524,-3.5824 -1.16339,0.045 -2.96339,-0.8604 -4,-2.0112 -1.03662,-1.1508 -2.89726,-2.4796 -4.13476,-2.9529 -2.78832,-1.0664 -2.89899,-2.507 -0.24587,-3.2008 1.33695,-0.3496 1.80068,-1.0543 1.39301,-2.1167 -0.34594,-0.9015 -0.0998,-1.5925 0.5673,-1.5925 3.81488,0 -13.13084,-11.1178 -17.96444,-11.7861 -6.44381,-0.891 -10.78806,-0.6347 -12.43711,0.7339 -0.89949,0.7465 -3.98161,1.527 -6.84916,1.7345 -2.86755,0.2074 -6.33873,0.8116 -7.71373,1.3427 -4.02231,1.5535 -26.54518,5.975 -30.43637,5.975 -1.96,0 -3.56363,-0.4611 -3.56363,-1.0248 0,-1.3276 4.10743,-2.8739 11,-4.1409 5.68128,-1.0443 6.88378,-1.4241 13.28393,-4.1957 2.08116,-0.9012 4.83229,-1.6386 6.11363,-1.6386 2.17587,0 7.46546,-4.208 7.71355,-6.1364 0.46966,-3.6505 -0.17575,-5.0825 -3.906,-8.6665 -2.33164,-2.2403 -5.13164,-4.3564 -6.22223,-4.7025 -1.09058,-0.3462 -1.98288,-0.9973 -1.98288,-1.447 0,-1.5228 -5.18927,-4.2286 -8.63386,-4.5019 -1.88409,-0.1495 -3.26333,-0.1096 -3.06498,0.089 0.57081,0.5708 -7.85884,9.0584 -10.2874,10.3581 -1.20653,0.6458 -4.19871,1.1741 -6.64928,1.1741 -3.80035,0 -4.8833,-0.4899 -7.364,-3.3312 -1.59963,-1.8321 -3.11295,-4.9071 -3.36293,-6.8333 -0.97839,-7.539 -0.56266,-17.2463 0.85608,-19.9899 2.56769,-4.9653 3.00778,-10.8008 0.98327,-13.0378 -0.98278,-1.086 -2.39213,-1.9745 -3.13189,-1.9745 -0.73975,0 -1.34501,-0.3401 -1.34501,-0.7559 0,-0.7684 -3.67198,-2.532 -7.75,-3.7222 -1.2375,-0.3612 -2.25,-1.1008 -2.25,-1.6435 0,-0.5428 -1.3404,-2.4211 -2.97867,-4.174 -3.23705,-3.4637 -5.67175,-8.3873 -4.6518,-9.4073 0.3513,-0.3513 2.95525,-0.104 5.78656,0.5496 4.35961,1.0063 5.40457,0.9559 6.82461,-0.3292 0.92223,-0.8346 2.26847,-1.5175 2.99164,-1.5175 1.02013,0 1.17254,-1.5313 0.67992,-6.8317 -0.34922,-3.7574 -0.90536,-8.1838 -1.23586,-9.8363 -0.4061,-2.0305 -0.10015,-3.5054 0.94372,-4.5493 0.84955,-0.8495 1.33416,-1.7551 1.07691,-2.0123 -1.01224,-1.0123 6.35952,-14.0441 9.05361,-16.0051 0.55515,-0.4041 0.64122,-0.7416 0.19127,-0.75 -0.44996,-0.01 0.0163,-1.2528 1.03603,-2.7653 1.01977,-1.5125 2.50897,-4.0483 3.30933,-5.635 0.80036,-1.5868 2.58414,-3.6059 3.96396,-4.487 1.37983,-0.8812 3.10341,-2.1704 3.8302,-2.865 0.72678,-0.6947 1.80218,-1.263 2.38976,-1.263 0.58758,0 1.56793,-0.6054 2.17857,-1.3453 3.4413,-4.17 33.37812,-12.8511 34.34229,-9.9586 0.16473,0.4943 1.75492,0.7324 3.53374,0.5292 6.14277,-0.7017 12.22572,8.6959 10.38247,16.04 -0.84627,3.3718 -7.33123,9.7311 -9.9464,9.7537 -3.60337,0.031 -11.22541,5.4572 -13.0414,9.2841 -2.29652,4.8396 -2.07939,7.7069 0.84076,11.1024 1.37433,1.5981 2.49878,3.2553 2.49878,3.6827 0,0.4273 0.82795,1.0398 1.83989,1.361 1.01194,0.3212 2.38601,1.589 3.05349,2.8174 0.66749,1.2284 4.17562,4.2584 7.79586,6.7334 3.62025,2.475 8.73413,6.6375 11.3642,9.25 2.63007,2.6125 5.49398,4.75 6.36425,4.75 0.87027,0 1.46981,0.4835 1.33231,1.0744 -0.19621,0.8431 11.07471,5.8629 13.25,5.9012 1.16448,0.021 2.91468,-5.3738 2.07389,-6.3919 -0.4922,-0.596 -1.20986,-2.769 -1.5948,-4.8289 -0.83262,-4.4556 -5.70182,-12.121 -10.22909,-16.1032 -1.7875,-1.5723 -3.25,-3.4735 -3.25,-4.2248 0,-0.7513 -0.9002,-2.9687 -2.00045,-4.9276 -1.74284,-3.103 -1.80243,-3.6376 -0.46275,-4.1517 1.96492,-0.754 4.23075,1.33 10.17735,9.3608 12.1047,16.3471 27.79616,30.2917 34.08636,30.2917 1.1448,0 2.35957,0.45 2.69949,1 0.33992,0.55 1.62648,1 2.85902,1 1.23254,0 2.78098,0.54 3.44098,1.2 0.93333,0.9333 1.20676,0.8778 1.23041,-0.25 0.0231,-1.1032 0.26865,-1.0414 1.02645,0.2585 1.0552,1.8099 3.38981,1.4444 5.76457,-0.9025 1.97695,-1.9538 3.51589,-1.6141 7.6807,1.6957 2.07743,1.6509 5.51965,3.5238 7.64938,4.1618 4.55794,1.3656 5.0407,1.9136 6.90362,7.8365 1.88092,5.9801 3.76144,8 7.44787,8 2.48006,0 3.27269,-0.5674 4.1909,-3 0.6228,-1.65 1.83609,-3 2.69618,-3 3.08584,0 4.71662,4.7613 4.79513,14 0.0138,1.6235 6.76475,6.3038 10.81479,7.4977 3.56888,1.0521 11.82144,5.0399 16.5,7.9732 8.8486,5.5477 9.81101,5.6104 19.2201,1.2516 1.96796,-0.9117 2.883,-0.3296 8.05684,5.1245 3.21021,3.3842 6.13992,6.153 6.51048,6.153 0.37056,0 3.26592,1.6582 6.43413,3.6849 3.16821,2.0267 6.43944,3.763 7.26941,3.8585 0.82997,0.095 2.85904,0.6994 4.50904,1.3419 1.65,0.6426 4.125,1.5999 5.5,2.1274 1.375,0.5275 3.625,0.8027 5,0.6114 4.08562,-0.5682 8,-1.794 8,-2.5051 0,-1.55 6.98721,-4.339 9.37121,-3.7407 2.46005,0.6175 3.29385,2.0443 4.2383,7.2526 1.61357,8.8983 10.39476,18.5001 20.35659,22.2588 11.22912,4.237 18.62541,3.8363 24.8093,-1.344 3.12713,-2.6196 10.41866,-6.1001 14.75929,-7.0451 3.53132,-0.7689 10.46531,-3.6055 10.46531,-4.2813 0,-0.2623 -1.575,-2.2202 -3.5,-4.351 -3.72897,-4.1275 -4.04991,-5.2917 -2.54787,-9.2424 1.40544,-3.6966 3.91833,-4.6742 8.46906,-3.2947 4.29063,1.3006 6.96849,3.6585 13.54832,11.9295 2.45823,3.0901 5.60639,6.1363 6.99591,6.7694 3.27933,1.4942 33.48457,3.2641 42.53458,2.4924 3.85,-0.3283 13.3,-0.79 21,-1.0261 11.52177,-0.3532 15.85867,-0.9462 24.5,-3.3497 5.775,-1.6062 12.65649,-3.2268 15.2922,-3.6012 3.18583,-0.4525 5.89818,-1.6518 8.09162,-3.5776 4.84708,-4.2558 7.74379,-5.0816 13.79815,-3.9334 5.68011,1.0772 7.97244,0.6505 11.83081,-2.2021 1.43332,-1.0597 3.63298,-1.7181 5.01934,-1.5024 2.42117,0.3767 11.92341,-5.1616 14.79745,-8.6246 0.68696,-0.8278 3.81883,-2.5237 6.95972,-3.7687 3.14089,-1.245 6.21533,-2.6472 6.8321,-3.1159 0.61676,-0.4687 3.46445,-1.548 6.3282,-2.3985 2.86375,-0.8504 6.55936,-2.7558 8.21246,-4.2343 2.28916,-2.0472 4.47554,-2.8449 9.1718,-3.3461 3.39138,-0.3619 7.06615,-0.8713 8.16615,-1.1321 4.60835,-1.0922 10.52933,-1.7787 19,-2.2029 12.22119,-0.6121 19.76733,-1.5682 21.1646,-2.6819 1.40711,-1.1214 14.84411,-2.1746 29.8354,-2.3385 6.05,-0.066 13.475,-0.4236 16.5,-0.7944 3.025,-0.3707 7.87103,-0.8882 10.76896,-1.1499 2.89793,-0.2617 7.22545,-1.14 9.61672,-1.9519 3.45893,-1.1743 5.65273,-1.2671 10.73104,-0.454 7.68407,1.2303 11.26912,1.186 11.71661,-0.1449 0.18334,-0.5453 1.27084,-0.9914 2.41667,-0.9914 1.14583,0 1.82833,-0.255 1.51667,-0.5667 -0.31167,-0.3116 1.01735,-2.1507 2.95337,-4.0867 3.62199,-3.622 3.81343,-4.8991 1.92558,-12.8466 -1.14205,-4.8078 -7.02022,-19.0998 -8.27118,-20.1102 -0.75594,-0.6107 -1.37444,-1.6854 -1.37444,-2.3882 0,-0.7029 -1.82815,-3.3533 -4.06256,-5.8898 -2.23441,-2.5365 -4.37545,-5.0618 -4.75786,-5.6118 -3.06381,-4.4065 -4.17958,-6.7666 -4.17958,-8.8407 0,-2.3076 -1.77081,-4.1519 -11.61122,-12.0929 -1.71117,-1.3808 -3.29905,-2.3228 -3.52862,-2.0932 -0.22958,0.2296 -1.30453,-0.9106 -2.38879,-2.5337 -1.08425,-1.6231 -2.64637,-3.1763 -3.47137,-3.4516 -0.825,-0.2752 -5.01388,-3.8726 -9.30862,-7.9942 -4.29473,-4.1215 -8.20967,-7.4937 -8.69986,-7.4937 -0.49019,0 -2.9585,-1.3952 -5.48513,-3.1004 -5.78367,-3.9033 -13.93223,-5.8365 -21.86921,-5.1882 -10.4194,0.851 -14.28679,2.6885 -22.82239,10.8433 -4.28608,4.0949 -8.62735,7.4453 -9.64728,7.4453 -1.01992,0 -4.4703,-0.9 -7.66751,-2 -6.38802,-2.1978 -13.17666,-2.5403 -19.73565,-0.9958 -2.34539,0.5523 -7.92729,1.8925 -12.40422,2.9783 -4.47693,1.0858 -10.67708,2.2723 -13.77812,2.6368 -3.10103,0.3645 -5.87715,1.0492 -6.16914,1.5217 -0.992,1.6051 -6.76706,0.8749 -8.89558,-1.1248 -2.25912,-2.1223 -7.89946,-2.6948 -20.53022,-2.0837 -6.34278,0.3068 -8.50568,-0.075 -31.85253,-5.6267 -12.17449,-2.8948 -14.71423,-2.556 -16.71386,2.2298 -0.79613,1.9054 -1.89148,3.4644 -2.4341,3.4644 -1.58709,0 -1.13445,-4.1791 0.66841,-6.1713 1.5423,-1.7042 1.53801,-1.8287 -0.063,-1.8287 -1.8619,0 -11.79916,-4.5819 -20.59198,-9.4947 -3.025,-1.6901 -7.33666,-3.6155 -9.58146,-4.2788 -2.2448,-0.6632 -10.3448,-4.9509 -18,-9.5282 -7.6552,-4.5773 -15.94354,-9.4195 -18.41854,-10.7603 -2.475,-1.3409 -5.09464,-3.0005 -5.82143,-3.688 -0.72678,-0.6875 -1.95273,-1.25 -2.72432,-1.25 -1.42792,0 -4.77157,-5.3493 -3.89288,-6.228 0.91224,-0.9123 -6.06463,-10.2062 -8.06137,-10.7387 -2.99786,-0.7994 -6.80216,-3.6136 -12.60046,-9.3212 -2.86744,-2.8225 -6.45602,-5.825 -7.97464,-6.672 -1.51861,-0.8471 -5.38155,-3.9408 -8.58432,-6.875 -6.11312,-5.6006 -12.58472,-9.1651 -16.63969,-9.1651 -2.80156,0 -8.12136,-4.5106 -7.15806,-6.0693 1.504,-2.4335 -0.75711,-7.8035 -5.30801,-12.60618 -6.13831,-6.47793 -7.53274,-6.91804 -12.61517,-3.98161 -4.05663,2.34376 -6.40932,2.42078 -7.85434,0.25715 -1.26854,-1.8994 -0.84533,-3.41068 1.73469,-6.19456 1.375,-1.48365 2.5,-3.66551 2.5,-4.84857 0,-2.42103 -6.36047,-8.99797 -9.65762,-9.98631 -1.18669,-0.35571 -2.41007,-1.30462 -2.71861,-2.10869 -0.34037,-0.88716 -1.90172,-1.46213 -3.96995,-1.46213 -4.62217,0 -6.10248,-1.90661 -4.25106,-5.47524 1.29986,-2.50547 1.21071,-3.14588 -1.02268,-7.34631 -1.34568,-2.53087 -2.79636,-4.84387 -3.22374,-5.14001 -0.42738,-0.29614 -2.93075,-3.58133 -5.56303,-7.30043 -4.15718,-5.87356 -12.11137,-13.73801 -13.89479,-13.73801 -0.32752,0 -1.85617,-1.16875 -3.39701,-2.59721 -4.47471,-4.14838 -11.23478,-8.40279 -13.35165,-8.40279 -1.07243,0 -1.94987,-0.45 -1.94987,-1 0,-0.55 -1.0125,-1.00655 -2.25,-1.01455 -2.19629,-0.0142 -10.09997,-2.45737 -12.19778,-3.77055 -0.57872,-0.36226 -1.51435,-0.72927 -2.07919,-0.81556 -2.57397,-0.39326 -14.28528,-9.92042 -13.3475,-10.85821 0.24146,-0.24145 2.29544,0.0322 4.56441,0.60814 3.64881,0.92616 4.4743,0.78918 7.14554,-1.18576 1.67765,-1.24033 3.71901,-1.96471 4.59233,-1.62958 1.23746,0.47485 1.57219,-0.11249 1.57219,-2.75869 0,-2.85201 -1.2818,-4.70545 -8.45014,-12.21861 -4.64758,-4.87115 -9.51363,-10.11068 -10.81343,-11.6434 -2.21282,-2.60933 -2.95948,-2.81389 -11.72695,-3.2128 -11.55475,-0.52572 -14.48082,-2.29444 -8.05157,-4.86691 7.28153,-2.91349 6.63865,-6.2602 -3.20791,-16.69971 -1.5125,-1.60358 -2.75,-3.3887 -2.75,-3.96691 0,-0.57822 -0.44322,-1.59482 -0.98493,-2.25911 -4.59965,-5.64046 -6.01507,-7.62818 -6.01507,-8.44716 0,-0.52286 -0.9,-1.76514 -2,-2.76063 -1.1,-0.99549 -2,-2.25296 -2,-2.79439 0,-0.54143 -1.2918,-3.08386 -2.87067,-5.64984 -1.57887,-2.56599 -3.20143,-5.70759 -3.6057,-6.98133 -0.83468,-2.62985 -6.22447,-10.8173 -8.60688,-13.07444 -5.56695,-5.27422 -10.05166,-15 -6.91675,-15 1.23525,0 1.32853,-5.24675 0.11646,-6.55 -0.48594,-0.5225 -1.87394,-3.875 -3.08443,-7.45 -1.2105,-3.575 -4.1879,-11.28493 -6.61646,-17.13318 -2.42857,-5.84824 -4.41557,-11.64603 -4.41557,-12.88398 0,-2.87912 -2.04796,-10.08601 -3.35311,-11.79981 -0.55162,-0.72434 -1.08584,-5.41619 -1.18715,-10.42634 -0.18594,-9.19491 1.01111,-13.19582 5.25928,-17.57812 0.70454,-0.72678 1.28449,-1.62678 1.28878,-2 0.0139,-1.21002 5.30634,-3.17857 8.54554,-3.17857 3.2151,0 8.29179,3.65791 8.60789,6.20225 0.0887,0.71376 0.20118,8.68496 0.25,17.71377 0.0659,12.17871 0.41142,16.52373 1.33877,16.83333 0.6875,0.22952 1.25,0.93517 1.25,1.56811 0,2.14708 6.49316,14.57928 7.64159,14.63106 0.62788,0.0283 1.41909,1.15713 1.75826,2.50848 0.55902,2.22731 6.20964,5.9692 9.09676,6.02397 2.42255,0.046 11.52863,5.0232 12.01946,6.56965 0.49095,1.54686 8.79471,4.75651 10.76865,4.16241 0.43159,-0.1299 1.75783,-0.38468 2.9472,-0.56619 1.18936,-0.18151 2.33624,-0.85131 2.54861,-1.48843 0.42269,-1.26808 8.0466,-1.57296 9.82994,-0.3931 1.85629,1.22813 4.09264,6.47918 4.78469,11.23469 0.79158,5.43938 8.15635,15.89523 12.46444,17.6959 1.5772,0.65923 3.5715,2.69281 4.44406,4.53158 0.87058,1.83462 2.50841,4.40282 3.63961,5.70711 1.1312,1.30429 2.05673,2.99274 2.05673,3.75212 0,1.81853 5.66094,7.31329 7.53448,7.31329 0.82115,0 1.46552,-0.92143 1.46552,-2.09563 0,-3.22365 3.80184,-7.90437 6.42021,-7.90437 4.17018,0 8.75753,4.18486 12.24605,11.17158 2.39052,4.78768 4.9552,8.03501 9.08245,11.5 3.16321,2.65563 6.01464,5.18501 6.33652,5.62084 1.52914,2.07048 6.47249,2.31107 9.59776,0.46711 l 3.19041,-1.88238 1.60996,2.45711 c 0.9588,1.46332 1.51302,4.10015 1.37028,6.5194 -0.15848,2.68584 0.33396,4.69615 1.45333,5.93305 0.93117,1.02892 1.69303,2.87019 1.69303,4.09169 0,1.22151 0.71162,3.59704 1.58138,5.27896 0.9019,1.74409 1.32338,4.08595 0.98094,5.45034 -0.33023,1.31577 -0.2517,2.3923 0.17452,2.3923 0.42621,0 1.37251,1.35 2.10287,3 0.73036,1.65 1.96521,3 2.74411,3 0.7789,0 1.41618,0.39541 1.41618,0.87868 0,0.48327 1.35,1.43787 3,2.12132 1.65,0.68345 3,1.63805 3,2.12132 0,0.48327 0.675,0.87868 1.5,0.87868 0.825,0 1.5,0.45 1.5,1 0,0.55 0.675,1 1.5,1 0.825,0 1.5,0.45 1.5,1 0,0.55 0.66375,1 1.47501,1 0.81125,0 2.36397,1.95141 3.45049,4.33647 1.08652,2.38506 2.69877,4.93674 3.58277,5.6704 0.88401,0.73365 2.20338,2.71974 2.93195,4.41352 1.33688,3.10801 3.28525,5.41611 7.66657,9.08208 6.74299,5.64206 8.31721,6.49753 11.95664,6.49753 4.14222,0 7.24619,2.26062 6.68869,4.87138 -0.19787,0.92664 2.79061,5.23731 6.93346,10.00097 4.00467,4.60479 7.05716,8.73489 6.7833,9.178 -0.27386,0.44311 0.43604,1.10209 1.57756,1.46439 1.14151,0.3623 2.54451,1.68814 3.11776,2.9463 0.57326,1.25817 3.13333,3.33173 5.68905,4.60792 2.55571,1.27618 5.09675,2.70506 5.64675,3.17528 3.28222,2.8061 16.15632,11.7182 16.95239,11.7353 0.52382,0.0112 2.45352,1.47541 4.28823,3.25368 3.04402,2.95038 3.8525,3.22134 9.24184,3.09745 3.24829,-0.0747 8.95964,-0.90159 12.69187,-1.8376 6.66833,-1.67236 7.78331,-1.64756 19.82567,0.44089 4.17132,0.72342 5.33147,0.57502 7,-0.89538 3.64924,-3.21591 6.42442,-3.21121 8.38591,0.0142 1.9246,3.16475 8.33865,7.94721 10.6585,7.94721 0.80057,0 1.45559,0.45 1.45559,1 0,0.55 0.45813,1 1.01807,1 0.55994,0 3.98926,1.80506 7.62071,4.01125 3.63146,2.20618 7.78583,4.28039 9.23193,4.60934 1.44611,0.32896 5.55429,1.60113 9.12929,2.82704 3.575,1.22591 9.79561,2.83013 13.82357,3.56494 7.82987,1.42836 9.42968,1.15629 18.79802,-3.19692 l 4.12159,-1.91518 4.87841,2.83116 c 5.08647,2.95192 22.26353,10.69717 26.07924,11.75927 1.21046,0.337 3.97392,0.1352 6.14102,-0.4483 4.05989,-1.09323 6.56495,-3.83093 7.72136,-8.43844 0.74337,-2.96181 2.06627,-3.21565 6.10575,-1.17161 7.64307,3.86751 9.41603,4.29347 14.14489,3.39835 2.57738,-0.48787 7.38615,-1.28313 10.68615,-1.76724 6.32479,-0.92785 9.70462,-2.09846 13,-4.50256 1.80085,-1.31378 2.59744,-1.17368 8,1.407 3.3,1.57634 8.475,3.15416 11.5,3.50627 3.025,0.35211 6.2875,0.86974 7.25,1.1503 0.9625,0.28056 1.75,0.0817 1.75,-0.4419 0,-1.09996 10.24967,-1.32217 11,-0.23847 1.48363,2.14279 15.96051,7.5645 19.14429,7.1697 0.90436,-0.1121 5.62936,0.9128 10.5,2.2777 5.08848,1.426 11.40812,2.4667 14.85571,2.4464 7.62276,-0.045 16.5,-1.6675 16.5,-3.016 0,-0.5698 0.69203,-0.7705 1.53785,-0.4459 0.93904,0.3603 1.76326,-0.085 2.11672,-1.1431 2.51637,-7.53417 5.54278,-9.97463 10.74911,-8.66792 4.00851,1.00607 5.82223,4.47715 5.56668,10.65342 -0.12018,2.9048 -0.16268,5.8281 -0.0944,6.4962 0.17088,1.6731 3.46505,3.2923 7.83628,3.852 2.99368,0.3833 4.35805,-0.092 7.4921,-2.6107 2.53641,-2.0384 4.47314,-2.8759 5.72873,-2.4774 4.2197,1.3393 6.55836,-0.3301 7.80307,-5.57 0.7783,-3.27666 0.8634,-5.83183 0.2481,-7.45038 -0.9011,-2.36998 -0.573,-12.01 0.6021,-17.69167 0.3109,-1.50335 0.5602,-2.95752 0.554,-3.2315 -0.01,-0.27399 0.3783,-1.85648 0.8544,-3.51665 0.547,-1.90714 0.5015,-3.0185 -0.1235,-3.0185 -0.5441,0 -0.7111,-0.45 -0.3712,-1 0.3399,-0.55 0.1149,-1 -0.5,-1 -0.6149,0 -0.8399,-0.45 -0.5,-1 0.3399,-0.55 0.1415,-1 -0.441,-1 -0.5824,0 -1.059,-0.94449 -1.059,-2.09887 0,-1.15438 -0.62224,-3.51688 -1.38276,-5.25 -3.56961,-8.13471 -3.78865,-9.49466 -3.11115,-19.31625 0.63228,-9.1659 0.53346,-9.98793 -1.45279,-12.08488 -1.17217,-1.2375 -2.76632,-2.25 -3.54257,-2.25 -0.77624,0 -1.8076,-0.70806 -2.2919,-1.57346 -0.48431,-0.86541 -1.92579,-2.10291 -3.2033,-2.75 -4.68332,-2.37225 -6.83877,-6.94528 -5.73928,-12.17654 0.23119,-1.1 0.0593,-2.675 -0.38204,-3.5 -0.44132,-0.825 -1.2481,-5.775 -1.79284,-11 -0.54475,-5.225 -1.17126,-10.175 -1.39225,-11 -0.73911,-2.75919 -2.82625,-7.45347 -3.54786,-7.97965 -0.3925,-0.28619 -3.13702,-3.33882 -6.09894,-6.78361 -5.86763,-6.8242 -9.39037,-8.488 -14.84666,-7.01214 -4.58078,1.23904 -6.69149,0.31258 -12.1208,-5.32023 -3.87116,-4.01626 -5.349,-4.90162 -8.16102,-4.88919 -4.28915,0.019 -10.61347,1.94171 -14.05935,4.27438 -2.56055,1.73334 -4.44456,2.36891 -10.17497,3.43248 l -2.80048,0.51978 0.67323,-5.07508 c 0.6229,-4.69568 0.45656,-5.29176 -2.22509,-7.9734 -2.96903,-2.96904 -10.93307,-5.25323 -28.84718,-8.27374 -3.85,-0.64916 -7.50987,-1.58305 -8.13304,-2.07532 -1.90182,-1.50232 -13.17943,-0.11347 -17.99058,2.21556 -2.57261,1.24538 -4.89519,1.81309 -5.3819,1.31551 -0.47759,-0.48826 0.0117,-2.75748 1.10654,-5.13151 1.51113,-3.27685 1.71723,-4.71493 0.89568,-6.25 -0.58693,-1.0966 -1.52289,-1.99383 -2.07996,-1.99383 -3.35908,0 -19.78283,-13.08601 -19.13968,-15.25 0.12259,-0.4125 -0.43647,-0.75 -1.24237,-0.75 -0.8059,0 -3.594,-1.35 -6.19578,-3 -2.60178,-1.65 -5.29711,-3 -5.98963,-3 -0.69251,0 -3.41691,-2.01981 -6.05422,-4.48847 -7.28269,-6.81699 -14.60403,-12.51153 -16.08579,-12.51153 -0.73004,0 -1.08085,-0.39884 -0.77957,-0.88631 0.78651,-1.2726 -3.0117,-2.05579 -6.9055,-1.42391 -4.1995,0.68148 -6.38421,-2.266 -4.2971,-5.7974 1.0145,-1.71654 1.01914,-2.24557 0.0229,-2.60637 -0.6875,-0.24897 -1.25,-1.09018 -1.25,-1.86934 0,-0.77917 -0.7875,-1.46858 -1.75,-1.53202 -0.9625,-0.0634 -2.425,-0.18737 -3.25,-0.2754 -0.825,-0.088 -2.21475,0.16577 -3.08833,0.56401 -2.15908,0.98424 -5.64616,-0.039 -6.34573,-1.86203 -0.31483,-0.82042 0.21654,-2.86519 1.18082,-4.54391 1.26218,-2.19735 1.41887,-3.17047 0.55942,-3.47438 -0.65661,-0.23219 -0.97095,-1.00296 -0.69855,-1.71283 0.2724,-0.70987 -1.5074,-3.35127 -3.95511,-5.86979 -2.44772,-2.51851 -4.15837,-4.90578 -3.80146,-5.30504 0.35692,-0.39926 0.10285,-0.41237 -0.56459,-0.0291 -0.68262,0.39196 -2.12516,-0.3035 -3.29733,-1.58968 -1.1461,-1.25756 -3.00537,-3.2425 -4.1317,-4.41098 -2.20532,-2.28784 -3.0157,-3.5953 -6.84296,-11.04043 -1.36704,-2.65928 -4.15584,-7.14626 -6.19733,-9.97106 -2.0415,-2.82481 -3.46669,-5.38113 -3.1671,-5.68072 0.29959,-0.29959 -0.39911,-1.13413 -1.55267,-1.85454 -1.1536,-0.72044 -2.09742,-1.87662 -2.09742,-2.56932 0,-0.6927 -0.7875,-1.32799 -1.75,-1.41176 -3.06884,-0.26711 -3.65688,-0.38936 -8.57605,-1.78297 -5.47231,-1.55031 -8.70466,-5.11786 -6.76002,-7.46101 0.63278,-0.76246 3.16954,-1.68906 5.63725,-2.05911 6.28837,-0.943 7.3859,-3.05128 6.45554,-12.40069 -0.40261,-4.04585 -1.17453,-7.64585 -1.71539,-8 -0.54086,-0.35415 -1.30557,-1.9584 -1.69935,-3.56499 -0.39378,-1.60659 -1.58806,-4.02978 -2.65397,-5.38486 -1.06591,-1.35508 -1.93801,-2.87131 -1.93801,-3.36941 0,-0.4981 -0.85547,-2.12491 -1.90105,-3.61514 -1.04557,-1.49023 -2.67435,-5.99364 -3.6195,-10.00758 -0.94515,-4.01394 -2.33967,-7.9193 -3.09895,-8.67857 -1.63324,-1.63324 -1.81838,-5.68548 -0.32785,-7.17601 0.67315,-0.67315 1.20669,-12.37191 1.47993,-32.45 0.235,-17.26854 0.54881,-33.19735 0.69735,-35.39735 l 0.27007,-4 -7.62022,-4 c -9.1521,-4.80411 -10.87978,-6.16908 -10.87978,-8.59565 0,-1.71417 0.69705,-1.80498 9.44402,-1.23041 l 9.44401,0.62035 0.62534,-2.89714 c 0.34394,-1.59343 1.23147,-4.69715 1.97229,-6.89715 1.26483,-3.75612 3.25776,-20.33453 3.89098,-32.36758 0.24594,-4.67366 -0.0497,-5.67558 -2.28687,-7.75 -1.41313,-1.31033 -3.36143,-2.38242 -4.32955,-2.38242 -0.96812,0 -1.76022,-0.42961 -1.76022,-0.95469 0,-0.52507 -1.4625,-1.18041 -3.25,-1.4563 -4.30304,-0.66414 -18.83313,-3.42031 -25.85513,-4.90439 -3.08282,-0.65154 -6.27488,-1.74376 -7.09346,-2.42714 -0.81858,-0.68339 -4.82127,-2.0837 -8.89487,-3.11179 -4.0736,-1.02809 -9.149,-2.60646 -11.27866,-3.50747 -2.12967,-0.90102 -4.70191,-1.63822 -5.71608,-1.63822 -1.77362,0 -8.88105,-2.90898 -9.9118,-4.05677 -0.275,-0.30623 -1.9797,-1.15545 -3.78822,-1.88715 -3.62208,-1.46546 -5.48356,-3.99829 -4.32099,-5.87937 0.83443,-1.35014 10.74667,0.6437 19.10921,3.84381 3.84311,1.47065 19.63274,6.49288 36,11.45058 2.475,0.74968 6.43215,1.63384 8.79367,1.96478 2.36153,0.33095 5.06153,1.01341 6,1.51659 4.55836,2.44401 17.31236,3.91017 19.85284,2.28222 0.63058,-0.40408 1.6333,-2.53469 2.22826,-4.73469 0.59497,-2.2 2.27282,-5.74645 3.72857,-7.881 2.8201,-4.13511 5.59486,-12.93892 4.76206,-15.10916 -0.27596,-0.71915 -0.0211,-1.60461 0.56643,-1.96771 0.58749,-0.36309 1.06817,-1.55441 1.06817,-2.64739 0,-1.09297 1.5698,-5.34018 3.48845,-9.43825 6.59217,-14.0803 10.94138,-31.02873 8.66597,-33.77043 -1.53476,-1.84927 -0.73592,-3.79982 3.40982,-8.32592 1.84911,-2.01875 3.13719,-4.03422 2.86241,-4.47882 -0.27478,-0.44461 0.30431,-1.66672 1.28688,-2.71581 6.41508,-6.84946 10.28647,-11.43517 10.28647,-12.18445 0,-0.47739 1.35058,-1.66579 3.00128,-2.64089 1.65071,-0.9751 3.25604,-2.57554 3.56739,-3.55654 0.31136,-0.98099 1.22043,-1.78363 2.02017,-1.78363 0.79974,0 3.9215,-2.3625 6.93726,-5.25 3.01575,-2.8875 7.96723,-7.5 11.00329,-10.25 5.46058,-4.9461 9.47061,-10.40888 9.47061,-12.90162 0,-0.70802 1.12445,-2.59479 2.49878,-4.19284 1.37433,-1.59805 2.51837,-3.80554 2.54232,-4.90554 0.0461,-2.11808 5.31554,-6.04944 9.52425,-7.10576 1.33906,-0.33608 2.43465,-1.01227 2.43465,-1.50265 0,-0.49037 1.0875,-0.89159 2.41667,-0.89159 1.32916,0 2.56666,-0.3375 2.75,-0.75 0.93099,-2.09473 15.00398,-7.21846 19.88333,-7.23918 1.4025,-0.006 3.084,-0.54482 3.73666,-1.19748 1.73791,-1.73791 13.02968,-1.29303 17.67871,0.69651 7.00146,2.99625 7.85638,6.31396 2.21277,8.58718 -1.74797,0.70408 -4.75314,2.2512 -6.67814,3.43804 -1.925,1.18684 -5.3,2.73944 -7.5,3.45022 -2.2,0.71077 -5.23443,2.15831 -6.74318,3.21675 -1.50874,1.05844 -3.14508,1.67604 -3.63631,1.37244 -0.49122,-0.30359 -1.12716,0.34295 -1.4132,1.43677 -0.28604,1.09381 -1.14344,1.98875 -1.90534,1.98875 -0.76191,0 -2.13652,1.65742 -3.0547,3.68315 l -1.66941,3.68314 7.89716,7.72918 c 4.34344,4.25105 8.82592,8.02396 9.96107,8.38425 1.13515,0.36028 2.06391,1.04441 2.06391,1.52028 0,0.47587 0.97375,1.17428 2.16389,1.55202 2.74722,0.87193 11.46378,6.9625 15.17717,10.60483 1.56258,1.53268 4.33486,3.06693 6.16063,3.40945 3.68395,0.69111 6.71737,-0.77551 21.15288,-10.22712 8.42821,-5.51834 12.35174,-6.51748 15.77214,-4.01643 1.46808,1.07349 1.67773,2.09961 1.11251,5.44512 -0.53465,3.16453 -1.78177,5.12259 -5.36746,8.42724 -2.56905,2.36769 -4.54752,4.67584 -4.3966,5.12922 0.15091,0.45338 -0.18666,0.53938 -0.75018,0.19111 -0.56351,-0.34827 -3.49966,1.29985 -6.52477,3.6625 -5.67452,4.43185 -6.91053,7.40671 -4.06024,9.77224 0.79198,0.65728 1.57948,2.17067 1.75,3.36307 0.17244,1.2059 1.56445,2.76742 3.13672,3.51871 3.44002,1.64375 21.67331,19.49216 21.67331,21.21581 0,1.62249 3.03784,3.88034 5.27475,3.92043 1.01505,0.0182 2.20419,-1.09772 2.77798,-2.60689 0.55177,-1.45128 1.26286,-2.37905 1.5802,-2.06172 0.31733,0.31734 1.59384,-0.52025 2.83669,-1.86131 1.24285,-1.34105 2.7403,-2.43828 3.32766,-2.43828 0.58737,0 1.35375,-0.90048 1.70306,-2.00106 0.34931,-1.10059 1.55041,-2.49092 2.66911,-3.08963 1.67279,-0.89525 2.50431,-0.64863 4.68228,1.38872 1.45655,1.3625 3.66571,2.78473 4.90924,3.16049 2.45645,0.74229 5.67522,5.9624 4.90849,7.96046 -0.68612,1.78801 1.01543,10.08247 2.95183,14.38911 0.913,2.03055 2.94671,6.35129 4.51936,9.60163 1.57264,3.25035 2.85935,6.52697 2.85935,7.28139 0,0.75441 0.65787,1.62411 1.46193,1.93266 0.80407,0.30854 1.74026,1.43791 2.08043,2.5097 0.35083,1.10535 1.85678,2.19636 3.47975,2.52095 3.02234,0.60447 5.4345,4.9921 4.3287,7.87376 -0.31063,0.8095 -0.1024,1.47182 0.46275,1.47182 0.56514,0 1.33515,1.40058 1.71112,3.11239 0.37598,1.71181 2.21108,4.80313 4.078,6.86959 1.86692,2.06646 4.36252,5.95338 5.54577,8.63761 1.18325,2.68422 3.89476,6.57794 6.02557,8.65269 3.19155,3.1076 4.21077,3.59216 5.78434,2.75 3.53249,-1.89052 4.95214,-1.08743 7.47348,4.22772 1.72136,3.62873 4.89066,7.4117 10.26296,12.25 4.2748,3.85 10.4798,9.74124 13.7888,13.09164 4.9312,4.99282 6.9484,6.31498 11.1831,7.32976 5.1044,1.22318 9.3333,0.3895 9.3333,-1.83995 0,-1.11713 3.5093,-2.01029 4.7498,-1.20888 1.3598,0.87851 4.2502,6.71195 4.2502,8.57777 0,0.85231 0.4679,1.54966 1.0398,1.54966 0.5719,0 3.8797,2.925 7.3507,6.5 3.471,3.575 6.5821,6.5 6.9137,6.5 0.3315,0 5.0112,2.7127 10.3993,6.02823 5.3881,3.31552 10.6965,6.57802 11.7965,7.25 1.1,0.67197 2.3494,1.76558 2.7764,2.43024 0.4271,0.66465 1.4396,0.95401 2.25,0.64301 0.8105,-0.311 1.4736,-0.15391 1.4736,0.34908 0,1.71855 8.4919,4.69074 13.5856,4.75503 4.4288,0.0559 5.5912,0.53616 9,3.71861 4.7988,4.48006 11.2163,9.53945 18.1644,14.3203 2.8875,1.98682 5.25,3.96712 5.25,4.40067 0,0.80648 6.2995,2.86412 9,2.93974 0.825,0.0231 3.1266,0.45857 5.1146,0.96771 3.3564,0.85956 3.7359,0.72045 5.3117,-1.94706 1.4514,-2.45708 1.5162,-3.37245 0.4482,-6.32608 -1.1634,-3.21736 -1.0717,-3.61734 1.3417,-5.854 4.1805,-3.87442 6.0214,-8.30938 5.2773,-12.71373 -0.798,-4.72363 0.1,-6.46378 4.5566,-8.8317 2.0281,-1.07754 4.2742,-3.47444 5.4499,-5.81595 1.1,-2.19066 3.0125,-5.36448 4.25,-7.05293 1.2375,-1.68845 2.25,-3.39124 2.25,-3.78398 0,-0.57931 3.4284,-7.9608 9.9752,-21.47719 0.3996,-0.825 1.8684,-1.63754 3.2641,-1.80565 2.018,-0.24308 3.0722,-1.49708 5.1491,-6.12505 1.4364,-3.20067 2.6116,-6.51848 2.6116,-7.37292 0,-2.61597 2.8915,-4.82482 4.9052,-3.74713 1.132,0.60584 4.0696,0.54183 8.1805,-0.17824 5.9961,-1.05028 13.863,-1.30791 26.871,-0.87999 3.9724,0.13067 6.1485,-0.32989 8,-1.69318 4.619,-3.40099 7.0964,-4.39796 8.3572,-3.36305 0.6524,0.53546 2.3111,1.12919 3.6861,1.31939 2.1409,0.29614 2.4902,0.84862 2.4316,3.84582 -0.038,1.925 -0.4032,5.45488 -0.8123,7.84417 -0.8715,5.08869 0.8058,7.07125 6.0271,7.12403 2.3903,0.0242 3.9006,0.93292 6.2848,3.7818 5.4418,6.50238 5.4307,6.47142 5.2116,14.52573 -0.1566,5.75305 -0.017,6.14826 5.8612,16.56013 0.8272,1.46528 2.8336,4.40473 4.4587,6.53212 1.6251,2.12739 3.052,4.53113 3.1709,5.34163 0.3414,2.32611 1.1903,2.68141 2.939,1.23013 1.3784,-1.144 1.7652,-1.08746 2.5853,0.37793 0.903,1.61358 1.1432,1.61755 3.7759,0.0624 3.8701,-2.28618 7.833,-1.19833 8.6889,2.38517 0.3592,1.50412 1.0914,3.29154 1.6271,3.97204 0.5357,0.68049 0.6885,1.98106 0.3397,2.89016 -0.4013,1.04574 0.1086,2.17323 1.3881,3.06943 1.1123,0.7791 2.0224,2.31759 2.0224,3.41886 0,1.10127 0.4189,1.74342 0.9309,1.42699 0.512,-0.31644 1.2097,-0.12428 1.5504,0.42701 0.8735,1.41344 3.4983,0.82987 7.8707,-1.74991 2.0693,-1.2209 4.0741,-2.23478 4.4552,-2.25308 1.2295,-0.059 4.6076,-3.35395 8.1679,-7.96673 4.2628,-5.52306 5.0599,-6.13744 7.2739,-5.60688 0.962,0.23051 2.044,-0.0582 2.4045,-0.64151 0.413,-0.66831 0.1713,-0.76138 -0.6535,-0.25161 -0.8727,0.53934 -1.0678,0.41874 -0.5854,-0.3618 0.398,-0.64395 1.1469,-0.9092 1.6643,-0.58945 1.2967,0.80141 15.904,-6.34068 16.5821,-8.1076 0.3017,-0.78632 0.8407,-1.24912 1.1977,-1.02847 0.357,0.22066 2.2224,-1.82662 4.1452,-4.54951 3.1669,-4.48454 3.7959,-4.90644 6.6796,-4.48061 2.3931,0.3534 3.8206,-0.12041 5.75,-1.90848 1.4116,-1.30822 2.5665,-2.10621 2.5665,-1.77332 0,0.33289 0.8403,-0.36359 1.8673,-1.54775 1.027,-1.18416 2.1702,-2.15301 2.5405,-2.15301 1.4392,0 6.5922,-4.44621 6.5922,-5.68806 0,-0.72157 0.9209,-2.32444 2.0464,-3.56194 3.8763,-4.26185 4.6413,-5.25994 6.4932,-8.47131 2.3953,-4.15353 7.0557,-6.54836 9.6231,-4.94499 1.0105,0.63106 1.8373,1.51571 1.8373,1.96586 0,0.45016 0.3523,0.60077 0.7828,0.33468 0.4305,-0.26608 2.9847,-0.74275 5.6759,-1.05926 3.0529,-0.35905 5.6015,-1.33585 6.7768,-2.5974 1.0361,-1.11206 2.3764,-1.71742 2.9786,-1.34525 0.6773,0.41861 0.8079,0.21234 0.3424,-0.54083 -0.4232,-0.68478 0.017,-2.0681 1.0068,-3.1614 0.9675,-1.06913 2.2491,-2.91557 2.8479,-4.10321 0.5988,-1.18763 2.4569,-2.64703 4.1291,-3.24311 6.4964,-2.31576 18.4597,-17.32911 18.4597,-23.16599 0,-2.382 2.3071,-5.33599 4.3214,-5.53314 4.9112,-0.48066 7.9861,-2.40667 11.6145,-7.27482 1.8897,-2.53541 3.8022,-4.60983 4.25,-4.60983 0.4477,0 0.8141,-0.70156 0.8141,-1.55902 0,-0.85746 0.4062,-1.30799 0.9026,-1.00118 0.4964,0.3068 1.3417,-0.70186 1.8784,-2.24148 0.5367,-1.53962 2.3696,-4.11473 4.073,-5.72247 2.1711,-2.04924 3.4208,-4.48246 4.1798,-8.13875 1.2528,-6.03463 4.6264,-11.07689 6.2949,-9.40842 1.334,1.33406 4.6713,1.40987 4.6713,0.10612 0,-0.53087 1.2375,-2.44485 2.75,-4.25329 4.2635,-5.09773 10.25,-16.03514 10.25,-18.72687 0,-0.68881 0.6222,-2.67039 1.3828,-4.40351 0.7605,-1.73312 1.9309,-4.72613 2.6009,-6.65113 2.3953,-6.8821 3.2112,-7.83352 8.0844,-9.42747 6.18,-2.02137 7.6677,-1.98039 8.3694,0.23058 0.3148,0.99172 2.606,2.79118 5.0917,3.99881 2.6472,1.28612 4.9038,3.20664 5.4472,4.63609 1.6314,4.29084 4.4533,5.00852 11.9141,3.03006 3.6352,-0.96399 7.0595,-2.08301 7.6095,-2.48672 1.5663,-1.14967 11.7862,-3.92252 12.601,-3.4189 0.4022,0.24852 1.9543,-0.0132 3.4492,-0.58155 5.4892,-2.08696 16.7574,-2.91495 20.0901,-1.47622 1.0229,0.44155 2.9847,0.98427 4.3597,1.20604 2.8117,0.45349 10.0627,2.80476 12.7381,4.13059 0.969,0.48021 3.1969,1.62154 4.9507,2.53629 1.7539,0.91476 3.5539,1.60072 4,1.52437 2.7476,-0.47018 4.3661,0.73412 8.0975,6.0253 2.299,3.26 5.0876,6.21532 6.1969,6.56739 1.1092,0.35206 2.0168,1.04082 2.0168,1.53057 0,0.48976 2.0163,2.0721 4.4807,3.51632 3.2102,1.88131 5.2678,2.45297 7.2567,2.01614 2.5147,-0.55234 3.0106,-0.16507 5.2693,4.11559 2.9187,5.53159 16.58,19.32672 19.1391,19.32672 0.968,0 3.1995,-1.79138 4.959,-3.98085 1.7596,-2.18946 3.9473,-4.21831 4.8618,-4.50854 0.9144,-0.29023 2.9835,-2.35978 4.598,-4.59898 1.6145,-2.23921 3.3854,-4.49017 3.9354,-5.00214 4.1439,-3.85737 8.1999,-6.8801 9.25,-6.89352 0.6875,-0.009 1.25,-0.46597 1.25,-1.01597 0,-0.55 0.6447,-1 1.4326,-1 0.7879,0 1.7258,-0.92369 2.0841,-2.05265 0.5254,-1.65539 0.93,-1.82155 2.0903,-0.85856 1.1697,0.9708 1.321,0.88715 0.8089,-0.44735 -0.4528,-1.17997 -0.075,-1.64144 1.3423,-1.64144 1.0846,0 3.1162,-0.9 4.5147,-2 1.3984,-1.1 3.0341,-2 3.6348,-2 0.6008,0 1.0923,-0.34329 1.0923,-0.76287 0,-0.41958 0.8339,-1.20708 1.8531,-1.75 2.6097,-1.39011 13.9525,-9.96382 18.2374,-13.78511 12.47973,-11.12948 17.90953,-13.96664 17.90953,-9.35799 0,1.7559 -14.7321,16.65596 -16.4682,16.65596 -1.1871,0 -19.60173,19.53657 -20.65283,21.91119 -0.6629,1.49754 -2.4381,3.5987 -3.945,4.66925 -4.3571,3.09537 -13.1565,10.66911 -15.8816,13.66956 -1.3738,1.5125 -3.0726,2.75 -3.7751,2.75 -0.7025,0 -1.2773,0.45 -1.2773,1 0,0.55 -1.1429,1 -2.5398,1 -3.0533,0 -9.3444,3.07179 -11.5582,5.64359 -2.0763,2.4121 -3.1046,5.35641 -1.8706,5.35641 0.5327,0 0.9686,1.2949 0.9686,2.87756 0,1.58265 0.675,3.43775 1.5,4.12244 0.825,0.68469 1.5,1.61823 1.5,2.07453 0,0.45631 2.025,3.72644 4.5,7.26696 2.475,3.54052 4.5,6.83262 4.5,7.31577 0,0.48316 1.0392,2.44543 2.3092,4.36061 1.969,2.969 4.4446,9.3986 5.2685,13.68319 0.127,0.66058 1.8395,2.85729 3.8054,4.88156 3.0841,3.17558 5.4299,6.65271 11.3032,16.75454 1.5491,2.66432 11.3387,11.65407 12.7333,11.69298 0.5942,0.0166 3.0064,2.57158 5.3604,5.67777 3.5182,4.64237 4.2399,6.32796 4.0545,9.46986 -0.1697,2.87619 -0.6555,3.82223 -1.9626,3.82223 -2.2593,0 -3.185,3.04627 -1.9294,6.34882 0.6684,1.75788 1.4956,2.42031 2.5277,2.02423 2.7618,-1.05979 6.47013,0.54071 7.10393,3.06606 0.5645,2.24929 1.0341,2.40213 7.0983,2.31017 6.8383,-0.1037 8.2819,0.73087 8.3123,4.8053 0.014,1.84136 -2.7249,5.18828 -8.8946,10.87039 -2.514,2.31538 -2.7162,6.86748 -0.4918,11.07503 2.0541,3.88541 7.4426,20.12307 7.9644,24 0.5037,3.74254 1.6851,7.01452 6.4991,18 1.2051,2.75 2.7246,7.475 3.3766,10.5 l 1.1856,5.5 6.556,-0.26154 c 7.6467,-0.30505 9.7318,1.0148 7.2348,4.57969 -0.8405,1.20002 -2.1777,2.18185 -2.9715,2.18185 -0.7938,0 -1.4433,0.45 -1.4433,1 0,0.55 -0.5018,1 -1.1151,1 -0.6134,0 -2.664,1.6875 -4.5571,3.75 -2.956,3.22066 -3.4162,4.38521 -3.2598,8.25 0.1002,2.475 -0.1136,5.1997 -0.475,6.05489 -0.3615,0.85519 -0.494,4.35133 -0.2944,7.76921 0.2215,3.79425 -0.1057,6.88834 -0.8401,7.9451 -0.6616,0.95194 -1.5346,3.3058 -1.9399,5.2308 -3.0008,14.25179 -11.7013,35.83961 -20.3528,50.5 -10.03203,16.99976 -11.61513,18.87867 -23.65953,28.08075 -15.8831,12.13499 -20.1687,15.11954 -26.0063,18.11099 -2.75,1.40924 -8.4435,4.9801 -12.6523,7.93525 -4.2087,2.95516 -7.9263,5.37301 -8.2613,5.37301 -0.3349,0 -3.2405,1.7962 -6.4566,3.99155 -4.9941,3.4089 -14.9491,13.40671 -20.1298,20.21637 -4.9828,6.54945 -6.9629,8.15446 -14.4463,11.70983 -4.5559,2.16449 -8.5551,4.64347 -8.8872,5.50884 -0.4634,1.20779 -2.1133,1.57341 -7.1002,1.57341 -3.573,0 -8.4246,0.6282 -10.7814,1.39601 -4.6169,1.50419 -13.7373,3.70461 -17.7849,4.29089 -5.8372,0.84549 -19.7316,0.37054 -22.5,-0.76911 -1.9839,-0.81671 -7.9665,-1.1808 -17.6639,-1.07501 -12.961,0.1414 -15.2255,-0.0859 -19.5,-1.95772 -6.3106,-2.76339 -11.3683,-2.5539 -16.2442,0.67284 -3.1073,2.0563 -4.5927,2.43877 -7.4151,1.90928 -2.9384,-0.55124 -3.8349,-0.27838 -5.3531,1.6294 -3.1941,4.0135 -8.9858,9.90342 -9.7383,9.90342 -0.3996,0 -2.91,1.84107 -5.5786,4.09126 -3.2312,2.72462 -6.0758,6.48258 -8.5157,11.25 -2.0151,3.93731 -5.6499,9.70824 -8.0774,12.82429 -2.4276,3.11605 -4.4137,6.5251 -4.4137,7.57568 0,1.05058 -1.1021,2.94551 -2.4491,4.21095 -2.5726,2.41685 -5.5509,9.78138 -5.5509,13.72596 0,1.27702 -0.3375,2.32388 -0.75,2.32634 -0.4125,0.002 -0.837,1.68997 -0.9433,3.75 -0.2409,4.66801 -2.3058,12.24552 -3.3369,12.24552 -1.8332,0 -4.4694,19.25178 -3.3813,24.69247 0.5524,2.76227 1.1469,3.25598 4.6284,3.84418 2.1971,0.37119 4.8944,1.57464 5.9941,2.67435 1.7429,1.74286 1.9136,2.80132 1.3303,8.24784 -0.368,3.43666 -1.2464,9.04956 -1.9519,12.47326 -1.1621,5.6391 -1.1152,6.4293 0.4982,8.3964 l 1.7811,2.1715 4.3156,-2.2528 c 2.3737,-1.239 4.7301,-2.2515 5.2367,-2.25 0.5065,0 3.7123,-1.3571 7.124,-3.0191 5.5916,-2.7241 9.1209,-3.6126 17.705,-4.4574 1.5125,-0.1489 3.0875,-0.3768 3.5,-0.5064 0.4125,-0.1296 1.8131,-0.147 3.1123,-0.039 1.6547,0.138 2.1327,-0.1747 1.5955,-1.0438 -0.4827,-0.781 -0.3562,-0.987 0.3413,-0.556 0.6094,0.3767 4.6165,-0.6681 8.9045,-2.3217 4.288,-1.6537 8.1256,-3.0464 8.5279,-3.0949 0.4023,-0.048 2.2023,-0.555 4,-1.1256 1.7977,-0.5706 5.0685,-1.3902 7.2685,-1.8212 2.2,-0.43112 7.6,-1.51047 12,-2.39859 4.7504,-0.95883 9.8603,-1.3683 12.5797,-1.00804 2.5189,0.3337 7.125,0.0783 10.2359,-0.56749 3.1109,-0.64582 6,-1.16559 6.4203,-1.15504 0.4203,0.0105 1.711,-0.60128 2.8684,-1.3596 1.6189,-1.0608 3.0026,-1.14358 6,-0.35896 5.2612,1.37726 16.9226,3.67649 22.1926,4.37565 2.9792,0.39525 6.439,-0.10601 11.2822,-1.63455 6.1693,-1.94706 7.4374,-2.05544 10.8543,-0.92777 3.3848,1.11709 4.7258,1.01862 10.7177,-0.78703 3.7669,-1.13513 10.8049,-2.79818 15.6401,-3.69566 8.3075,-1.54201 11.9801,-2.69118 19.3599,-6.0578 1.7332,-0.79063 4.1456,-1.43752 5.3609,-1.43752 2.4566,0 19.6339,-6.62642 21.988,-8.48221 0.825,-0.65037 3.3,-1.97259 5.5,-2.93828 8.3019,-3.64408 18.0898,-8.92416 20.5,-11.05872 4.1783,-3.70042 7.3367,-5.52079 9.5787,-5.52079 2.3858,0 20.81113,-9.30658 23.92133,-12.08255 7.191,-6.41821 20.9298,-8.88381 26.6814,-4.78831 2.4565,1.74919 3.8815,2.02356 7.9855,1.5375 7.7678,-0.91998 14.0741,-4.53901 39.131,-22.45633 6.1946,-4.42949 11.5538,-9.64215 10.9708,-10.67067 -0.3242,-0.5718 -0.271,-0.75598 0.118,-0.40929 0.7403,0.65972 22.4088,-20.67991 26.4394,-26.03812 1.2793,-1.70073 2.7889,-3.09223 3.3547,-3.09223 3.1425,0 41.31,-36.18091 44.3318,-42.02437 0.8293,-1.60373 1.7899,-6.41681 2.1346,-10.69575 0.3446,-4.27893 1.1163,-8.39798 1.7147,-9.15343 0.5984,-0.75546 1.2053,-3.00546 1.3487,-5 0.5295,-7.36843 1.4695,-12.70507 2.7525,-15.62645 5.038,-11.47119 6.8876,-14.55569 9.835,-16.4008 1.761,-1.10245 4.1019,-3.3758 5.2019,-5.05188 1.1,-1.67609 3.4625,-3.74351 5.25,-4.59429 1.7875,-0.85078 3.25,-2.20075 3.25,-2.99995 0,-0.79919 0.4295,-1.45308 0.9545,-1.45308 1.3124,0 6.0788,-4.87055 5.7841,-5.91047 -0.2578,-0.90994 3.6925,-5.5344 7.0888,-8.29864 4.1775,-3.4 10.259,-5.59595 17.3945,-6.28096 4.003,-0.38428 8.3316,-1.36846 9.6192,-2.18705 2.9492,-1.87497 6.3145,-2.55529 12.6589,-2.55905 2.75,-0.002 7.8579,-0.90285 11.3509,-2.00272 6.0195,-1.89539 6.6126,-1.91524 11.3648,-0.38043 2.7577,0.89063 5.9748,1.62229 7.1491,1.62591 2.8662,0.009 5.8746,2.22823 13.7917,10.17425 4.9671,4.98529 7.1633,6.54829 8.6536,6.15858 2.347,-0.61378 4.089,3.16144 2.2892,4.96124 -1.3966,1.39666 -1.4346,4.69934 -0.054,4.69934 0.6145,0 0.8408,1.33953 0.549,3.25 -0.273,1.7875 -1.0275,6.98886 -1.6767,11.55859 l -1.1803,8.30859 -7.1187,7.79946 c -3.9152,4.2897 -8.6738,10.45084 -10.5745,13.69141 -1.9008,3.24057 -4.4883,7.16398 -5.75,8.71868 -1.2618,1.55469 -2.2941,3.27545 -2.2941,3.82391 0,1.55523 -10.7796,16.73173 -15.3409,21.59827 -10.1884,10.87025 -10.3832,16.52127 -0.6804,19.74402 2.7488,0.913 5.2571,2.07961 5.5741,2.59248 0.905,1.46432 -0.5402,4.91459 -2.0586,4.91459 -0.7541,0 -3.7612,1.29042 -6.6826,2.8676 -2.9214,1.57718 -6.4457,3.13481 -7.8319,3.46139 -3.5138,0.82788 -12.1006,6.66631 -11.4212,7.76561 0.3077,0.49797 1.883,0.9054 3.5005,0.9054 2.5769,0 2.941,0.35812 2.941,2.89301 0,4.53099 -5.2726,5.79757 -7.1334,1.71357 l -1.0905,-2.39342 -5.6381,2.43384 c -13.835,5.97235 -21.5806,11.44067 -24.6715,17.41784 -1.9549,3.78038 -1.8834,10.37545 0.1345,12.39329 4.602,4.60199 -5.4925,16.55016 -13.9731,16.53909 -3.1978,-0.004 -10.3657,4.13193 -11.5089,6.64094 -0.5533,1.21434 -0.8144,4.25172 -0.5802,6.74973 0.3463,3.69429 -0.01,5.04756 -1.9054,7.25196 -1.9742,2.29513 -3.4517,2.82985 -9.6484,3.49197 -8.3543,0.89265 -14.8449,4.53018 -19.0579,10.68066 -1.3349,1.94878 -2.8771,4.02569 -3.4271,4.61537 -0.55,0.58968 -2.8462,3.54715 -5.1027,6.57215 -5.1072,6.84669 -13.2297,14.18677 -24.8973,22.4991 -4.95,3.5265 -9.4635,6.7693 -10.03,7.2063 -0.5665,0.437 -2.5915,1.6584 -4.5,2.7143 -5.9171,3.2734 -11.7222,9.7427 -12.5098,13.941 -0.6654,3.5465 -3.7254,7.6393 -5.7116,7.6393 -0.4809,0 -0.7335,0.9585 -0.5615,2.13 0.2932,1.9956 -0.5271,2.8453 -4.1871,4.3371 -2.1644,0.8821 -5.5421,2.908 -7.3495,4.408 -0.8596,0.7134 -1.9587,1.0525 -2.4424,0.7535 -0.8412,-0.5199 -4.5741,1.9728 -8.3117,5.5501 -0.9646,0.9233 -3.0589,1.8844 -4.6539,2.1358 -1.595,0.2514 -4.2146,1.1293 -5.8213,1.9508 -1.6067,0.8216 -4.4962,1.833 -6.4212,2.2476 -1.925,0.4146 -5.0683,1.5938 -6.9852,2.6204 -1.9168,1.0267 -3.7928,1.8667 -4.1688,1.8667 -0.7998,0 -18.4125,8.4741 -21.346,10.2703 -1.1,0.6736 -3.3834,2.2009 -5.0742,3.394 -3.5256,2.4878 -10.6617,4.015 -24.92583,5.3341 -5.5,0.5086 -12.475,1.8047 -15.5,2.8801 -5.2101,1.8523 -5.5168,2.1516 -5.8187,5.6786 -0.4911,5.7367 -3.7035,8.0635 -6.8242,4.9429 -0.825,-0.825 -1.0178,-1.5 -0.4285,-1.5 0.5893,0 1.0714,-0.4109 1.0714,-0.9131 0,-0.5023 -1.35,-0.4036 -3,0.2192 -3.2495,1.2265 -3.5397,2.3535 -1.9829,7.7005 1.3479,4.6296 -0.075,7.204 -4.8128,8.7101 -3.6965,1.175 -3.7148,1.1664 -8.7043,-4.1068 -2.75,-2.9064 -5.9,-5.7609 -7,-6.3435 -3.2983,-1.7466 -24.2432,-3.5243 -32.9642,-2.7979 -8.7498,0.7289 -38.2522,-0.9626 -45.5358,-2.6107 -13.0586,-2.9548 -29.5397,-1.4858 -36.2095,3.2275 -1.4902,1.0531 -2.9828,1.9147 -3.3167,1.9147 -2.2613,0 -26.2649,22.0803 -34.0813,31.3504 -2.917,3.4595 -10.3925,18.7722 -10.3925,21.2877 0,3.2902 -2.1495,8.674 -4.4141,11.0558 -4.6505,4.8914 -5.3255,6.0491 -6.9224,11.8717 -0.9149,3.3361 -1.6635,8.3986 -1.6635,11.25 0,5.8699 -0.4939,5.615 10.1314,5.2311 3.99,-0.1441 6.9016,0.1977 7.3099,0.8583 0.4494,0.7272 2.974,0.8845 7.4789,0.4658 4.4692,-0.4154 7.0306,-0.2594 7.4721,0.4549 0.3695,0.5978 1.2547,0.8632 1.9673,0.5898 0.7125,-0.2734 2.6106,0.027 4.218,0.6675 3.2612,1.2996 12.9783,1.2251 15.4895,-0.1189 1.0245,-0.5483 2.1077,-0.4251 2.9264,0.3327 0.7669,0.7098 1.0465,0.7488 0.6819,0.095 -0.793,-1.4219 11.4753,-2.6644 14.6018,-1.4788 1.2225,0.4636 10.2833,0.887 20.1349,0.9409 10.0025,0.055 19.3775,0.5815 21.2305,1.1931 1.8251,0.6023 3.7628,0.8204 4.3062,0.4846 0.5433,-0.3358 3.1396,0.3762 5.7695,1.5822 5.8749,2.694 11.0231,3.3624 13.9272,1.8082 1.4522,-0.7772 3.4907,-0.8937 6.0247,-0.3442 4.724,1.0242 8.3586,0.6721 10.3298,-1.0009 0.825,-0.7001 2.3302,-1.5687 3.3449,-1.93 1.0148,-0.3614 2.0784,-1.5498 2.3637,-2.6408 0.2853,-1.091 0.9029,-1.7463 1.3724,-1.4561 0.4695,0.2901 1.4308,-0.4225 2.1363,-1.5835 1.8707,-3.0787 6.7383,-4.7773 12.7594,-4.4524 8.403,0.4534 9.2221,3.6015 2.5233,9.698 -2.475,2.2525 -4.5,4.7012 -4.5,5.4416 0,0.7404 -0.45,1.3462 -1,1.3462 -3.1467,0 2.0801,10.1187 8.492,16.4399 3.4504,3.4015 5.6698,4.6088 10.877,5.9168 3.5981,0.9038 8.6407,1.6433 11.2057,1.6433 3.5402,0 6.0202,0.822 10.2945,3.4121 3.0969,1.8766 10.8058,5.1993 17.1308,7.3837 6.32503,2.1844 16.22503,5.6361 22.00003,7.6704 11.2349,3.9575 18.2855,4.6912 23.5,2.4452 3.3815,-1.4564 16.4495,-3.7387 24,-4.1915 7.2554,-0.4352 11.0512,-2.7114 20.3927,-12.2293 8.1944,-8.3492 10.7878,-9.7854 12.9549,-7.1742 1.0814,1.303 -0.1874,8.4925 -1.7089,9.6836 -1.1623,0.9099 -3.1387,4.9487 -3.1387,6.4139 0,0.7925 1.1731,2.3637 2.6069,3.4915 3.2918,2.5894 5.7109,1.5028 8.1547,-3.6626 0.9561,-2.021 2.8946,-4.3215 4.3077,-5.1124 4.2629,-2.3858 10.4261,0.3168 11.2702,4.942 2.2792,12.4901 6.2963,16.4649 19.0161,18.8163 4.9978,0.9239 6.628,0.8012 11.5965,-0.8726 6.2071,-2.091 24.8124,-13.0504 31.6067,-18.6178 2.2809,-1.8691 4.5508,-3.4107 5.0442,-3.4258 1.0238,-0.031 3.7198,-3.6477 9.6714,-12.9725 2.2817,-3.575 4.4891,-6.6453 4.9054,-6.8228 0.4163,-0.1775 1.0652,-1.9662 1.442,-3.9749 0.7188,-3.8316 2.414,-6.2023 4.435,-6.2023 1.407,0 11.6479,-5.7301 12.1205,-6.7818 0.496,-1.104 5.8916,-4.7026 10.8227,-7.2182 4.2433,-2.1648 9.1723,-5.3614 11.5647,-7.5 0.6152,-0.55 2.6025,-2.125 4.4161,-3.5 1.8137,-1.375 5.8224,-4.4123 8.9084,-6.7496 3.0859,-2.3373 7.0253,-5.3817 8.7541,-6.7652 5.9493,-4.7612 8.8557,-14.5369 7.268,-24.4458 -1.0463,-6.5296 0.2496,-12.3382 3.2161,-14.4161 2.7925,-1.9559 4.8447,-6.1405 5.5558,-11.3288 0.7009,-5.1135 2.9175,-5.7385 4.4778,-1.2625 0.7268,2.085 1.4133,2.7419 2.198,2.1033 0.6275,-0.5108 3.166,-1.5215 5.641,-2.246 2.475,-0.7244 5.0545,-1.8557 5.7321,-2.5139 0.6777,-0.6583 1.5777,-1.3495 2,-1.5361 2.2347,-0.9874 6.3637,-7.3651 5.9047,-9.1203 -0.8068,-3.0852 4.0403,-9.5358 7.9835,-10.6246 1.8541,-0.512 4.6106,-2.3781 6.1254,-4.147 3.1827,-3.7164 7.2543,-10.8343 7.2543,-12.6819 0,-0.696 0.45,-1.2655 1,-1.2655 0.55,0 1.0086,-0.5625 1.0192,-1.25 0.01,-0.6875 1.622,-3.05 3.5811,-5.25 1.959,-2.2 4.6942,-6.3438 6.0781,-9.2083 2.8776,-5.9563 4.6514,-7.7629 6.8089,-6.935 2.093,0.8032 1.891,3.9766 -0.5695,8.9416 -2.5294,5.1043 -5.2444,13.7084 -4.546,14.4068 0.2792,0.2793 -0.3651,1.4447 -1.432,2.5899 -1.0669,1.1452 -1.9398,2.6468 -1.9398,3.3369 0,0.6901 -0.7875,1.8427 -1.75,2.5614 -0.9625,0.7187 -2.272,2.4317 -2.9099,3.8067 -4.2147,9.0837 -5.3401,11.7483 -5.3401,12.6433 0,2.4494 -5.4014,14.0954 -7.6338,16.4592 -2.1727,2.3006 -2.3178,2.9096 -1.2515,5.25 0.6635,1.4561 1.934,2.6475 2.8233,2.6475 2.5002,0 5.77,-2.7005 6.4238,-5.3052 0.3246,-1.2936 1.7019,-2.8584 3.0605,-3.4775 3.8923,-1.7734 10.5507,-8.2383 12.5127,-12.1491 0.9846,-1.9625 2.0303,-6.3357 2.3237,-9.7182 0.4867,-5.6107 3.406,-12.0343 5.9913,-13.1833 0.4125,-0.1834 0.75,-1.1632 0.75,-2.1775 0,-1.9981 4.4213,-5.9892 6.6349,-5.9892 0.7508,0 1.3651,-0.374 1.3651,-0.831 0,-0.4571 1.125,-1.4331 2.5,-2.169 1.375,-0.7359 2.5,-1.9369 2.5,-2.669 0,-0.732 0.4395,-1.331 0.9767,-1.331 1.0625,0 5.0233,-7.5939 5.0233,-9.6311 0,-0.6905 1.0125,-1.9699 2.25,-2.843 2.0969,-1.4795 2.3657,-1.446 3.9499,0.4922 0.9349,1.1438 1.4492,2.7326 1.143,3.5308 -0.3342,0.8707 0.043,1.4511 0.9431,1.4511 0.825,0 1.759,-0.675 2.0756,-1.5 0.3166,-0.825 1.1059,-1.5 1.754,-1.5 0.6481,0 3.0248,-1.5003 5.2814,-3.334 2.2567,-1.8336 6.353,-4.6333 9.103,-6.2215 2.75,-1.5882 6.4795,-3.8818 8.2879,-5.097 2.4663,-1.6574 4.1672,-2.0668 6.8077,-1.6383 3.0282,0.4914 4.0007,0.1052 6.9621,-2.7652 1.8933,-1.835 3.4423,-3.823 3.4423,-4.4177 0,-0.5948 1.35,-3.6834 3,-6.8637 1.65,-3.1802 3,-6.6614 3,-7.736 0,-1.0745 0.518,-2.7832 1.1512,-3.7971 0.9373,-1.5008 0.4848,-3.4028 -2.435,-10.2364 -4.408,-10.31635 -5.2412,-13.55562 -3.9019,-15.16938 0.5707,-0.68768 1.5859,-3.49433 2.256,-6.23702 0.6701,-2.74268 1.5385,-5.4367 1.9297,-5.9867 0.3912,-0.55 1.2596,-3.24402 1.9297,-5.9867 1.4805,-6.06003 2.6444,-7.61357 5.0226,-6.70399 2.0517,0.78473 13.0477,10.71958 13.0477,11.78859 0,0.38504 1.5594,2.21454 3.4654,4.06558 5.117,4.9696 6.1344,9.89956 4.0417,19.58515 -0.9283,4.29627 -1.9103,10.59887 -2.1824,14.00577 -0.272,3.407 -0.9063,6.9639 -1.4096,7.9043 -0.5033,0.9404 -0.9151,2.8487 -0.9151,4.2406 0,1.3919 -0.7059,4.6098 -1.5686,7.1509 -0.8627,2.5411 -1.6334,5.4818 -1.7128,6.5349 -0.079,1.0532 -0.4503,1.9149 -0.8244,1.9149 -1.0106,0 -1.846,2.6509 -2.4679,7.8316 -0.3048,2.5397 -1.0306,5.1916 -1.6127,5.893 -0.5822,0.7015 -0.7984,1.2754 -0.4804,1.2754 0.3179,0 -0.097,1.9125 -0.9223,4.25 -1.6721,4.7361 -1.1675,8.9776 0.9704,8.1572 1.9268,-0.7394 4.6187,2.2829 4.6187,5.1857 0,1.6378 -0.8223,2.8247 -2.4808,3.5803 -1.3644,0.6217 -2.7634,2.0208 -3.1088,3.1092 -0.3455,1.0884 -2.8291,5.2229 -5.5193,9.1877 -2.6901,3.9649 -4.8911,7.676 -4.8911,8.2469 0,0.571 -0.675,1.5983 -1.5,2.283 -0.825,0.6847 -1.5,1.9833 -1.5,2.8858 0,0.9025 -1.6262,4.0557 -3.6139,7.0072 -1.9876,2.9514 -3.6751,6.4276 -3.75,7.7248 -0.075,1.2972 -0.6751,2.5657 -1.3338,2.8189 -0.6588,0.2532 -1.9467,1.9461 -2.8621,3.7619 -0.9154,1.8157 -3.414,5.4071 -5.5523,7.9808 -2.1384,2.5737 -3.8879,5.3311 -3.8879,6.1276 0,0.7964 -0.675,2.0083 -1.5,2.693 -0.825,0.6847 -1.5,1.6594 -1.5,2.1661 0,0.5066 -1.0195,2.0207 -2.2656,3.3645 -1.246,1.3438 -3.1585,4.1258 -4.25,6.1821 -1.0914,2.0563 -2.7719,4.5372 -3.7344,5.513 -0.9625,0.9759 -1.8185,3.2368 -1.9022,5.0243 -0.084,1.7875 -0.1927,4.0949 -0.2421,5.1275 -0.1608,3.3596 16.1584,10.8278 38.3943,17.5706 14.2734,4.3282 19.2228,6.6496 18.8108,8.8226 -0.5932,3.1285 -5.1609,2.4006 -17.1095,-2.7263 -6.4658,-2.7744 -12.3975,-5.0444 -13.1816,-5.0444 -1.3933,0 -3.963,-0.9181 -10.0197,-3.5798 -1.65,-0.7251 -6.2665,-2.0657 -10.2589,-2.9792 -3.9924,-0.9134 -7.5065,-2.0613 -7.809,-2.5509 -0.3026,-0.4896 -2.3713,-0.8901 -4.5972,-0.8901 -2.969,0 -5.0348,0.7823 -7.7549,2.9367 -2.0393,1.6151 -4.9079,3.4834 -6.3747,4.1517 -1.4668,0.6683 -2.9271,2.0351 -3.2452,3.0373 -0.3181,1.0022 -1.5642,2.6395 -2.7692,3.6384 -2.2783,1.8887 -4.2977,4.6614 -5.2703,7.2359 -0.3116,0.825 -1.0112,2.3253 -1.5546,3.3341 -0.5434,1.0087 -0.7116,3.0923 -0.3738,4.6302 0.5675,2.5839 0.9339,2.7745 4.8285,2.5119 2.318,-0.1563 6.9066,-0.7566 10.1969,-1.3342 10.2558,-1.8001 13.4259,-2.0425 14.0254,-1.0725 0.3187,0.5158 1.5645,0.6911 2.7683,0.3896 1.2038,-0.3016 3.0558,0.086 4.1156,0.8622 1.7247,1.2626 1.7907,1.7393 0.6286,4.5446 -0.7601,1.8352 -2.0284,3.1341 -3.0602,3.1341 -0.9691,0 -1.9875,0.8622 -2.2631,1.916 -0.4697,1.7963 -9.8959,7.084 -12.6284,7.084 -0.6617,0 -2.4905,0.6657 -4.0639,1.4794 -3.4851,1.8022 -6.4063,2.1868 -22.7705,2.9979 -21.8115,1.0812 -30.4697,2.6493 -33.272,6.0259 -0.6833,0.8232 -1.7523,1.4968 -2.3756,1.4968 -1.4787,0 -20.8596,22.6254 -23.1121,26.9813 -1.3062,2.5259 -1.5621,4.4887 -1.0347,7.9372 1.9261,12.5955 2.015,11.8833 -1.9484,15.6212 -3.0617,2.8876 -4.4115,3.4603 -8.155,3.4603 -7.0751,0 -13.393,1.9657 -19.7356,6.1404 -3.2251,2.1228 -6.0565,3.8596 -6.292,3.8596 -0.6432,0 -14.9679,12.4789 -22.1954,19.3355 -9.0334,8.5699 -11.3704,12.6235 -11.2742,19.5558 0.092,6.6578 -0.5355,9.1087 -2.3334,9.1087 -0.7283,0 -1.5966,1.0852 -1.9294,2.4116 -0.9201,3.6658 -6.6604,4.2904 -14.0435,1.528 -3.9522,-1.4787 -7.1623,-2.02 -10.0495,-1.6946 -4.6245,0.5213 -15.4826,5.6532 -25.1677,11.8953 -5.1426,3.3144 -6.5018,4.814 -8.3036,9.1614 -4.7817,11.5373 -5.8657,12.8108 -11.4393,13.439 -2.8874,0.3255 -7.2982,-0.2436 -12.3044,-1.5875 -5.5584,-1.492 -9.5299,-1.949 -13.8036,-1.5881 -3.3,0.2787 -8.7,0.7366 -12,1.0176 -3.3,0.2811 -10.725,0.7176 -16.5,0.9702 -5.775,0.2525 -13.425,0.689 -17,0.9699 -11.5395,0.9067 -32.4194,1.0998 -35.3228,0.3267 -1.5525,-0.4134 -5.2647,-2.3725 -8.2492,-4.3535 -7.5896,-5.0377 -11.7525,-5.086 -17.4578,-0.2025 -2.3816,2.0386 -5.1125,3.7065 -6.0685,3.7065 -0.9561,0 -4.084,-2.0022 -6.9508,-4.4493 -6.45343,-5.5085 -11.40053,-6.7902 -15.10003,-3.9121 -4.0892,3.1812 -7.9696,2.2847 -13.5439,-3.1289 -4.2447,-4.1224 -9.242,-4.6894 -13.307,-1.5097 -2.8919,2.262 -8.2495,2.6077 -10.1992,0.6579 -0.7381,-0.7381 -2.4578,-1.9359 -3.8214,-2.6617 -3.496,-1.8608 -7.9794,-6.2446 -7.9794,-7.802 0,-0.7217 -0.3697,-1.0837 -0.8216,-0.8044 -0.4519,0.2792 -1.5725,-0.3692 -2.4902,-1.441 -0.9178,-1.0719 -2.4902,-1.9488 -3.4944,-1.9488 -1.7602,0 -6.0938,-4.242 -10.143,-9.9287 -2.0643,-2.8989 -4.9266,-3.2435 -13.1564,-1.5837 -3.1589,0.6371 -3.9857,0.3558 -6.6723,-2.2705 -2.1006,-2.0534 -3.2741,-4.3711 -3.7251,-7.3574 -0.3622,-2.3978 -1.4097,-5.2726 -2.3277,-6.3884 -1.6521,-2.0079 -7.9954,-5.4713 -10.0207,-5.4713 -0.5771,0 -1.4936,-0.7875 -2.0366,-1.75 -0.7909,-1.4017 -1.2387,-1.5012 -2.2497,-0.5 -3.2578,3.2261 -12.8539,-0.063 -12.8685,-4.4103 0,-1.0118 -0.6783,-3.1286 -1.5,-4.704 -0.8216,-1.5754 -1.4938,-3.453 -1.4938,-4.1725 0,-1.7577 -6.1842,-3.706 -9.2897,-2.9266 -1.3701,0.3439 -3.5915,1.8263 -4.9363,3.2943 -2.4352,2.6582 -5.774,10.3391 -5.774,13.283 0,0.8509 -2.1375,3.06 -4.75,4.9091 -2.6125,1.8492 -6.775,5.1224 -9.25,7.2738 -2.475,2.1514 -6.0554,4.6523 -7.9566,5.5575 -2.291,1.0908 -4.1452,3.0788 -5.4989,5.8957 -1.1233,2.3375 -2.595,4.25 -3.2704,4.25 -0.6754,0 -2.0155,1.2375 -2.9779,2.75 -0.9625,1.5125 -2.0406,2.975 -2.3958,3.25 -1.7924,1.3877 -8.9004,13.5673 -8.9004,15.2507 0,2.6653 -3.0686,7.6363 -5.1147,8.2857 -2.0764,0.659 -3.1131,6.1617 -3.178,16.8688 -0.044,7.2124 0.1702,8.0927 2.4405,10.0455 1.3687,1.1773 2.318,2.652 2.1096,3.2772 -0.2084,0.6252 0.6609,1.6914 1.9318,2.3693 5.9487,3.1731 17.559,17.0836 21.6196,25.9028 2.3698,5.1468 5.1237,9.8253 6.9397,11.7895 0.6867,0.7427 1.4959,2.5564 1.7982,4.0304 0.3024,1.4741 1.6592,6.1279 3.0152,10.3418 1.3561,4.2139 2.8807,9.6139 3.3881,12 2.7286,12.8302 3.1871,14.1753 9.8309,28.8383 1.869,4.125 4.0862,9.525 4.927,12 0.8408,2.475 2.329,5.6291 3.307,7.0092 0.9781,1.38 2.29,4.4093 2.9153,6.7317 0.6254,2.3224 2.4568,7.164 4.0698,10.7591 1.613,3.5951 3.4238,8.3601 4.0239,10.5888 0.6001,2.2287 2.6821,6.5393 4.6267,9.5791 2.8084,4.3903 3.415,6.1752 2.9496,8.6795 -0.3576,1.9242 0,4.2687 0.907,6.0169 0.821,1.5754 1.4928,4.1363 1.4928,5.691 0,1.5547 0.3981,3.0727 0.8846,3.3734 0.4865,0.3007 1.2057,2.6897 1.5982,5.309 0.3924,2.6193 1.5694,6.5343 2.6154,8.7001 2.15,4.4517 2.4226,7.6414 0.7926,9.2714 -0.6101,0.6101 -1.2385,5.3126 -1.3965,10.45 -0.158,5.1375 -0.7086,10.4658 -1.2236,11.8408 -1.1933,3.1859 -0.8959,12.7382 0.4981,16 0.5877,1.375 1.3477,3.175 1.6891,4 0.8407,2.0322 2.8812,5.4904 4.2147,7.1433 1.8551,2.2995 6.1697,18.0004 6.8306,24.8567 0.8414,8.7301 3.2847,24.0255 5.1118,32 0.819,3.575 1.3905,8.3 1.2699,10.5 -0.2135,3.8945 0.7555,8.491 2.0027,9.5 0.3399,0.275 1.9063,2.3993 3.481,4.7208 1.9561,2.8839 2.6798,4.9502 2.2848,6.524 -0.3179,1.2668 0.046,4.9887 0.8092,8.271 0.763,3.2822 1.1919,6.163 0.9532,6.4018 -0.2388,0.2387 0.5318,1.4622 1.7123,2.7188 1.6762,1.7841 2.0202,3.0625 1.5702,5.8351 -0.3825,2.3574 0.048,4.9749 1.2801,7.7895 1.021,2.3314 2.1736,6.489 2.5613,9.239 0.3877,2.75 1.3804,5.7717 2.2059,6.715 1.0093,1.1532 1.2757,2.6272 0.8132,4.5 -0.8162,3.3056 -0.8248,3.5225 -0.5417,13.785 0.1214,4.4 -0.2591,9.2043 -0.8454,10.6762 -0.5864,1.4719 -1.1732,5.024 -1.3042,7.8935 -0.167,3.661 -0.8924,5.9949 -2.432,7.8246 -1.923,2.2854 -2.0928,3.225 -1.3744,7.6066 1.759,10.7278 0.4311,28.3402 -2.346,31.1173 -0.3933,0.3933 -0.7151,2.4697 -0.7151,4.6142 0,2.1445 -0.4735,4.7839 -1.0523,5.8653 -0.5788,1.0815 -1.0623,4.7644 -1.0746,8.1843 -0.017,4.8035 -0.4746,6.7028 -2.0105,8.3493 -1.104,1.1835 -2.0715,3.7387 -2.1754,5.7455 -0.103,1.9878 -0.4122,3.6162 -0.6872,3.6186 -1.4836,0.013 0.024,6.3495 2.1889,9.1967 1.3831,1.8193 3.2136,4.6579 4.0679,6.3079 3.2742,6.3241 7.9384,8.738 19.2432,9.9588 8.2469,0.8906 9.8754,1.2188 12.75,2.5698 1.5125,0.7108 2.75,1.8794 2.75,2.5967 0,0.7174 0.9,1.786 2,2.3747 1.1462,0.6134 2,2.0938 2,3.4678 0,1.5192 -0.7327,2.63 -2,3.0322 -1.1,0.3491 -2,1.0545 -2,1.5674 0,1.2602 -5.7636,1.1766 -12.0655,-0.1749 -4.6328,-0.9935 -5.3624,-0.9091 -7.0925,0.8211 -1.6186,1.6186 -1.7543,2.3867 -0.8445,4.7799 0.5963,1.5683 0.8733,3.4009 0.6155,4.0725 -0.8329,2.1705 7.3324,8.2038 9.3855,6.9349 0.5265,-0.3253 3.1047,0.046 5.7293,0.8256 2.6247,0.7795 5.2222,1.4401 5.7722,1.4681 1.5674,0.08 2.8812,2.7697 2.2087,4.5222 -0.8488,2.2118 -8.4126,5.6832 -12.3831,5.6832 -2.8309,0 -3.5082,0.5013 -4.7755,3.5344 -1.1374,2.7221 -1.2552,4.6184 -0.5125,8.25 0.5304,2.5936 1.0993,6.8598 1.2641,9.4806 0.406,6.457 2.2803,8.1126 9.5175,8.4075 3.1966,0.1302 7.0493,0.7072 8.5615,1.2821 1.5122,0.575 4.2052,1.0454 5.9844,1.0454 5.1992,0 7.5701,4.149 4.0434,7.0759 -2.6757,2.2206 -14.2979,1.6402 -19.7207,-0.985 -6.4245,-3.11 -8.2718,-2.5614 -7.8765,2.3393 0.3678,4.559 -1.4604,9.5698 -3.4916,9.5698 -0.7908,0 -1.1577,0.4532 -0.8153,1.0071 0.3423,0.5538 -0.081,1.277 -0.941,1.607 -0.8599,0.3299 -1.5634,1.2115 -1.5634,1.959 0,1.392 -2.0759,6.5878 -4.7651,11.9269 -0.8311,1.65 -3.249,5.1057 -5.373,7.6794 -2.1241,2.5737 -3.8619,5.0955 -3.8619,5.604 0,0.5085 -1.169,2.186 -2.5978,3.7277 -2.5348,2.735 -2.5726,2.9753 -1.5556,9.896 0.5732,3.9011 1.784,10.2429 2.6905,14.0929 1.3784,5.8536 1.4595,8.0552 0.4952,13.4433 -0.6342,3.5438 -1.4508,6.9188 -1.8146,7.5 -0.3638,0.5812 -0.7643,1.5067 -0.89,2.0567 -0.1257,0.55 -0.9758,3.25 -1.889,6 -2.533,7.6272 -3.6038,11.4405 -4.1042,14.6154 -0.2509,1.592 -1.5033,4.7382 -2.7832,6.9915 -1.9584,3.4479 -2.1387,4.4598 -1.138,6.3886 0.7217,1.3912 1.1158,6.0563 1.0028,11.8711 -0.1384,7.1224 0.1691,9.8742 1.1989,10.7288 0.7617,0.6322 1.385,1.9678 1.385,2.968 0,1.0002 0.4573,2.1012 1.0163,2.4467 0.559,0.3454 0.7946,0.9869 0.5236,1.4254 -0.271,0.4384 0.4148,1.6185 1.524,2.6223 1.8615,1.6846 5.8802,9.4355 8.8895,17.1449 1.1114,2.8475 1.0094,3.5408 -0.9197,6.25 -1.2876,1.8083 -1.6858,3.0473 -0.9793,3.0473 0.8086,0 0.876,0.4009 0.2101,1.25 -2.6288,3.3515 -1.0241,18.5777 2.2151,21.019 0.6465,0.4872 0.3547,1.2784 -0.7962,2.1589 -2.2751,1.7408 -2.2751,2.3984 0,4.1638 1.7471,1.3557 1.7401,1.4765 -0.1838,3.159 -3.5901,3.1395 -5.1867,6.6438 -5.8908,12.9293 -0.3808,3.3991 -1.39,7.5788 -2.2429,9.2883 -0.8528,1.7095 -1.2981,3.766 -0.9896,4.5699 0.3085,0.804 0.076,1.4618 -0.5161,1.4618 -0.6475,0 -0.8285,0.9902 -0.4538,2.483 0.3647,1.453 -0.2056,4.8408 -1.3748,8.1676 -1.8876,5.3703 -1.9022,5.7538 -0.2648,6.9357 5.6072,4.0476 5.7612,4.2506 4.6314,6.1051 -0.7284,1.1956 -2.5748,1.9161 -5.4476,2.1258 -3.0462,0.2223 -5.02,1.0446 -6.6004,2.75 -1.2401,1.338 -2.82,2.4328 -3.511,2.4328 -1.2523,0 -6.3325,5.0983 -14.804,14.8569 -2.4556,2.8287 -5.1556,5.1475 -6,5.1528 -0.8444,0.01 -3.5537,1.6141 -6.0208,3.5751 -5.3904,4.2845 -6.5656,7.6158 -7.4807,21.2048 -0.3596,5.3407 -0.864,10.6104 -1.1208,11.7104 -1.3847,5.93 -1.0865,11.5703 0.7219,13.6554 2.7631,3.1859 2.6227,15.3296 -0.2408,20.8234 -1.1583,2.2223 -2.6472,4.3736 -3.3087,4.7808 -0.6615,0.4072 -1.7934,2.2029 -2.5153,3.9904 -0.722,1.7875 -1.708,3.25 -2.1913,3.25 -0.4833,0 -0.8787,0.8694 -0.8787,1.9319 0,1.0626 -1.3596,2.9001 -3.0214,4.0833 -1.6618,1.1833 -3.6243,3.5943 -4.3611,5.3578 -0.7368,1.7635 -2.1511,4.0177 -3.1428,5.0094 -1.7294,1.7294 -1.731,2.0034 -0.04,6.7056 1.3497,3.7533 1.5984,6.3205 1.061,10.9509 -0.4599,3.9624 -0.2889,7.0458 0.4959,8.9404 0.9307,2.2469 0.9306,3.9662 -6e-4,7.7064 -1.4466,5.8101 -1.463,13.2421 -0.032,14.6727 0.5729,0.5729 1.0416,1.8254 1.0416,2.7834 0,0.958 2.1952,4.2504 4.8783,7.3165 5.5502,6.3425 7.0313,10.8791 4.4743,13.7046 -0.9144,1.0104 -2.2837,1.8371 -3.0428,1.8371 -0.7591,0 -2.4816,0.7217 -3.8279,1.6038 -1.9865,1.3016 -3.048,1.3945 -5.634,0.493 -2.6848,-0.9359 -3.4351,-0.8342 -4.7671,0.6462 -1.7096,1.9001 -4.0808,7.9574 -4.0808,10.4244 0,0.8389 -0.7715,3.057 -1.7145,4.929 -0.943,1.872 -1.8174,4.0633 -1.9432,4.8696 -0.3432,2.1995 1.5916,4.0171 4.0588,3.8129 2.3596,-0.1953 7.5627,3.0824 7.4944,4.7211 -0.023,0.55 -0.7963,2.1757 -1.7186,3.6127 -0.9223,1.437 -3.4769,5.5868 -5.6769,9.2219 -3.0777,5.0852 -4.8694,6.9616 -7.7702,8.1373 -4.932,1.9989 -4.8547,2.0124 -8.418,-1.4713 -2.6776,-2.6178 -3.2277,-2.8069 -4.3239,-1.4861 -0.8163,0.9837 -1.0474,3.0349 -0.6601,5.8605 0.3916,2.8569 0.1474,4.9604 -0.7122,6.136 -1.2306,1.683 -1.5039,1.6912 -4.6155,0.139 -4.567,-2.2784 -4.9976,-2.1772 -10.0001,2.35 -2.431,2.2 -5.0705,4 -5.8656,4 -2.7452,0 -16.1344,11.7192 -16.1344,14.1221 0,2.02 -4.7405,7.2515 -10.5,11.5875 -9.4623,7.1238 -10.4627,9.074 -11.4869,22.3936 -0.6358,8.2688 -1.6014,13.3093 -3.5182,18.3649 -2.7085,7.1439 -3.6131,18.4576 -1.9825,24.7949 0.9802,3.8093 -0.9068,5.737 -5.6158,5.737 -3.2817,0 -3.9523,0.3737 -4.486,2.5 -0.3451,1.375 -0.9937,2.5 -1.4415,2.5 -0.4477,0 -1.3569,1.6875 -2.0205,3.75 -0.6636,2.0625 -1.7887,4.875 -2.5002,6.25 -0.7116,1.375 -2.2368,4.525 -3.3894,7 -2.7427,5.8896 -4.0929,7.5586 -6.8128,8.4219 -1.2354,0.3921 -2.2462,1.1591 -2.2462,1.7045 0,0.5454 -0.399,0.745 -0.8867,0.4436 -0.4877,-0.3014 -1.4586,0.1411 -2.1576,0.9834 -0.9627,1.1599 -0.9901,1.8122 -0.1133,2.689 0.6367,0.6367 1.1576,1.8866 1.1576,2.7775 0,1.946 4.6147,7.2284 7.75,8.8714 2.7442,1.438 3.0267,5.7986 0.5,7.7167 -0.9625,0.7306 -3.1453,1.3427 -4.8508,1.3602 -1.7054,0.018 -4.4599,0.5056 -6.1212,1.0847 -2.8915,1.008 -2.9998,1.2533 -2.5379,5.75 0.2653,2.5834 1.3464,6.2091 2.4023,8.0571 2.772,4.8511 1.3703,6.0091 -6.6808,5.519 -6.4063,-0.39 -6.5046,-0.3567 -8.4678,2.8632 -1.0925,1.7918 -1.988,4.0078 -1.9901,4.9245 0,0.9166 -0.3515,1.8166 -0.7766,2 -0.425,0.1833 -2.225,2.548 -4,5.2547 -2.4567,3.7467 -3.2271,6.021 -3.2271,9.5275 0,6.6191 -1.8876,8.7316 -9.0634,10.1434 -3.9948,0.7859 -6.3482,1.8082 -7.0103,3.0454 -0.5482,1.0243 -1.5433,1.8755 -2.2115,1.8916 -1.9932,0.048 -7.2302,5.3634 -8.4007,8.5262 -0.5993,1.6195 -1.6153,4.8808 -2.2578,7.2474 -1.4067,5.1812 -3.3743,6.1864 -6.4512,3.2958 -3.8617,-3.6278 -14.115,-1.8456 -15.2527,2.6513 -0.3131,1.2375 -1.0186,2.25 -1.5678,2.25 -0.5492,0 -0.7477,0.6537 -0.4411,1.4528 0.3291,0.8575 -0.6626,2.4793 -2.4201,3.9582 -2.2546,1.8971 -2.8652,3.1256 -2.5146,5.0589 0.3214,1.7727 -1.3082,6.0154 -5.3297,13.8755 -3.6449,7.124 -6.023,13.1449 -6.4137,16.2383 -1.0276,8.1345 -3.1338,16.3094 -4.6949,18.2222 -3.099,3.7972 -5.2452,8.6141 -6.4561,14.4902 -1.1505,5.5825 -1.0892,6.4026 0.7207,9.6524 1.0879,1.9533 2.3281,4.0015 2.756,4.5515 0.4279,0.55 1.0824,2.4248 1.4545,4.1662 0.5064,2.3701 0.2725,3.3922 -0.9302,4.0652 -1.3756,0.7699 -1.4521,1.6088 -0.5321,5.8339 0.591,2.7141 2.1482,7.6347 3.4604,10.9347 8.7416,21.9839 7.8332,30.7918 -1.7791,17.25 -2.8415,-4.0032 -4.7031,-7.8677 -5.1783,-10.75 -0.408,-2.475 -1.5844,-5.5732 -2.6141,-6.8849 -1.0297,-1.3116 -1.8722,-2.9361 -1.8722,-3.6099 0,-0.6738 -1.0981,-2.0497 -2.4401,-3.0575 -1.3421,-1.0079 -2.256,-2.1305 -2.0308,-2.4947 0.2251,-0.3643 -0.634,-1.6424 -1.9091,-2.8402 -1.8825,-1.7686 -2.7696,-1.9903 -4.7192,-1.1796 -4.8116,2.001 -9.1234,7.4661 -10.7985,13.6869 -1.3008,4.8306 -11.3004,15.1926 -18.817,19.4988 -4.2476,2.4335 -5.3318,3.6123 -5.8468,6.3571 -0.3812,2.0323 -2.0821,4.7367 -4.2853,6.8138 -2.0093,1.8942 -4.4932,4.6706 -5.5198,6.1698 -1.0266,1.4991 -3.1925,3.1879 -4.8131,3.7529 -2.9665,1.0341 -7.8203,7.4069 -7.8203,10.2676 0,1.514 -1.004,1.897 -4.1614,1.5872 -0.9138,-0.09 -1.9528,0.3085 -2.309,0.8849 -0.3562,0.5763 -1.4211,1.0478 -2.3664,1.0478 -1.8785,0 -3.8166,2.0506 -6.2134,6.5742 -1.6378,3.0911 -1.2322,2.9935 -13.6998,3.2977 -3.9431,0.096 -5.25,0.5015 -5.25,1.6281 0,0.825 -0.4342,1.5 -0.9648,1.5 -1.5307,0 -3.2751,4.0196 -3.4375,7.921 -0.254,6.1025 -3.8595,11.1305 -7.9295,11.0583 -0.6425,-0.012 -4.0932,-1.4619 -7.6682,-3.2232 z m 108.0777,-2128.38931 c 1.4612,-1.46124 2.0004,-3.78868 2.3454,-10.12336 0.4723,-8.67253 0.9224,-10.24343 2.935,-10.24343 1.3407,0 3.6419,5.42714 3.6419,8.58886 0,2.91201 4.7946,9.41114 6.9429,9.41114 1.029,0 3.645,-2.1375 5.8133,-4.75 4.0556,-4.88628 5.1163,-8.17961 5.8777,-18.25 0.5506,-7.28227 1.9288,-8.27825 10.5338,-7.61254 5.0891,0.39371 6.9529,0.17216 7.8724,-0.93581 0.6626,-0.79841 1.7729,-1.45165 2.4673,-1.45165 0.6944,0 1.9328,-1.02291 2.752,-2.27312 1.4023,-2.14015 11.7567,-6.11625 15.6863,-6.02354 1.5695,0.037 5.0542,-2.30403 10.5543,-7.09026 1.65,-1.43585 3.4841,-2.61119 4.0757,-2.61186 0.5916,-6.7e-4 2.1599,-1.15529 3.485,-2.56582 1.3251,-1.41053 3.7661,-3.22546 5.4243,-4.03317 3.9065,-1.90285 5.2909,-3.05995 9.454,-7.90223 1.8914,-2.2 3.5662,-3.90133 3.7219,-3.78073 0.1556,0.12059 1.7459,-1.11691 3.5339,-2.75 1.788,-1.6331 3.6006,-2.96927 4.0281,-2.96927 0.4274,0 0.7771,-0.52707 0.7771,-1.17126 0,-0.64419 0.6604,-1.90095 1.4675,-2.79279 0.8071,-0.89184 2.0671,-3.96483 2.8001,-6.82886 1.6548,-6.4662 2.9002,-7.89646 5.0253,-5.77138 3.0936,3.09363 13.0702,1.34405 17.4796,-3.06538 0.7537,-0.75368 1.7394,-1.37033 2.1905,-1.37033 0.4511,0 1.1095,-1.2375 1.463,-2.75 1.3501,-5.77564 2.8243,-8.1416 5.6966,-9.1429 3.2627,-1.13738 5.8774,-0.54154 5.8774,1.33937 0,2.3891 4.6523,3.56763 9.7364,2.46644 5.7046,-1.23559 9.0702,-1.24514 11.7636,-0.0334 6.1034,2.74593 17.7335,3.43475 27,1.59914 5.7678,-1.14255 14.6648,-7.6273 17.0997,-12.46337 1.5253,-3.02954 1.9403,-4.86464 1.2801,-5.66014 -0.646,-0.77843 -0.5943,-1.41359 0.1527,-1.87526 0.6533,-0.40377 0.8641,-1.75578 0.5,-3.20662 -1.1763,-4.68671 4.5601,-8.27652 7.5222,-4.70737 1.9265,2.32128 6.4776,4.43406 9.5512,4.43406 1.4879,0 4.1386,1.09324 5.8905,2.42943 4.4564,3.39912 8.1118,2.77918 12.1793,-2.06562 1.7841,-2.12509 3.5994,-3.88411 4.0341,-3.90892 7.2707,-0.41505 15.0341,-4.15207 17.9418,-8.63655 6.7187,-10.36205 11.3484,-18.46066 11.3484,-19.85135 0,-0.8716 0.6403,-2.45824 1.4228,-3.52586 1.1984,-1.63499 2.6573,-1.94113 9.25,-1.94113 8.6725,0 12.1945,-1.6607 14.0722,-6.6354 0.9619,-2.54823 0.8447,-2.6746 -3.0591,-3.29884 -6.153,-0.98389 -10.4194,-3.36762 -11.1357,-6.22175 -0.9991,-3.98081 0.126,-5.78816 5.1109,-8.21 3.9327,-1.91065 5.6002,-2.15813 10.7938,-1.60194 5.034,0.5391 6.3897,0.36012 7.5116,-0.99172 2.3398,-2.81926 4.5746,-3.53236 7.9955,-2.55126 2.6792,0.76839 3.8715,0.50981 7.1277,-1.54571 3.4597,-2.184 3.9103,-2.91915 3.9103,-6.3792 0,-3.96399 -3.8251,-10.06418 -6.3107,-10.06418 -2.3537,0 -14.6893,4.31577 -14.6893,5.13924 0,1.19835 -3.7449,1.08247 -4.5,-0.13924 -0.3399,-0.55 -2.504,-1.00168 -4.809,-1.00374 -4.2053,-0.004 -10.691,-3.02582 -10.691,-4.98156 0,-0.55809 -0.6269,-1.0147 -1.393,-1.0147 -3.2008,0 -2.6118,-3.30316 1.2277,-6.88482 7.4431,-6.94337 7.9227,-11.08604 1.6357,-14.12951 -2.256,-1.09212 -5.1973,-1.98316 -6.5361,-1.98009 -3.5622,0.008 -10.3189,2.03822 -11.169,3.35574 -0.5342,0.82798 -0.7389,0.80617 -0.75,-0.0799 -0.01,-0.67023 -0.6448,-0.97706 -1.4141,-0.68182 -0.7694,0.29523 -1.6967,0.0549 -2.0607,-0.53409 -0.4684,-0.7578 -1.2424,-0.76021 -2.6474,-0.008 -4.997,2.6743 -12.2474,-1.13148 -8.7736,-4.60529 0.8721,-0.87208 2.2145,-1.72476 2.9831,-1.89482 2.9665,-0.65642 7.8974,-3.03383 7.8974,-3.80772 0,-0.44668 -0.675,-1.07117 -1.5,-1.38775 -0.825,-0.31659 -1.5,-1.09422 -1.5,-1.72807 0,-1.63345 -3.6447,-3.70712 -5.3593,-3.04917 -0.7911,0.30358 -1.7397,0.0645 -2.1079,-0.53137 -0.9559,-1.5467 -6.501,-3.7086 -11.6347,-4.53612 -4.6523,-0.75019 -12.8981,-4.9434 -12.8981,-6.5593 0,-0.52682 -0.8449,-0.95785 -1.8776,-0.95785 -1.0326,0 -2.4461,-0.68516 -3.1411,-1.52258 -0.7313,-0.88106 -2.0489,-1.27334 -3.1274,-0.93105 -1.1443,0.36317 -2.0798,0.0285 -2.4234,-0.86691 -0.3321,-0.86541 -1.3466,-1.25264 -2.4951,-0.95232 -1.0839,0.28344 -1.9354,0.001 -1.9354,-0.64189 0,-0.63141 -0.7875,-1.42595 -1.75,-1.76565 -3.854,-1.3602 -6.25,-4.60088 -6.25,-8.45345 0,-2.84107 -0.6834,-4.41888 -2.7398,-6.32568 -1.5069,-1.39726 -3.3371,-2.54047 -4.0671,-2.54047 -1.671,0 -8.1931,-6.83261 -8.1931,-8.58318 0,-2.92869 3.8201,-4.12799 11.5657,-3.63091 7.0708,0.45378 7.5863,0.34885 8.1092,-1.65066 0.4474,-1.71078 1.3186,-2.13525 4.3827,-2.13525 2.1034,0 4.0854,-0.42241 4.4045,-0.93868 0.7109,-1.1502 16.0584,-1.28793 18.3713,-0.16486 0.9166,0.4451 3.2416,1.56646 5.1666,2.49192 1.925,0.92546 5.2717,3.22148 7.4371,5.10226 4.5048,3.91259 12.8956,8.50936 15.5327,8.50936 0.9819,0 2.2988,-0.61875 2.9265,-1.375 0.6276,-0.75625 2.3162,-1.375 3.7525,-1.375 2.5028,0 8.3512,-4.94481 8.3512,-7.06091 0,-0.50565 0.8046,-1.99256 1.7879,-3.30423 0.9834,-1.31167 2.7881,-5.30986 4.0104,-8.88486 2.1541,-6.3 2.1736,-6.71538 0.6344,-13.5 -0.8735,-3.85 -1.9813,-9.17108 -2.4619,-11.82463 -1.3256,-7.31857 -3.9139,-11.11168 -7.8434,-11.49425 -2.8099,-0.27355 -4.011,0.42108 -8.4514,4.88752 -6.8634,6.90374 -10.352,8.73965 -18.4431,9.706 -9.881,1.18012 -19.2329,-1.12071 -19.2329,-4.73186 0,-1.86056 7.4615,-8.41971 10.774,-9.47106 1.2243,-0.38857 2.2329,-1.46367 2.2413,-2.38911 0.012,-1.26632 0.2189,-1.36164 0.8383,-0.38528 0.6653,1.04883 1.0485,1.0255 2.0007,-0.12179 0.9645,-1.16212 0.6089,-1.53289 -1.9633,-2.04733 -1.7275,-0.34552 -4.3222,-0.63029 -5.766,-0.63284 -2.734,-0.005 -10.5765,-2.99372 -17.875,-6.81237 -6.5878,-3.44682 -5.5606,-5.99777 3.25,-8.07076 11.2041,-2.63616 13.1267,-4.74415 9.5722,-10.49542 -1.1397,-1.84409 -2.0722,-4.11942 -2.0722,-5.05628 0,-4.09469 -5.1638,-6.56054 -13.7385,-6.56054 -5.8669,0 -7.5191,0.41938 -11.3157,2.87231 -4.5629,2.94797 -6.8862,5.0004 -10.5339,9.30591 -2.2462,2.6512 -1.8477,5.57771 1.2211,8.96875 2.8467,3.14554 1.3231,6.12779 -4.633,9.06892 -3.025,1.49373 -6.6294,2.93768 -8.0099,3.20878 -1.4345,0.28171 -4.4224,2.78221 -6.9738,5.83614 -4.1025,4.91056 -7.4705,7.8813 -15.0093,13.23919 -2.8651,2.03624 -6.007,6.42794 -6.007,8.39658 0,0.59839 1.35,2.29085 3,3.761 1.65,1.47016 3,3.26506 3,3.98867 0,1.76082 -4.2614,2.7353 -8.7653,2.00441 -2.8263,-0.45865 -4.6306,-0.0226 -7.9457,1.92012 -2.3589,1.38244 -4.289,2.94456 -4.289,3.47137 0,0.52682 -0.4843,0.95785 -1.0763,0.95785 -0.592,0 -3.915,2.92371 -7.3844,6.49713 -3.4694,3.57342 -8.0476,7.30409 -10.1737,8.29039 -9.3281,4.32732 -17.3656,10.72891 -17.3656,13.83113 0,2.53585 -6.1997,8.38135 -8.8893,8.38135 -1.0008,0 -3.208,1.4625 -4.9049,3.25 -14.833,15.62535 -21.6069,21.75 -24.0557,21.75 -0.5409,0 -1.1349,0.45446 -1.3201,1.00991 -0.1851,0.55545 -1.3906,1.21289 -2.6789,1.46099 -2.8805,0.55474 -10.3472,4.85554 -12.1033,6.97146 -0.711,0.8567 -1.8001,1.56115 -2.4202,1.56544 -0.6202,0.004 -1.648,1.12985 -2.2841,2.50123 -0.8753,1.88722 -0.8753,2.33837 0,1.85564 0.6361,-0.35078 -0.6026,1.11117 -2.7527,3.24877 -2.1501,2.13761 -5.3001,6.14753 -7,8.91093 -1.6999,2.7634 -3.5408,5.74274 -4.0908,6.62074 -0.55,0.87801 -2.9334,4.13866 -5.2965,7.24588 -2.3631,3.10723 -4.024,6.0904 -3.691,6.62926 0.3331,0.53886 0.2218,0.97975 -0.2472,0.97975 -1.1682,0 -3.8257,11.84068 -3.4364,15.31103 0.2058,1.8345 -0.568,3.96918 -2.2275,6.1449 -2.5106,3.29159 -2.5235,3.4018 -1.0178,8.68897 0.8388,2.94531 1.759,6.26767 2.0449,7.38303 0.3279,1.27953 -0.2457,2.72065 -1.5544,3.90499 -1.1407,1.03238 -2.0806,2.59481 -2.0887,3.47207 -0.019,2.06139 -2.8667,10.24706 -4.0692,11.69597 -2.0291,2.44488 -4.5377,11.94234 -3.8033,14.39904 0.4111,1.375 1.2829,4.525 1.9374,7 0.6545,2.475 2.3543,6.75 3.7773,9.5 3.8173,7.37733 3.5326,13.10834 -1.1187,22.51616 -2.8312,5.72631 -4.6526,8.09496 -7.6488,9.94669 -4.1983,2.59473 -4.6311,3.26236 -8.1261,12.53715 -1.2436,3.3 -2.5943,6.45 -3.0017,7 -0.4074,0.55 -0.8963,2.08375 -1.0865,3.40832 -0.3248,2.26193 -5.4312,5.93094 -12.6214,9.06862 -1.2516,0.54618 -2.5373,1.6748 -2.857,2.50805 -0.3198,0.83326 -1.2082,1.51501 -1.9744,1.51501 -0.7661,0 -1.393,0.3421 -1.393,0.76022 0,0.41812 -1.0246,1.88062 -2.2768,3.25 -5.5997,6.12345 -9.7124,17.98978 -6.235,17.98978 0.8315,0 1.5118,0.40787 1.5118,0.90638 0,0.49851 -0.7875,0.72508 -1.75,0.5035 -3.2783,-0.75472 -7.7151,4.62213 -11.2826,13.67292 -2.9455,7.47261 -2.1517,8.9172 4.9,8.9172 3.1529,0 6.2124,0.47976 6.7987,1.06614 0.5864,0.58638 2.5889,1.30367 4.45,1.59399 1.8612,0.29031 3.5313,0.67043 3.7114,0.8447 1.0312,0.99768 7.6425,-0.53043 9.2502,-2.13804 z m -218.323,-9.32904 c -0.1071,-0.55525 1.7827,-5.21883 3.3529,-8.27418 0.4908,-0.95504 0.8924,-2.50104 0.8924,-3.43555 0,-2.20291 3.8844,-6.32802 5.9587,-6.32802 0.8855,0 2.4089,-1.3523 3.3853,-3.00512 0.9763,-1.65282 2.9858,-3.64237 4.4656,-4.42124 2.875,-1.5133 6.1904,-5.0029 6.1904,-6.51573 0,-3.74301 -10.6976,-16.05791 -13.9491,-16.05791 -2.759,0 -9.0509,-4.72549 -9.0509,-6.79769 0,-0.85817 0.5207,-3.00023 1.1571,-4.76013 0.9427,-2.60713 0.8517,-3.96301 -0.4916,-7.32022 -1.6303,-4.07441 -2.6059,-5.36866 -11.9467,-15.84802 -2.6296,-2.9502 -4.4891,-5.83664 -4.132,-6.41432 0.357,-0.57768 0.073,-2.12748 -0.632,-3.44399 -1.8089,-3.37999 0.4879,-21.0371 3.6799,-28.29006 3.4467,-7.83172 3.1377,-10.09801 -2.1384,-15.68365 -2.477,-2.62233 -4.295,-4.97659 -4.0399,-5.23168 0.2551,-0.2551 -0.2491,-1.84239 -1.1204,-3.52733 -1.5127,-2.92534 -1.4827,-3.1457 0.6658,-4.88542 1.9146,-1.55039 2.1527,-2.42955 1.5979,-5.89934 -0.4976,-3.1117 -0.1927,-4.82598 1.2872,-7.2378 2.8154,-4.58842 2.3367,-15.19613 -1.0452,-23.16035 -1.4013,-3.3 -3.3431,-8.18173 -4.315,-10.84828 -1.3828,-3.79369 -2.7624,-5.47945 -6.3427,-7.75 -2.5166,-1.59595 -5.5803,-2.90172 -6.8084,-2.90172 -3.4551,0 -5.6643,-2.80668 -4.9642,-6.30685 0.328,-1.64024 0.095,-3.58363 -0.5196,-4.32358 -0.6136,-0.73925 -0.8524,-2.02975 -0.5309,-2.86777 0.3216,-0.83802 0.3225,-2.8346 0,-4.43684 -0.4665,-2.33262 -1.607,-3.36561 -5.7228,-5.18358 -2.8271,-1.24873 -5.4606,-2.18858 -5.8522,-2.08856 -0.3916,0.10002 -3.6602,-2.73744 -7.2636,-6.30548 -3.6012,-3.56804 -6.9553,-6.48734 -7.4515,-6.48734 -0.4962,0 -2.6165,-1.80921 -4.7119,-4.02047 -2.0954,-2.21126 -4.3715,-3.80495 -5.0579,-3.54154 -0.6865,0.26342 -1.6252,-0.19496 -2.0862,-1.01862 -0.4609,-0.82366 -3.4197,-2.78112 -6.5751,-4.34992 -5.026,-2.49884 -6.1679,-2.72015 -9.213,-1.78556 -4.5362,1.39218 -5.9179,0.026 -5.9547,-5.88758 -0.015,-2.47712 -0.4654,-4.81716 -1,-5.20008 -0.5346,-0.38293 -1.1199,-1.37123 -1.3008,-2.19623 -0.4667,-2.12978 -3.2372,-5 -4.8262,-5 -0.7397,0 -1.3485,-0.3375 -1.3528,-0.75 -0.01,-0.92425 -4.8748,-3.25 -6.7986,-3.25 -0.9202,0 -1.1791,-0.59537 -0.7477,-1.71952 0.3629,-0.94573 0.3665,-1.42618 0.01,-1.06766 -1.37934,1.37939 -8.4479,-3.5609 -13.94715,-9.74784 -3.16262,-3.55574 -6.22162,-6.46498 -6.79988,-6.46498 -0.57826,0 -1.88865,-0.75771 -2.91197,-1.6838 -2.01903,-1.8272 -1.36418,-2.05854 -15.21451,5.37477 -2.24531,1.20504 -4.77989,2.21754 -5.63239,2.25 -1.83234,0.0698 -3.95,-1.83784 -3.95,-3.55823 0,-1.20238 11.41681,-9.38274 13.0949,-9.38274 0.47685,0 1.15748,-1.15736 1.51251,-2.57192 0.50921,-2.02888 -0.0183,-3.25683 -2.49854,-5.81575 -1.72922,-1.78411 -2.83613,-3.55174 -2.45979,-3.92808 0.37634,-0.37634 -0.47574,-0.68425 -1.89352,-0.68425 -2.6339,0 -3.73679,-1.09048 -10.75556,-10.63458 -5.3567,-7.28401 -10.91466,-12.61215 -12.51541,-11.99788 -0.78129,0.29981 -1.68651,0.11477 -2.01158,-0.41121 -0.32508,-0.52598 -1.81436,-0.95633 -3.30952,-0.95633 -3.73429,0 -11.23282,-5.24821 -9.7123,-6.79762 0.37911,-0.38631 3.47018,-1.45121 6.86905,-2.36645 4.68209,-1.26078 5.69506,-1.83005 4.17976,-2.34894 -1.1,-0.37669 -3.575,-2.665 -5.5,-5.08513 -1.925,-2.42014 -5.1875,-6.23733 -7.25,-8.48266 -2.0625,-2.24532 -3.75,-4.54071 -3.75,-5.10086 0,-0.56016 -1.7787,-4.76231 -3.95267,-9.33813 -5.28416,-11.12224 -10.69877,-16.31354 -17.01525,-16.31354 -2.47101,0 -4.92775,0.26885 -5.45943,0.59745 -0.53168,0.32859 -3.01553,0.48902 -5.51967,0.35649 -3.93369,-0.20819 -4.99504,0.19142 -7.80298,2.93787 -1.7875,1.74836 -3.2875,3.68794 -3.33333,4.31018 -0.0458,0.62224 -0.19563,2.14384 -0.33288,3.38134 -0.25046,2.25822 0.0489,2.39543 5.87214,2.69157 3.73104,0.18974 5.42073,5.16533 5.45339,16.05843 0.0165,5.5 -0.12666,11.575 -0.31811,13.5 -0.24011,2.41423 0.24475,4.1512 1.56295,5.59915 1.47592,1.6212 1.70117,2.64581 0.98931,4.5 -1.2988,3.383 -7.94859,9.90085 -10.10126,9.90085 -0.57322,0 -1.04221,0.45 -1.04221,1 0,0.55 -0.675,1 -1.5,1 -0.825,0 -1.5,0.68846 -1.5,1.52992 0,0.84145 -2.25,3.83985 -5,6.66309 -3.54804,3.64254 -5,5.93324 -5,7.8883 0,5.808 -1.51016,7.07029 -13.04857,10.90683 -18.29198,6.08212 -27.39705,12.74496 -24.90145,18.22221 1.02626,2.25239 6.90232,5.90912 11.70002,7.28103 2.8575,0.81711 2.94599,4.06577 0.15148,5.56135 -1.15419,0.6177 -5.25096,1.27331 -9.10395,1.45692 -7.66721,0.36536 -13.80468,2.24986 -11.65478,3.57857 2.184,1.34979 -1.93707,4.91178 -5.68273,4.91178 -4.98656,0 -6.5403,3.23034 -6.63195,13.78831 -0.0816,9.40142 1.81107,15.84031 4.95353,16.85186 0.94512,0.30423 3.0684,1.1513 4.7184,1.88239 8.94248,3.96226 10.72739,4.57512 12.28958,4.21973 3.35036,-0.76221 6.7523,2.00397 9.13147,7.42495 1.28724,2.93302 2.84411,6.42891 3.4597,7.76866 0.61559,1.33974 3.25675,4.67248 5.86925,7.40609 2.6125,2.73361 4.75,5.48513 4.75,6.11449 0,1.95901 10.06373,12.54352 11.92635,12.54352 2.53358,0 7.83642,-2.82322 9.34303,-4.97421 0.7073,-1.00981 2.17354,-1.99121 3.25831,-2.1809 2.60226,-0.45505 3.1169,4.1926 1.20018,10.83885 -1.61221,5.59037 -0.91425,10.22032 2.16945,14.39125 1.15647,1.56421 2.10268,3.34367 2.10268,3.95434 0,3.5971 12.00875,16.95704 15.25,16.96589 0.9625,0.003 1.75,0.67978 1.75,1.50478 0,0.825 0.36515,1.5 0.81144,1.5 0.44629,0 1.89543,1.00989 3.22031,2.24421 9.54879,8.89605 21.89194,12.54149 25.86237,7.63822 1.54096,-1.90301 2.14391,-2.09576 3.37075,-1.07757 0.82176,0.682 1.75455,2.54223 2.07287,4.13385 0.78522,3.92609 11.68431,14.6157 15.72637,15.42411 1.69711,0.33942 6.31445,2.12089 10.26077,3.95882 6.22212,2.89785 8.297,3.35875 15.62178,3.47016 8.32482,0.12663 10.41405,0.60763 18.79244,4.32657 2.33151,1.0349 5.07426,1.88163 6.09501,1.88163 1.02075,0 2.71316,0.95837 3.76089,2.12971 2.4678,2.75893 8.994,6.89202 12.4456,7.88193 2.1486,0.61621 3.2506,0.27365 5.3338,-1.65795 3.0579,-2.83546 3.1148,-3.18705 1.1318,-6.98938 -1.9146,-3.67097 -1.8997,-6.35746 0.05,-9.1418 2.047,-2.92252 3.8539,-2.81152 5.2828,0.32454 1.4564,3.19638 1.4693,5.68104 0.046,8.80496 -0.8511,1.86787 -0.7474,4.24658 0.4386,10.06247 1.4349,7.03611 2.0531,8.19988 8.1146,15.2755 3.6087,4.21253 6.5613,7.97403 6.5613,8.35888 0,0.77475 4.2507,5.84212 7.7621,9.25349 10.8024,10.49444 14.2379,14.04187 14.2379,14.70169 0,0.42244 1.5589,1.50784 3.4643,2.41199 1.9053,0.90415 4.0428,2.44547 4.75,3.42515 2.0178,2.79544 3.9035,3.58218 4.8822,2.03694 0.6321,-0.99796 0.8771,-1.0333 0.8882,-0.12812 0.01,0.6875 1.1633,1.25 2.5663,1.25 3.4879,0 5.6502,-5.29561 6.1156,-14.97734 0.3724,-7.74621 1.8506,-10.80565 4.6936,-9.71468 2.0637,0.79191 3.8364,7.45614 2.5986,9.769 -0.5273,0.98535 -0.9588,3.59183 -0.9588,5.79218 0,2.20035 -0.5318,5.26744 -1.1818,6.81574 -1.6176,3.8529 -1.867,6.44831 -0.8473,8.8151 0.4739,1.1 1.4375,4.10317 2.1412,6.67371 0.7037,2.57054 2.6013,6.17054 4.217,8 1.6156,1.82946 3.5372,4.73785 4.2703,6.46309 1.4131,3.32565 7.297,9.40819 10.1791,10.52275 1.9763,0.76426 6.1309,0.67959 5.9762,-0.1218 z m -289.355,-359.13749 c 2.30896,-2.00762 2.3512,-2.25987 0.96278,-5.75 -0.79867,-2.00764 -1.97368,-4.69206 -2.61113,-5.96536 -0.84539,-1.68869 -0.86283,-2.771 -0.0644,-4 1.73305,-2.66776 6.24256,-1.69919 9.97368,2.14219 2.41689,2.4883 4.02202,3.32295 5.97763,3.10828 2.76088,-0.30307 6.68827,-4.17292 8.40527,-8.28214 0.53932,-1.29072 1.84403,-2.57256 2.89937,-2.84854 2.83772,-0.74208 3.27356,-2.6304 3.5902,-15.55469 0.22991,-9.3845 0.0139,-11.75 -1.07292,-11.75 -0.74842,0 -1.81945,-0.7875 -2.38005,-1.75 -0.56061,-0.9625 -1.03328,-1.3 -1.0504,-0.75 -0.0171,0.55 -1.2456,1.07049 -2.72997,1.15664 -1.67852,0.0974 -3.66307,1.32952 -5.24929,3.25901 -2.9141,3.54474 -5.5623,3.8761 -13.83251,1.73084 -2.86986,-0.74444 -5.21793,-0.96944 -5.21793,-0.5 0,0.46943 -0.46583,0.85351 -1.03518,0.85351 -0.56935,0 -2.21193,0.77103 -3.65017,1.7134 -1.43824,0.94237 -3.25736,1.80769 -4.04249,1.92292 -4.94828,0.72625 -8.0802,3.47768 -9.79447,8.60456 -3.18217,9.51698 -3.0214,12.59182 0.97237,18.5964 1.95247,2.93551 3.54994,5.74801 3.54994,6.25 0,0.502 0.5625,0.91401 1.25,0.9156 0.6875,0.002 2.10098,1.27318 3.14106,2.82579 1.44654,2.15935 6.61005,5.53858 9.35133,6.11993 0.13332,0.0283 1.32911,-0.89348 2.65731,-2.04834 z m 50.29337,-57.94065 c 3.3322,-2.08099 3.36529,-4.43312 0.11782,-8.37286 -3.38556,-4.10728 -5.68303,-4.44692 -10.39245,-1.53634 -3.28903,2.03273 -3.30082,2.06721 -1.36803,4 1.07227,1.07227 1.94959,3.22459 1.94959,4.78292 0,1.55834 0.24753,3.08087 0.55006,3.3834 0.78201,0.78201 6.56104,-0.64466 9.14301,-2.25712 z m -20.32488,-11.08151 c 1.35427,-0.61704 2.69236,-2.00166 2.97355,-3.07693 0.67767,-2.59141 -3.04984,-6.80117 -6.02208,-6.80117 -3.34425,0 -6.58914,3.55803 -5.74658,6.30115 0.37145,1.20937 0.73197,2.24498 0.80115,2.30137 0.74323,0.60583 4.2884,2.3437 4.82872,2.36707 0.38662,0.0167 1.81098,-0.47444 3.16524,-1.09149 z M 1075.8696,59.0506 c 0,-0.55 0.45,-1 1,-1 0.55,0 1,0.45 1,1 0,0.55 -0.45,1 -1,1 -0.55,0 -1,-0.45 -1,-1 z m 208.25,-180.66228 c -1.7584,-0.70953 -1.5615,-3.33772 0.25,-3.33772 0.8333,0 1.5,0.88889 1.5,2 0,1.1 -0.1125,1.96447 -0.25,1.92105 -0.1375,-0.0434 -0.8125,-0.30592 -1.5,-0.58333 z m -1645.75003,-9.33772 c -0.35191,-0.5694 0.50929,-1 2,-1 1.49071,0 2.35191,0.4306 2,1 -0.33992,0.55 -1.23992,1 -2,1 -0.76008,0 -1.66008,-0.45 -2,-1 z m 1343.3724,-326.75 c -1.2438,-1.58606 -1.2085,-1.62143 0.3776,-0.37756 0.9625,0.75485 1.75,1.54235 1.75,1.75 0,0.82304 -0.8212,0.29331 -2.1276,-1.37244 z"
       id="path2826" />
    <g
       id="g3622"
       style="fill:#816647">
      <path
         transform="matrix(1.1566265,0,0,1.1566265,-673.8818,-757.68908)"
         d="m 938.24125,446.58347 c 0,16.40298 -13.29725,29.70023 -29.70023,29.70023 -16.40299,0 -29.70024,-13.29725 -29.70024,-29.70023 0,-16.40299 13.29725,-29.70024 29.70024,-29.70024 16.40298,0 29.70023,13.29725 29.70023,29.70024 z"
         sodipodi:ry="29.700237"
         sodipodi:rx="29.700237"
         sodipodi:cy="446.58347"
         sodipodi:cx="908.54102"
         id="path3616"
         style="fill:#816647;fill-opacity:1;fill-rule:nonzero;stroke:none"
         sodipodi:type="arc" />
      <path
         sodipodi:type="arc"
         style="fill:#816647;fill-opacity:1;fill-rule:nonzero;stroke:none"
         id="path3620"
         sodipodi:cx="908.54102"
         sodipodi:cy="446.58347"
         sodipodi:rx="29.700237"
         sodipodi:ry="29.700237"
         d="m 938.24125,446.58347 c 0,16.40298 -13.29725,29.70023 -29.70023,29.70023 -16.40299,0 -29.70024,-13.29725 -29.70024,-29.70023 0,-16.40299 13.29725,-29.70024 29.70024,-29.70024 16.40298,0 29.70023,13.29725 29.70023,29.70024 z"
         transform="matrix(1.1566265,0,0,1.1566265,-471.34765,-757.68908)" />
    </g>
  </g>
</svg>
