<?xml version="1.0" encoding="UTF-8"?>
<svg width="843.91" height="837.04" xmlns="http://www.w3.org/2000/svg">
  <path d="M187.49 221.51c-52.46-.78608-51.044-47.808-32.035-65.934 45.799-24.575 67.339 8.2897 63.477 39.628l44.165 38.9c12.59-12.503 33.792-15.793 37.073-38.255l-33.193-99.184c-30.609-27.85-75.389-53.769-16.194-95.202 54.619-8.1555 59.781 35.324 51.477 79.799l52.797 98.561 43.433-3.0079 2.4857-56.743c-36.393-26.046-14.816-71.366 19.445-72.172 46.26 4.3449 47.053 50.709 17.536 73.371l3.6868 53.751c12.834 4.0375 27.439 6.6132 47.28 4.8681 7.9666-7.4945 32.844-45.509 54.255-106.25-12.673-29.534-7.7217-83.605 53.343-70.276 61.634 44.265-10.331 86.237-17.69 88.294-10.816 37.875-46.812 102.66-30.524 117.77l31.026 23.376 41.054-36.492c-7.313-43.951 33.933-64.036 64.894-39.663 26.613 36.418.54216 69.528-40.104 65.453l-35.191 41.125c13.797 20.276 26.378 44.133 51.532 30.944l91.957-33.135c10.728-28.369 50.109-65.556 86.751-15.458 10.693 67.884-43.425 57.779-79.103 54.167-33.536 19.503-98.141 36.598-100.61 58.508l6.4891 41.632 55.069 2.5636c19.21-29.603 66.517-27.113 73.27 19.299-7.6281 41.639-46.166 49.703-73.628 17.214l-54.716 3.4788c-9.7715 24.34-7.5884 42.994 9.3788 54.614l86.883 40.785c36.447-2.857 86.628-14.259 77.842 51.913-33.948 54.271-73.317 16.08-84.852-13.453l-104.19-37.013c-9.1712-.0969-18.13 1.089-25.5 11.875l-19.188 25.598 38.232 43.104c31.556-3.2562 73.039 25.436 38.975 65.692-18.404 15.457-72.85 12.295-64.279-39.839l-44.964-38.211c-16.669 10.84-35.19 21.205-31.748 37.21l34.96 98.19c56.406 35.392 56.601 66.224 10.338 93.288-68.419-5.4851-51.035-45.083-46.855-79.431-22.171-32.778-24.179-79.014-58.23-101.77l-42.483 5.4546-4.0334 55.809c37.313 43.224 22.59 71.994-26.535 80.167-31.095-17.309-41.868-46.955-14.096-70.457 10.343-11.392.90052-43.457.74534-65.818-14.308-.91979-27.711-7.8607-42.929-2.7176-30.094 49.49-36.231 67.357-52.537 99.359 1.7052 34.067 22.747 77.179-48.211 79.085-31.232-20.771-57.028-44.783 12.864-94.712 17.279-46.151 45.615-104.02 28.684-113.92l-29.636-22.242-46.192 39.379c.48985 66.284-47.5 48.963-67.194 38.199-23.162-55.962 10.727-60.587 42.115-63.42l38.591-46.761c-9.5015-10.978-13.33-24.194-29.607-32.497-43.364 7.3979-70.474 21.484-105.3 32.397-49.725 62.711-77.654 50.55-97.273 9.8461-1.5441-45.206 30.352-54.543 80.341-44.473l94.989-45.688c14.522-14.25 2.3395-32.895 2.4214-49.522l-59.635-3.8206c-24.095 28.439-61.994 28.722-77.589-19.185 9.4907-31.431 33.432-52.267 70.875-21.93 19.175 12 44.102.77562 66.222.88749 8.2433-28.743 9.2118-51.754-10.591-58.4l-84.502-40.245c-62.393 9.9174-94.358-4.8791-76.837-59.867 42.994-40.444 66.61-5.7703 91.334 24.61 41.229 12.693 97.939 42.65 114.32 27.641l20.309-27.114c-14.654-14.643-16.726-34.479-44.951-43.522z" fill="#ccc"/>
</svg>
